solid OpenSCAD_Model
  facet normal 1 -0 0
    outer loop
      vertex 35 -65 18.75
      vertex 35 65 16.25
      vertex 35 65 18.75
    endloop
  endfacet
  facet normal 1 0 0
    outer loop
      vertex 35 65 16.25
      vertex 35 -65 18.75
      vertex 35 -65 16.25
    endloop
  endfacet
  facet normal 0 0 -1
    outer loop
      vertex -32.5 -62.5 18.75
      vertex 32.5 62.5 18.75
      vertex 32.5 -62.5 18.75
    endloop
  endfacet
  facet normal -0 0 -1
    outer loop
      vertex 32.5 62.5 18.75
      vertex -32.5 -62.5 18.75
      vertex -32.5 62.5 18.75
    endloop
  endfacet
  facet normal 0 0 -1
    outer loop
      vertex 37.5 -67.5 18.75
      vertex 35 -65 18.75
      vertex 37.5 67.5 18.75
    endloop
  endfacet
  facet normal 0 0 -1
    outer loop
      vertex 37.5 -67.5 18.75
      vertex -35 -65 18.75
      vertex 35 -65 18.75
    endloop
  endfacet
  facet normal -0 0 -1
    outer loop
      vertex -35 -65 18.75
      vertex -37.5 -67.5 18.75
      vertex -35 65 18.75
    endloop
  endfacet
  facet normal 0 0 -1
    outer loop
      vertex -37.5 -67.5 18.75
      vertex -35 -65 18.75
      vertex 37.5 -67.5 18.75
    endloop
  endfacet
  facet normal 0 0 -1
    outer loop
      vertex 35 65 18.75
      vertex 37.5 67.5 18.75
      vertex 35 -65 18.75
    endloop
  endfacet
  facet normal 0 0 -1
    outer loop
      vertex -35 65 18.75
      vertex 37.5 67.5 18.75
      vertex 35 65 18.75
    endloop
  endfacet
  facet normal 0 0 -1
    outer loop
      vertex -35 65 18.75
      vertex -37.5 67.5 18.75
      vertex 37.5 67.5 18.75
    endloop
  endfacet
  facet normal 0 0 -1
    outer loop
      vertex -37.5 67.5 18.75
      vertex -35 65 18.75
      vertex -37.5 -67.5 18.75
    endloop
  endfacet
  facet normal 0 0 -1
    outer loop
      vertex 35 -65 16.25
      vertex 32.5 -62.5 16.25
      vertex 35 65 16.25
    endloop
  endfacet
  facet normal 0 0 -1
    outer loop
      vertex 35 -65 16.25
      vertex -32.5 -62.5 16.25
      vertex 32.5 -62.5 16.25
    endloop
  endfacet
  facet normal -0 0 -1
    outer loop
      vertex -32.5 -62.5 16.25
      vertex -35 -65 16.25
      vertex -32.5 62.5 16.25
    endloop
  endfacet
  facet normal 0 0 -1
    outer loop
      vertex -35 -65 16.25
      vertex -32.5 -62.5 16.25
      vertex 35 -65 16.25
    endloop
  endfacet
  facet normal 0 0 -1
    outer loop
      vertex 32.5 62.5 16.25
      vertex 35 65 16.25
      vertex 32.5 -62.5 16.25
    endloop
  endfacet
  facet normal 0 0 -1
    outer loop
      vertex -32.5 62.5 16.25
      vertex 35 65 16.25
      vertex 32.5 62.5 16.25
    endloop
  endfacet
  facet normal 0 0 -1
    outer loop
      vertex -32.5 62.5 16.25
      vertex -35 65 16.25
      vertex 35 65 16.25
    endloop
  endfacet
  facet normal 0 0 -1
    outer loop
      vertex -35 65 16.25
      vertex -32.5 62.5 16.25
      vertex -35 -65 16.25
    endloop
  endfacet
  facet normal -1 0 0
    outer loop
      vertex -35 -65 16.25
      vertex -35 65 18.75
      vertex -35 65 16.25
    endloop
  endfacet
  facet normal -1 -0 0
    outer loop
      vertex -35 65 18.75
      vertex -35 -65 16.25
      vertex -35 -65 18.75
    endloop
  endfacet
  facet normal 0 1 -0
    outer loop
      vertex 35 65 16.25
      vertex -35 65 18.75
      vertex 35 65 18.75
    endloop
  endfacet
  facet normal 0 1 0
    outer loop
      vertex -35 65 18.75
      vertex 35 65 16.25
      vertex -35 65 16.25
    endloop
  endfacet
  facet normal 0 -1 0
    outer loop
      vertex -35 -65 16.25
      vertex 35 -65 18.75
      vertex -35 -65 18.75
    endloop
  endfacet
  facet normal 0 -1 -0
    outer loop
      vertex 35 -65 18.75
      vertex -35 -65 16.25
      vertex 35 -65 16.25
    endloop
  endfacet
  facet normal -1 0 0
    outer loop
      vertex 32.5 -62.5 16.25
      vertex 32.5 62.5 18.75
      vertex 32.5 62.5 16.25
    endloop
  endfacet
  facet normal -1 -0 0
    outer loop
      vertex 32.5 62.5 18.75
      vertex 32.5 -62.5 16.25
      vertex 32.5 -62.5 18.75
    endloop
  endfacet
  facet normal 1 -0 0
    outer loop
      vertex -32.5 -62.5 18.75
      vertex -32.5 62.5 16.25
      vertex -32.5 62.5 18.75
    endloop
  endfacet
  facet normal 1 0 0
    outer loop
      vertex -32.5 62.5 16.25
      vertex -32.5 -62.5 18.75
      vertex -32.5 -62.5 16.25
    endloop
  endfacet
  facet normal 0 -1 0
    outer loop
      vertex -32.5 62.5 16.25
      vertex 32.5 62.5 18.75
      vertex -32.5 62.5 18.75
    endloop
  endfacet
  facet normal 0 -1 -0
    outer loop
      vertex 32.5 62.5 18.75
      vertex -32.5 62.5 16.25
      vertex 32.5 62.5 16.25
    endloop
  endfacet
  facet normal 0 1 -0
    outer loop
      vertex 32.5 -62.5 16.25
      vertex -32.5 -62.5 18.75
      vertex 32.5 -62.5 18.75
    endloop
  endfacet
  facet normal 0 1 0
    outer loop
      vertex -32.5 -62.5 18.75
      vertex 32.5 -62.5 16.25
      vertex -32.5 -62.5 16.25
    endloop
  endfacet
  facet normal 1 -0 0
    outer loop
      vertex 37.5 -67.5 21.25
      vertex 37.5 67.5 18.75
      vertex 37.5 67.5 21.25
    endloop
  endfacet
  facet normal 1 0 0
    outer loop
      vertex 37.5 67.5 18.75
      vertex 37.5 -67.5 21.25
      vertex 37.5 -67.5 18.75
    endloop
  endfacet
  facet normal -0 0 1
    outer loop
      vertex -37.5 67.5 21.25
      vertex 37.5 -67.5 21.25
      vertex 37.5 67.5 21.25
    endloop
  endfacet
  facet normal 0 0 1
    outer loop
      vertex 37.5 -67.5 21.25
      vertex -37.5 67.5 21.25
      vertex -37.5 -67.5 21.25
    endloop
  endfacet
  facet normal -1 0 0
    outer loop
      vertex -37.5 -67.5 18.75
      vertex -37.5 67.5 21.25
      vertex -37.5 67.5 18.75
    endloop
  endfacet
  facet normal -1 -0 0
    outer loop
      vertex -37.5 67.5 21.25
      vertex -37.5 -67.5 18.75
      vertex -37.5 -67.5 21.25
    endloop
  endfacet
  facet normal 0 1 -0
    outer loop
      vertex 37.5 67.5 18.75
      vertex -37.5 67.5 21.25
      vertex 37.5 67.5 21.25
    endloop
  endfacet
  facet normal 0 1 0
    outer loop
      vertex -37.5 67.5 21.25
      vertex 37.5 67.5 18.75
      vertex -37.5 67.5 18.75
    endloop
  endfacet
  facet normal 0 -1 0
    outer loop
      vertex -37.5 -67.5 18.75
      vertex 37.5 -67.5 21.25
      vertex -37.5 -67.5 21.25
    endloop
  endfacet
  facet normal 0 -1 -0
    outer loop
      vertex 37.5 -67.5 21.25
      vertex -37.5 -67.5 18.75
      vertex 37.5 -67.5 18.75
    endloop
  endfacet
endsolid OpenSCAD_Model
