solid OpenSCAD_Model
  facet normal 1 -0 0
    outer loop
      vertex 20 -29.5 -1.5
      vertex 20 29.5 -16.5
      vertex 20 29.5 -1.5
    endloop
  endfacet
  facet normal 1 0 0
    outer loop
      vertex 20 29.5 -16.5
      vertex 20 -29.5 -1.5
      vertex 20 -29.5 -16.5
    endloop
  endfacet
  facet normal 0 0 -1
    outer loop
      vertex -29.5 -24.5 -1.5
      vertex -20 -29.5 -1.5
      vertex -24.5 -29.5 -1.5
    endloop
  endfacet
  facet normal 0 0 -1
    outer loop
      vertex -20 -29.5 -1.5
      vertex -29.5 -24.5 -1.5
      vertex -20 29.5 -1.5
    endloop
  endfacet
  facet normal 0 0 -1
    outer loop
      vertex -29.5 -24.5 -1.5
      vertex -24.5 -29.5 -1.5
      vertex -24.8139 -29.4901 -1.5
    endloop
  endfacet
  facet normal 0 0 -1
    outer loop
      vertex -29.5 24.5 -1.5
      vertex -20 29.5 -1.5
      vertex -29.5 -24.5 -1.5
    endloop
  endfacet
  facet normal 0 0 -1
    outer loop
      vertex -29.5 -24.5 -1.5
      vertex -24.8139 -29.4901 -1.5
      vertex -25.1267 -29.4606 -1.5
    endloop
  endfacet
  facet normal -0 0 -1
    outer loop
      vertex -20 29.5 -1.5
      vertex -29.5 24.5 -1.5
      vertex -24.5 29.5 -1.5
    endloop
  endfacet
  facet normal 0 0 -1
    outer loop
      vertex -29.5 -24.5 -1.5
      vertex -25.1267 -29.4606 -1.5
      vertex -25.4369 -29.4114 -1.5
    endloop
  endfacet
  facet normal 0 0 -1
    outer loop
      vertex -24.5 29.5 -1.5
      vertex -29.5 24.5 -1.5
      vertex -24.8139 29.4901 -1.5
    endloop
  endfacet
  facet normal 0 0 -1
    outer loop
      vertex -29.5 -24.5 -1.5
      vertex -25.4369 -29.4114 -1.5
      vertex -25.7435 -29.3429 -1.5
    endloop
  endfacet
  facet normal 0 0 -1
    outer loop
      vertex -24.8139 29.4901 -1.5
      vertex -29.5 24.5 -1.5
      vertex -25.1267 29.4606 -1.5
    endloop
  endfacet
  facet normal 0 0 -1
    outer loop
      vertex -29.5 -24.5 -1.5
      vertex -25.7435 -29.3429 -1.5
      vertex -26.0451 -29.2553 -1.5
    endloop
  endfacet
  facet normal 0 0 -1
    outer loop
      vertex -25.1267 29.4606 -1.5
      vertex -29.5 24.5 -1.5
      vertex -25.4369 29.4114 -1.5
    endloop
  endfacet
  facet normal 0 0 -1
    outer loop
      vertex -29.5 -24.5 -1.5
      vertex -26.0451 -29.2553 -1.5
      vertex -26.3406 -29.1489 -1.5
    endloop
  endfacet
  facet normal 0 0 -1
    outer loop
      vertex -25.4369 29.4114 -1.5
      vertex -29.5 24.5 -1.5
      vertex -25.7435 29.3429 -1.5
    endloop
  endfacet
  facet normal 0 0 -1
    outer loop
      vertex -29.5 -24.5 -1.5
      vertex -26.3406 -29.1489 -1.5
      vertex -26.6289 -29.0241 -1.5
    endloop
  endfacet
  facet normal 0 0 -1
    outer loop
      vertex -25.7435 29.3429 -1.5
      vertex -29.5 24.5 -1.5
      vertex -26.0451 29.2553 -1.5
    endloop
  endfacet
  facet normal 0 0 -1
    outer loop
      vertex -29.5 -24.5 -1.5
      vertex -26.6289 -29.0241 -1.5
      vertex -26.9088 -28.8815 -1.5
    endloop
  endfacet
  facet normal 0 0 -1
    outer loop
      vertex -26.0451 29.2553 -1.5
      vertex -29.5 24.5 -1.5
      vertex -26.3406 29.1489 -1.5
    endloop
  endfacet
  facet normal 0 0 -1
    outer loop
      vertex -29.5 -24.5 -1.5
      vertex -26.9088 -28.8815 -1.5
      vertex -27.1791 -28.7216 -1.5
    endloop
  endfacet
  facet normal 0 0 -1
    outer loop
      vertex -26.3406 29.1489 -1.5
      vertex -29.5 24.5 -1.5
      vertex -26.6289 29.0241 -1.5
    endloop
  endfacet
  facet normal 0 0 -1
    outer loop
      vertex -29.5 -24.5 -1.5
      vertex -27.1791 -28.7216 -1.5
      vertex -27.4389 -28.5451 -1.5
    endloop
  endfacet
  facet normal 0 0 -1
    outer loop
      vertex -26.6289 29.0241 -1.5
      vertex -29.5 24.5 -1.5
      vertex -26.9088 28.8815 -1.5
    endloop
  endfacet
  facet normal 0 0 -1
    outer loop
      vertex -29.5 -24.5 -1.5
      vertex -27.4389 -28.5451 -1.5
      vertex -27.6871 -28.3526 -1.5
    endloop
  endfacet
  facet normal 0 0 -1
    outer loop
      vertex -26.9088 28.8815 -1.5
      vertex -29.5 24.5 -1.5
      vertex -27.1791 28.7216 -1.5
    endloop
  endfacet
  facet normal 0 0 -1
    outer loop
      vertex -29.5 -24.5 -1.5
      vertex -27.6871 -28.3526 -1.5
      vertex -27.9227 -28.1448 -1.5
    endloop
  endfacet
  facet normal 0 0 -1
    outer loop
      vertex -27.1791 28.7216 -1.5
      vertex -29.5 24.5 -1.5
      vertex -27.4389 28.5451 -1.5
    endloop
  endfacet
  facet normal 0 0 -1
    outer loop
      vertex -29.5 -24.5 -1.5
      vertex -27.9227 -28.1448 -1.5
      vertex -28.1448 -27.9227 -1.5
    endloop
  endfacet
  facet normal 0 0 -1
    outer loop
      vertex -27.4389 28.5451 -1.5
      vertex -29.5 24.5 -1.5
      vertex -27.6871 28.3526 -1.5
    endloop
  endfacet
  facet normal 0 0 -1
    outer loop
      vertex -29.5 -24.5 -1.5
      vertex -28.1448 -27.9227 -1.5
      vertex -28.3526 -27.6871 -1.5
    endloop
  endfacet
  facet normal 0 0 -1
    outer loop
      vertex -27.6871 28.3526 -1.5
      vertex -29.5 24.5 -1.5
      vertex -27.9227 28.1448 -1.5
    endloop
  endfacet
  facet normal 0 0 -1
    outer loop
      vertex -29.5 -24.5 -1.5
      vertex -28.3526 -27.6871 -1.5
      vertex -28.5451 -27.4389 -1.5
    endloop
  endfacet
  facet normal 0 0 -1
    outer loop
      vertex -27.9227 28.1448 -1.5
      vertex -29.5 24.5 -1.5
      vertex -28.1448 27.9227 -1.5
    endloop
  endfacet
  facet normal 0 0 -1
    outer loop
      vertex -29.5 -24.5 -1.5
      vertex -28.5451 -27.4389 -1.5
      vertex -28.7216 -27.1791 -1.5
    endloop
  endfacet
  facet normal 0 0 -1
    outer loop
      vertex -28.1448 27.9227 -1.5
      vertex -29.5 24.5 -1.5
      vertex -28.3526 27.6871 -1.5
    endloop
  endfacet
  facet normal 0 0 -1
    outer loop
      vertex -29.5 -24.5 -1.5
      vertex -28.7216 -27.1791 -1.5
      vertex -28.8815 -26.9088 -1.5
    endloop
  endfacet
  facet normal 0 0 -1
    outer loop
      vertex -28.3526 27.6871 -1.5
      vertex -29.5 24.5 -1.5
      vertex -28.5451 27.4389 -1.5
    endloop
  endfacet
  facet normal 0 0 -1
    outer loop
      vertex -29.5 -24.5 -1.5
      vertex -28.8815 -26.9088 -1.5
      vertex -29.0241 -26.6289 -1.5
    endloop
  endfacet
  facet normal 0 0 -1
    outer loop
      vertex -28.5451 27.4389 -1.5
      vertex -29.5 24.5 -1.5
      vertex -28.7216 27.1791 -1.5
    endloop
  endfacet
  facet normal 0 0 -1
    outer loop
      vertex -29.5 -24.5 -1.5
      vertex -29.0241 -26.6289 -1.5
      vertex -29.1489 -26.3406 -1.5
    endloop
  endfacet
  facet normal 0 0 -1
    outer loop
      vertex -28.7216 27.1791 -1.5
      vertex -29.5 24.5 -1.5
      vertex -28.8815 26.9088 -1.5
    endloop
  endfacet
  facet normal 0 0 -1
    outer loop
      vertex -29.5 -24.5 -1.5
      vertex -29.1489 -26.3406 -1.5
      vertex -29.2553 -26.0451 -1.5
    endloop
  endfacet
  facet normal 0 0 -1
    outer loop
      vertex -28.8815 26.9088 -1.5
      vertex -29.5 24.5 -1.5
      vertex -29.0241 26.6289 -1.5
    endloop
  endfacet
  facet normal 0 0 -1
    outer loop
      vertex -29.5 -24.5 -1.5
      vertex -29.2553 -26.0451 -1.5
      vertex -29.3429 -25.7435 -1.5
    endloop
  endfacet
  facet normal 0 0 -1
    outer loop
      vertex -29.0241 26.6289 -1.5
      vertex -29.5 24.5 -1.5
      vertex -29.1489 26.3406 -1.5
    endloop
  endfacet
  facet normal 0 0 -1
    outer loop
      vertex -29.5 -24.5 -1.5
      vertex -29.3429 -25.7435 -1.5
      vertex -29.4114 -25.4369 -1.5
    endloop
  endfacet
  facet normal 0 0 -1
    outer loop
      vertex -29.1489 26.3406 -1.5
      vertex -29.5 24.5 -1.5
      vertex -29.2553 26.0451 -1.5
    endloop
  endfacet
  facet normal 0 0 -1
    outer loop
      vertex -29.5 -24.5 -1.5
      vertex -29.4114 -25.4369 -1.5
      vertex -29.4606 -25.1267 -1.5
    endloop
  endfacet
  facet normal 0 0 -1
    outer loop
      vertex -29.2553 26.0451 -1.5
      vertex -29.5 24.5 -1.5
      vertex -29.3429 25.7435 -1.5
    endloop
  endfacet
  facet normal 0 0 -1
    outer loop
      vertex -29.5 -24.5 -1.5
      vertex -29.4606 -25.1267 -1.5
      vertex -29.4901 -24.8139 -1.5
    endloop
  endfacet
  facet normal 0 0 -1
    outer loop
      vertex -29.3429 25.7435 -1.5
      vertex -29.5 24.5 -1.5
      vertex -29.4114 25.4369 -1.5
    endloop
  endfacet
  facet normal 0 0 -1
    outer loop
      vertex -29.4114 25.4369 -1.5
      vertex -29.5 24.5 -1.5
      vertex -29.4606 25.1267 -1.5
    endloop
  endfacet
  facet normal 0 0 -1
    outer loop
      vertex -29.4606 25.1267 -1.5
      vertex -29.5 24.5 -1.5
      vertex -29.4901 24.8139 -1.5
    endloop
  endfacet
  facet normal 0 0 -1
    outer loop
      vertex 24.5 -29.5 -1.5
      vertex 29.5 -24.5 -1.5
      vertex 29.4901 -24.8139 -1.5
    endloop
  endfacet
  facet normal -0 0 -1
    outer loop
      vertex 29.5 -24.5 -1.5
      vertex 20 -29.5 -1.5
      vertex 29.5 24.5 -1.5
    endloop
  endfacet
  facet normal 0 0 -1
    outer loop
      vertex 24.5 -29.5 -1.5
      vertex 29.4901 -24.8139 -1.5
      vertex 29.4606 -25.1267 -1.5
    endloop
  endfacet
  facet normal 0 0 -1
    outer loop
      vertex 20 29.5 -1.5
      vertex 29.5 24.5 -1.5
      vertex 20 -29.5 -1.5
    endloop
  endfacet
  facet normal 0 0 -1
    outer loop
      vertex 24.5 -29.5 -1.5
      vertex 29.4606 -25.1267 -1.5
      vertex 29.4114 -25.4369 -1.5
    endloop
  endfacet
  facet normal -0 -0 -1
    outer loop
      vertex 24.5 29.5 -1.5
      vertex 29.5 24.5 -1.5
      vertex 20 29.5 -1.5
    endloop
  endfacet
  facet normal 0 0 -1
    outer loop
      vertex 24.5 -29.5 -1.5
      vertex 29.4114 -25.4369 -1.5
      vertex 29.3429 -25.7435 -1.5
    endloop
  endfacet
  facet normal 0 0 -1
    outer loop
      vertex 29.5 24.5 -1.5
      vertex 24.5 29.5 -1.5
      vertex 29.4901 24.8139 -1.5
    endloop
  endfacet
  facet normal 0 0 -1
    outer loop
      vertex 24.5 -29.5 -1.5
      vertex 29.3429 -25.7435 -1.5
      vertex 29.2553 -26.0451 -1.5
    endloop
  endfacet
  facet normal 0 0 -1
    outer loop
      vertex 29.4901 24.8139 -1.5
      vertex 24.5 29.5 -1.5
      vertex 29.4606 25.1267 -1.5
    endloop
  endfacet
  facet normal 0 0 -1
    outer loop
      vertex 24.5 -29.5 -1.5
      vertex 29.2553 -26.0451 -1.5
      vertex 29.1489 -26.3406 -1.5
    endloop
  endfacet
  facet normal 0 0 -1
    outer loop
      vertex 29.4606 25.1267 -1.5
      vertex 24.5 29.5 -1.5
      vertex 29.4114 25.4369 -1.5
    endloop
  endfacet
  facet normal 0 0 -1
    outer loop
      vertex 24.5 -29.5 -1.5
      vertex 29.1489 -26.3406 -1.5
      vertex 29.0241 -26.6289 -1.5
    endloop
  endfacet
  facet normal 0 0 -1
    outer loop
      vertex 29.4114 25.4369 -1.5
      vertex 24.5 29.5 -1.5
      vertex 29.3429 25.7435 -1.5
    endloop
  endfacet
  facet normal 0 0 -1
    outer loop
      vertex 24.5 -29.5 -1.5
      vertex 29.0241 -26.6289 -1.5
      vertex 28.8815 -26.9088 -1.5
    endloop
  endfacet
  facet normal 0 0 -1
    outer loop
      vertex 29.3429 25.7435 -1.5
      vertex 24.5 29.5 -1.5
      vertex 29.2553 26.0451 -1.5
    endloop
  endfacet
  facet normal 0 0 -1
    outer loop
      vertex 24.5 -29.5 -1.5
      vertex 28.8815 -26.9088 -1.5
      vertex 28.7216 -27.1791 -1.5
    endloop
  endfacet
  facet normal 0 0 -1
    outer loop
      vertex 29.2553 26.0451 -1.5
      vertex 24.5 29.5 -1.5
      vertex 29.1489 26.3406 -1.5
    endloop
  endfacet
  facet normal 0 0 -1
    outer loop
      vertex 24.5 -29.5 -1.5
      vertex 28.7216 -27.1791 -1.5
      vertex 28.5451 -27.4389 -1.5
    endloop
  endfacet
  facet normal 0 0 -1
    outer loop
      vertex 29.1489 26.3406 -1.5
      vertex 24.5 29.5 -1.5
      vertex 29.0241 26.6289 -1.5
    endloop
  endfacet
  facet normal 0 0 -1
    outer loop
      vertex 24.5 -29.5 -1.5
      vertex 28.5451 -27.4389 -1.5
      vertex 28.3526 -27.6871 -1.5
    endloop
  endfacet
  facet normal 0 0 -1
    outer loop
      vertex 29.0241 26.6289 -1.5
      vertex 24.5 29.5 -1.5
      vertex 28.8815 26.9088 -1.5
    endloop
  endfacet
  facet normal 0 0 -1
    outer loop
      vertex 24.5 -29.5 -1.5
      vertex 28.3526 -27.6871 -1.5
      vertex 28.1448 -27.9227 -1.5
    endloop
  endfacet
  facet normal 0 0 -1
    outer loop
      vertex 28.8815 26.9088 -1.5
      vertex 24.5 29.5 -1.5
      vertex 28.7216 27.1791 -1.5
    endloop
  endfacet
  facet normal 0 0 -1
    outer loop
      vertex 24.5 -29.5 -1.5
      vertex 28.1448 -27.9227 -1.5
      vertex 27.9227 -28.1448 -1.5
    endloop
  endfacet
  facet normal 0 0 -1
    outer loop
      vertex 28.7216 27.1791 -1.5
      vertex 24.5 29.5 -1.5
      vertex 28.5451 27.4389 -1.5
    endloop
  endfacet
  facet normal 0 0 -1
    outer loop
      vertex 24.5 -29.5 -1.5
      vertex 27.9227 -28.1448 -1.5
      vertex 27.6871 -28.3526 -1.5
    endloop
  endfacet
  facet normal 0 0 -1
    outer loop
      vertex 28.5451 27.4389 -1.5
      vertex 24.5 29.5 -1.5
      vertex 28.3526 27.6871 -1.5
    endloop
  endfacet
  facet normal 0 0 -1
    outer loop
      vertex 24.5 -29.5 -1.5
      vertex 27.6871 -28.3526 -1.5
      vertex 27.4389 -28.5451 -1.5
    endloop
  endfacet
  facet normal 0 0 -1
    outer loop
      vertex 28.3526 27.6871 -1.5
      vertex 24.5 29.5 -1.5
      vertex 28.1448 27.9227 -1.5
    endloop
  endfacet
  facet normal 0 0 -1
    outer loop
      vertex 24.5 -29.5 -1.5
      vertex 27.4389 -28.5451 -1.5
      vertex 27.1791 -28.7216 -1.5
    endloop
  endfacet
  facet normal 0 0 -1
    outer loop
      vertex 28.1448 27.9227 -1.5
      vertex 24.5 29.5 -1.5
      vertex 27.9227 28.1448 -1.5
    endloop
  endfacet
  facet normal 0 0 -1
    outer loop
      vertex 24.5 -29.5 -1.5
      vertex 27.1791 -28.7216 -1.5
      vertex 26.9088 -28.8815 -1.5
    endloop
  endfacet
  facet normal 0 0 -1
    outer loop
      vertex 27.9227 28.1448 -1.5
      vertex 24.5 29.5 -1.5
      vertex 27.6871 28.3526 -1.5
    endloop
  endfacet
  facet normal 0 0 -1
    outer loop
      vertex 24.5 -29.5 -1.5
      vertex 26.9088 -28.8815 -1.5
      vertex 26.6289 -29.0241 -1.5
    endloop
  endfacet
  facet normal 0 0 -1
    outer loop
      vertex 27.6871 28.3526 -1.5
      vertex 24.5 29.5 -1.5
      vertex 27.4389 28.5451 -1.5
    endloop
  endfacet
  facet normal 0 0 -1
    outer loop
      vertex 24.5 -29.5 -1.5
      vertex 26.6289 -29.0241 -1.5
      vertex 26.3406 -29.1489 -1.5
    endloop
  endfacet
  facet normal 0 0 -1
    outer loop
      vertex 27.4389 28.5451 -1.5
      vertex 24.5 29.5 -1.5
      vertex 27.1791 28.7216 -1.5
    endloop
  endfacet
  facet normal 0 0 -1
    outer loop
      vertex 24.5 -29.5 -1.5
      vertex 26.3406 -29.1489 -1.5
      vertex 26.0451 -29.2553 -1.5
    endloop
  endfacet
  facet normal 0 0 -1
    outer loop
      vertex 27.1791 28.7216 -1.5
      vertex 24.5 29.5 -1.5
      vertex 26.9088 28.8815 -1.5
    endloop
  endfacet
  facet normal 0 0 -1
    outer loop
      vertex 24.5 -29.5 -1.5
      vertex 26.0451 -29.2553 -1.5
      vertex 25.7435 -29.3429 -1.5
    endloop
  endfacet
  facet normal 0 0 -1
    outer loop
      vertex 26.9088 28.8815 -1.5
      vertex 24.5 29.5 -1.5
      vertex 26.6289 29.0241 -1.5
    endloop
  endfacet
  facet normal 0 0 -1
    outer loop
      vertex 24.5 -29.5 -1.5
      vertex 25.7435 -29.3429 -1.5
      vertex 25.4369 -29.4114 -1.5
    endloop
  endfacet
  facet normal 0 0 -1
    outer loop
      vertex 29.5 -24.5 -1.5
      vertex 24.5 -29.5 -1.5
      vertex 20 -29.5 -1.5
    endloop
  endfacet
  facet normal 0 0 -1
    outer loop
      vertex 24.5 -29.5 -1.5
      vertex 25.4369 -29.4114 -1.5
      vertex 25.1267 -29.4606 -1.5
    endloop
  endfacet
  facet normal 0 0 -1
    outer loop
      vertex 26.6289 29.0241 -1.5
      vertex 24.5 29.5 -1.5
      vertex 26.3406 29.1489 -1.5
    endloop
  endfacet
  facet normal 0 0 -1
    outer loop
      vertex 24.5 -29.5 -1.5
      vertex 25.1267 -29.4606 -1.5
      vertex 24.8139 -29.4901 -1.5
    endloop
  endfacet
  facet normal 0 0 -1
    outer loop
      vertex 25.7435 29.3429 -1.5
      vertex 24.5 29.5 -1.5
      vertex 25.4369 29.4114 -1.5
    endloop
  endfacet
  facet normal 0 0 -1
    outer loop
      vertex 25.4369 29.4114 -1.5
      vertex 24.5 29.5 -1.5
      vertex 25.1267 29.4606 -1.5
    endloop
  endfacet
  facet normal 0 0 -1
    outer loop
      vertex 25.1267 29.4606 -1.5
      vertex 24.5 29.5 -1.5
      vertex 24.8139 29.4901 -1.5
    endloop
  endfacet
  facet normal 0 0 -1
    outer loop
      vertex 26.3406 29.1489 -1.5
      vertex 24.5 29.5 -1.5
      vertex 26.0451 29.2553 -1.5
    endloop
  endfacet
  facet normal 0 0 -1
    outer loop
      vertex 26.0451 29.2553 -1.5
      vertex 24.5 29.5 -1.5
      vertex 25.7435 29.3429 -1.5
    endloop
  endfacet
  facet normal 0 0 -1
    outer loop
      vertex -10 -29.5 -1.5
      vertex 10 29.5 -1.5
      vertex 10 -29.5 -1.5
    endloop
  endfacet
  facet normal -0 0 -1
    outer loop
      vertex 10 29.5 -1.5
      vertex -10 -29.5 -1.5
      vertex -10 29.5 -1.5
    endloop
  endfacet
  facet normal 0 0 -1
    outer loop
      vertex 10 -29.5 -16.5
      vertex 20 29.5 -16.5
      vertex 20 -29.5 -16.5
    endloop
  endfacet
  facet normal -0 0 -1
    outer loop
      vertex 20 29.5 -16.5
      vertex 10 -29.5 -16.5
      vertex 10 29.5 -16.5
    endloop
  endfacet
  facet normal 0 0 -1
    outer loop
      vertex -20 -29.5 -16.5
      vertex -10 29.5 -16.5
      vertex -10 -29.5 -16.5
    endloop
  endfacet
  facet normal -0 0 -1
    outer loop
      vertex -10 29.5 -16.5
      vertex -20 -29.5 -16.5
      vertex -20 29.5 -16.5
    endloop
  endfacet
  facet normal -1 0 0
    outer loop
      vertex -20 -29.5 -16.5
      vertex -20 29.5 -1.5
      vertex -20 29.5 -16.5
    endloop
  endfacet
  facet normal -1 -0 0
    outer loop
      vertex -20 29.5 -1.5
      vertex -20 -29.5 -16.5
      vertex -20 -29.5 -1.5
    endloop
  endfacet
  facet normal 0 1 -0
    outer loop
      vertex -10 29.5 -16.5
      vertex -20 29.5 -1.5
      vertex -10 29.5 -1.5
    endloop
  endfacet
  facet normal 0 1 0
    outer loop
      vertex -20 29.5 -1.5
      vertex -10 29.5 -16.5
      vertex -20 29.5 -16.5
    endloop
  endfacet
  facet normal 0 1 -0
    outer loop
      vertex 20 29.5 -16.5
      vertex 10 29.5 -1.5
      vertex 20 29.5 -1.5
    endloop
  endfacet
  facet normal 0 1 0
    outer loop
      vertex 10 29.5 -1.5
      vertex 20 29.5 -16.5
      vertex 10 29.5 -16.5
    endloop
  endfacet
  facet normal 0 1 0
    outer loop
      vertex 20 29.5 -1.5
      vertex 24.5 29.5 1.5
      vertex 24.5 29.5 -1.5
    endloop
  endfacet
  facet normal 0 1 0
    outer loop
      vertex 10 29.5 -1.5
      vertex 24.5 29.5 1.5
      vertex 20 29.5 -1.5
    endloop
  endfacet
  facet normal 0 1 0
    outer loop
      vertex 24.5 29.5 1.5
      vertex 10 29.5 -1.5
      vertex -24.5 29.5 1.5
    endloop
  endfacet
  facet normal 0 1 -0
    outer loop
      vertex -10 29.5 -1.5
      vertex -24.5 29.5 1.5
      vertex 10 29.5 -1.5
    endloop
  endfacet
  facet normal 0 1 -0
    outer loop
      vertex -20 29.5 -1.5
      vertex -24.5 29.5 1.5
      vertex -10 29.5 -1.5
    endloop
  endfacet
  facet normal 0 1 0
    outer loop
      vertex -24.5 29.5 1.5
      vertex -20 29.5 -1.5
      vertex -24.5 29.5 -1.5
    endloop
  endfacet
  facet normal 0 -1 0
    outer loop
      vertex 10 -29.5 -16.5
      vertex 20 -29.5 -1.5
      vertex 10 -29.5 -1.5
    endloop
  endfacet
  facet normal 0 -1 -0
    outer loop
      vertex 20 -29.5 -1.5
      vertex 10 -29.5 -16.5
      vertex 20 -29.5 -16.5
    endloop
  endfacet
  facet normal 0 -1 0
    outer loop
      vertex -20 -29.5 -16.5
      vertex -10 -29.5 -1.5
      vertex -20 -29.5 -1.5
    endloop
  endfacet
  facet normal 0 -1 -0
    outer loop
      vertex -10 -29.5 -1.5
      vertex -20 -29.5 -16.5
      vertex -10 -29.5 -16.5
    endloop
  endfacet
  facet normal 0 -1 0
    outer loop
      vertex -20 -29.5 -1.5
      vertex -24.5 -29.5 1.5
      vertex -24.5 -29.5 -1.5
    endloop
  endfacet
  facet normal 0 -1 0
    outer loop
      vertex -10 -29.5 -1.5
      vertex -24.5 -29.5 1.5
      vertex -20 -29.5 -1.5
    endloop
  endfacet
  facet normal 0 -1 0
    outer loop
      vertex -24.5 -29.5 1.5
      vertex -10 -29.5 -1.5
      vertex 24.5 -29.5 1.5
    endloop
  endfacet
  facet normal 0 -1 0
    outer loop
      vertex 10 -29.5 -1.5
      vertex 24.5 -29.5 1.5
      vertex -10 -29.5 -1.5
    endloop
  endfacet
  facet normal 0 -1 0
    outer loop
      vertex 20 -29.5 -1.5
      vertex 24.5 -29.5 1.5
      vertex 10 -29.5 -1.5
    endloop
  endfacet
  facet normal 0 -1 -0
    outer loop
      vertex 24.5 -29.5 1.5
      vertex 20 -29.5 -1.5
      vertex 24.5 -29.5 -1.5
    endloop
  endfacet
  facet normal -1 0 0
    outer loop
      vertex 10 -29.5 -16.5
      vertex 10 29.5 -1.5
      vertex 10 29.5 -16.5
    endloop
  endfacet
  facet normal -1 -0 0
    outer loop
      vertex 10 29.5 -1.5
      vertex 10 -29.5 -16.5
      vertex 10 -29.5 -1.5
    endloop
  endfacet
  facet normal 1 -0 0
    outer loop
      vertex -10 -29.5 -1.5
      vertex -10 29.5 -16.5
      vertex -10 29.5 -1.5
    endloop
  endfacet
  facet normal 1 0 0
    outer loop
      vertex -10 29.5 -16.5
      vertex -10 -29.5 -1.5
      vertex -10 -29.5 -16.5
    endloop
  endfacet
  facet normal -1 0 0
    outer loop
      vertex -29.5 -24.5 -1.5
      vertex -29.5 24.5 1.5
      vertex -29.5 24.5 -1.5
    endloop
  endfacet
  facet normal -1 -0 0
    outer loop
      vertex -29.5 24.5 1.5
      vertex -29.5 -24.5 -1.5
      vertex -29.5 -24.5 1.5
    endloop
  endfacet
  facet normal 0.156649 -0.987654 0
    outer loop
      vertex 25.1267 -29.4606 -1.5
      vertex 25.4369 -29.4114 1.5
      vertex 25.1267 -29.4606 1.5
    endloop
  endfacet
  facet normal 0.156649 -0.987654 0
    outer loop
      vertex 25.4369 -29.4114 1.5
      vertex 25.1267 -29.4606 -1.5
      vertex 25.4369 -29.4114 -1.5
    endloop
  endfacet
  facet normal -0.960313 -0.278924 0
    outer loop
      vertex -29.2553 -26.0451 -1.5
      vertex -29.3429 -25.7435 1.5
      vertex -29.3429 -25.7435 -1.5
    endloop
  endfacet
  facet normal -0.960313 -0.278924 0
    outer loop
      vertex -29.3429 -25.7435 1.5
      vertex -29.2553 -26.0451 -1.5
      vertex -29.2553 -26.0451 1.5
    endloop
  endfacet
  facet normal 0.661474 0.749968 -0
    outer loop
      vertex 27.9227 28.1448 -1.5
      vertex 27.6871 28.3526 1.5
      vertex 27.9227 28.1448 1.5
    endloop
  endfacet
  facet normal 0.661474 0.749968 0
    outer loop
      vertex 27.6871 28.3526 1.5
      vertex 27.9227 28.1448 -1.5
      vertex 27.6871 28.3526 -1.5
    endloop
  endfacet
  facet normal -0.917707 -0.397259 0
    outer loop
      vertex -29.0241 -26.6289 -1.5
      vertex -29.1489 -26.3406 1.5
      vertex -29.1489 -26.3406 -1.5
    endloop
  endfacet
  facet normal -0.917707 -0.397259 0
    outer loop
      vertex -29.1489 -26.3406 1.5
      vertex -29.0241 -26.6289 -1.5
      vertex -29.0241 -26.6289 1.5
    endloop
  endfacet
  facet normal -0.156649 -0.987654 0
    outer loop
      vertex -25.4369 -29.4114 -1.5
      vertex -25.1267 -29.4606 1.5
      vertex -25.4369 -29.4114 1.5
    endloop
  endfacet
  facet normal -0.156649 -0.987654 -0
    outer loop
      vertex -25.1267 -29.4606 1.5
      vertex -25.4369 -29.4114 -1.5
      vertex -25.1267 -29.4606 -1.5
    endloop
  endfacet
  facet normal -0.975939 -0.218043 0
    outer loop
      vertex -29.3429 -25.7435 -1.5
      vertex -29.4114 -25.4369 1.5
      vertex -29.4114 -25.4369 -1.5
    endloop
  endfacet
  facet normal -0.975939 -0.218043 0
    outer loop
      vertex -29.4114 -25.4369 1.5
      vertex -29.3429 -25.7435 -1.5
      vertex -29.3429 -25.7435 1.5
    endloop
  endfacet
  facet normal 0.995582 -0.0938928 0
    outer loop
      vertex 29.4606 -25.1267 1.5
      vertex 29.4901 -24.8139 -1.5
      vertex 29.4901 -24.8139 1.5
    endloop
  endfacet
  facet normal 0.995582 -0.0938928 0
    outer loop
      vertex 29.4901 -24.8139 -1.5
      vertex 29.4606 -25.1267 1.5
      vertex 29.4606 -25.1267 -1.5
    endloop
  endfacet
  facet normal -0.827169 0.561953 0
    outer loop
      vertex -28.7216 27.1791 -1.5
      vertex -28.5451 27.4389 1.5
      vertex -28.5451 27.4389 -1.5
    endloop
  endfacet
  facet normal -0.827169 0.561953 0
    outer loop
      vertex -28.5451 27.4389 1.5
      vertex -28.7216 27.1791 -1.5
      vertex -28.7216 27.1791 1.5
    endloop
  endfacet
  facet normal -0.031523 0.999503 0
    outer loop
      vertex -24.5 29.5 -1.5
      vertex -24.8139 29.4901 1.5
      vertex -24.5 29.5 1.5
    endloop
  endfacet
  facet normal -0.031523 0.999503 0
    outer loop
      vertex -24.8139 29.4901 1.5
      vertex -24.5 29.5 -1.5
      vertex -24.8139 29.4901 -1.5
    endloop
  endfacet
  facet normal 1 -0 0
    outer loop
      vertex 29.5 -24.5 1.5
      vertex 29.5 24.5 -1.5
      vertex 29.5 24.5 1.5
    endloop
  endfacet
  facet normal 1 0 0
    outer loop
      vertex 29.5 24.5 -1.5
      vertex 29.5 -24.5 1.5
      vertex 29.5 -24.5 -1.5
    endloop
  endfacet
  facet normal -0.790191 -0.61286 0
    outer loop
      vertex -28.3526 -27.6871 -1.5
      vertex -28.5451 -27.4389 1.5
      vertex -28.5451 -27.4389 -1.5
    endloop
  endfacet
  facet normal -0.790191 -0.61286 0
    outer loop
      vertex -28.5451 -27.4389 1.5
      vertex -28.3526 -27.6871 -1.5
      vertex -28.3526 -27.6871 1.5
    endloop
  endfacet
  facet normal 0.218043 0.975939 -0
    outer loop
      vertex 25.7435 29.3429 -1.5
      vertex 25.4369 29.4114 1.5
      vertex 25.7435 29.3429 1.5
    endloop
  endfacet
  facet normal 0.218043 0.975939 0
    outer loop
      vertex 25.4369 29.4114 1.5
      vertex 25.7435 29.3429 -1.5
      vertex 25.4369 29.4114 -1.5
    endloop
  endfacet
  facet normal 0.891027 -0.45395 0
    outer loop
      vertex 28.8815 -26.9088 1.5
      vertex 29.0241 -26.6289 -1.5
      vertex 29.0241 -26.6289 1.5
    endloop
  endfacet
  facet normal 0.891027 -0.45395 0
    outer loop
      vertex 29.0241 -26.6289 -1.5
      vertex 28.8815 -26.9088 1.5
      vertex 28.8815 -26.9088 -1.5
    endloop
  endfacet
  facet normal 0.891027 0.45395 0
    outer loop
      vertex 29.0241 26.6289 1.5
      vertex 28.8815 26.9088 -1.5
      vertex 28.8815 26.9088 1.5
    endloop
  endfacet
  facet normal 0.891027 0.45395 0
    outer loop
      vertex 28.8815 26.9088 -1.5
      vertex 29.0241 26.6289 1.5
      vertex 29.0241 26.6289 -1.5
    endloop
  endfacet
  facet normal 0.999503 -0.031523 0
    outer loop
      vertex 29.4901 -24.8139 1.5
      vertex 29.5 -24.5 -1.5
      vertex 29.5 -24.5 1.5
    endloop
  endfacet
  facet normal 0.999503 -0.031523 0
    outer loop
      vertex 29.5 -24.5 -1.5
      vertex 29.4901 -24.8139 1.5
      vertex 29.4901 -24.8139 -1.5
    endloop
  endfacet
  facet normal -0.827169 -0.561953 0
    outer loop
      vertex -28.5451 -27.4389 -1.5
      vertex -28.7216 -27.1791 1.5
      vertex -28.7216 -27.1791 -1.5
    endloop
  endfacet
  facet normal -0.827169 -0.561953 0
    outer loop
      vertex -28.7216 -27.1791 1.5
      vertex -28.5451 -27.4389 -1.5
      vertex -28.5451 -27.4389 1.5
    endloop
  endfacet
  facet normal -0.278924 -0.960313 0
    outer loop
      vertex -26.0451 -29.2553 -1.5
      vertex -25.7435 -29.3429 1.5
      vertex -26.0451 -29.2553 1.5
    endloop
  endfacet
  facet normal -0.278924 -0.960313 -0
    outer loop
      vertex -25.7435 -29.3429 1.5
      vertex -26.0451 -29.2553 -1.5
      vertex -25.7435 -29.3429 -1.5
    endloop
  endfacet
  facet normal -0.995582 -0.0938928 0
    outer loop
      vertex -29.4606 -25.1267 -1.5
      vertex -29.4901 -24.8139 1.5
      vertex -29.4901 -24.8139 -1.5
    endloop
  endfacet
  facet normal -0.995582 -0.0938928 0
    outer loop
      vertex -29.4901 -24.8139 1.5
      vertex -29.4606 -25.1267 -1.5
      vertex -29.4606 -25.1267 1.5
    endloop
  endfacet
  facet normal 0.790191 -0.61286 0
    outer loop
      vertex 28.3526 -27.6871 1.5
      vertex 28.5451 -27.4389 -1.5
      vertex 28.5451 -27.4389 1.5
    endloop
  endfacet
  facet normal 0.790191 -0.61286 0
    outer loop
      vertex 28.5451 -27.4389 -1.5
      vertex 28.3526 -27.6871 1.5
      vertex 28.3526 -27.6871 -1.5
    endloop
  endfacet
  facet normal -0.156649 0.987654 0
    outer loop
      vertex -25.1267 29.4606 -1.5
      vertex -25.4369 29.4114 1.5
      vertex -25.1267 29.4606 1.5
    endloop
  endfacet
  facet normal -0.156649 0.987654 0
    outer loop
      vertex -25.4369 29.4114 1.5
      vertex -25.1267 29.4606 -1.5
      vertex -25.4369 29.4114 -1.5
    endloop
  endfacet
  facet normal 0.61286 -0.790191 0
    outer loop
      vertex 27.4389 -28.5451 -1.5
      vertex 27.6871 -28.3526 1.5
      vertex 27.4389 -28.5451 1.5
    endloop
  endfacet
  facet normal 0.61286 -0.790191 0
    outer loop
      vertex 27.6871 -28.3526 1.5
      vertex 27.4389 -28.5451 -1.5
      vertex 27.6871 -28.3526 -1.5
    endloop
  endfacet
  facet normal -0.397259 -0.917707 0
    outer loop
      vertex -26.6289 -29.0241 -1.5
      vertex -26.3406 -29.1489 1.5
      vertex -26.6289 -29.0241 1.5
    endloop
  endfacet
  facet normal -0.397259 -0.917707 -0
    outer loop
      vertex -26.3406 -29.1489 1.5
      vertex -26.6289 -29.0241 -1.5
      vertex -26.3406 -29.1489 -1.5
    endloop
  endfacet
  facet normal -0.031523 -0.999503 0
    outer loop
      vertex -24.8139 -29.4901 -1.5
      vertex -24.5 -29.5 1.5
      vertex -24.8139 -29.4901 1.5
    endloop
  endfacet
  facet normal -0.031523 -0.999503 -0
    outer loop
      vertex -24.5 -29.5 1.5
      vertex -24.8139 -29.4901 -1.5
      vertex -24.5 -29.5 -1.5
    endloop
  endfacet
  facet normal 0.987654 -0.156649 0
    outer loop
      vertex 29.4114 -25.4369 1.5
      vertex 29.4606 -25.1267 -1.5
      vertex 29.4606 -25.1267 1.5
    endloop
  endfacet
  facet normal 0.987654 -0.156649 0
    outer loop
      vertex 29.4606 -25.1267 -1.5
      vertex 29.4114 -25.4369 1.5
      vertex 29.4114 -25.4369 -1.5
    endloop
  endfacet
  facet normal 0.661474 -0.749968 0
    outer loop
      vertex 27.6871 -28.3526 -1.5
      vertex 27.9227 -28.1448 1.5
      vertex 27.6871 -28.3526 1.5
    endloop
  endfacet
  facet normal 0.661474 -0.749968 0
    outer loop
      vertex 27.9227 -28.1448 1.5
      vertex 27.6871 -28.3526 -1.5
      vertex 27.9227 -28.1448 -1.5
    endloop
  endfacet
  facet normal 0.397259 -0.917707 0
    outer loop
      vertex 26.3406 -29.1489 -1.5
      vertex 26.6289 -29.0241 1.5
      vertex 26.3406 -29.1489 1.5
    endloop
  endfacet
  facet normal 0.397259 -0.917707 0
    outer loop
      vertex 26.6289 -29.0241 1.5
      vertex 26.3406 -29.1489 -1.5
      vertex 26.6289 -29.0241 -1.5
    endloop
  endfacet
  facet normal 0.031523 0.999503 -0
    outer loop
      vertex 24.8139 29.4901 -1.5
      vertex 24.5 29.5 1.5
      vertex 24.8139 29.4901 1.5
    endloop
  endfacet
  facet normal 0.031523 0.999503 0
    outer loop
      vertex 24.5 29.5 1.5
      vertex 24.8139 29.4901 -1.5
      vertex 24.5 29.5 -1.5
    endloop
  endfacet
  facet normal -0.999503 0.031523 0
    outer loop
      vertex -29.5 24.5 -1.5
      vertex -29.4901 24.8139 1.5
      vertex -29.4901 24.8139 -1.5
    endloop
  endfacet
  facet normal -0.999503 0.031523 0
    outer loop
      vertex -29.4901 24.8139 1.5
      vertex -29.5 24.5 -1.5
      vertex -29.5 24.5 1.5
    endloop
  endfacet
  facet normal 0.707107 0.707107 0
    outer loop
      vertex 28.1448 27.9227 1.5
      vertex 27.9227 28.1448 -1.5
      vertex 27.9227 28.1448 1.5
    endloop
  endfacet
  facet normal 0.707107 0.707107 0
    outer loop
      vertex 27.9227 28.1448 -1.5
      vertex 28.1448 27.9227 1.5
      vertex 28.1448 27.9227 -1.5
    endloop
  endfacet
  facet normal 0.860679 -0.509148 0
    outer loop
      vertex 28.7216 -27.1791 1.5
      vertex 28.8815 -26.9088 -1.5
      vertex 28.8815 -26.9088 1.5
    endloop
  endfacet
  facet normal 0.860679 -0.509148 0
    outer loop
      vertex 28.8815 -26.9088 -1.5
      vertex 28.7216 -27.1791 1.5
      vertex 28.7216 -27.1791 -1.5
    endloop
  endfacet
  facet normal -0.940867 0.338776 0
    outer loop
      vertex -29.2553 26.0451 -1.5
      vertex -29.1489 26.3406 1.5
      vertex -29.1489 26.3406 -1.5
    endloop
  endfacet
  facet normal -0.940867 0.338776 0
    outer loop
      vertex -29.1489 26.3406 1.5
      vertex -29.2553 26.0451 -1.5
      vertex -29.2553 26.0451 1.5
    endloop
  endfacet
  facet normal 0.790191 0.61286 0
    outer loop
      vertex 28.5451 27.4389 1.5
      vertex 28.3526 27.6871 -1.5
      vertex 28.3526 27.6871 1.5
    endloop
  endfacet
  facet normal 0.790191 0.61286 0
    outer loop
      vertex 28.3526 27.6871 -1.5
      vertex 28.5451 27.4389 1.5
      vertex 28.5451 27.4389 -1.5
    endloop
  endfacet
  facet normal 0.509148 0.860679 -0
    outer loop
      vertex 27.1791 28.7216 -1.5
      vertex 26.9088 28.8815 1.5
      vertex 27.1791 28.7216 1.5
    endloop
  endfacet
  facet normal 0.509148 0.860679 0
    outer loop
      vertex 26.9088 28.8815 1.5
      vertex 27.1791 28.7216 -1.5
      vertex 26.9088 28.8815 -1.5
    endloop
  endfacet
  facet normal 0.61286 0.790191 -0
    outer loop
      vertex 27.6871 28.3526 -1.5
      vertex 27.4389 28.5451 1.5
      vertex 27.6871 28.3526 1.5
    endloop
  endfacet
  facet normal 0.61286 0.790191 0
    outer loop
      vertex 27.4389 28.5451 1.5
      vertex 27.6871 28.3526 -1.5
      vertex 27.4389 28.5451 -1.5
    endloop
  endfacet
  facet normal 0.031523 -0.999503 0
    outer loop
      vertex 24.5 -29.5 -1.5
      vertex 24.8139 -29.4901 1.5
      vertex 24.5 -29.5 1.5
    endloop
  endfacet
  facet normal 0.031523 -0.999503 0
    outer loop
      vertex 24.8139 -29.4901 1.5
      vertex 24.5 -29.5 -1.5
      vertex 24.8139 -29.4901 -1.5
    endloop
  endfacet
  facet normal 0.218043 -0.975939 0
    outer loop
      vertex 25.4369 -29.4114 -1.5
      vertex 25.7435 -29.3429 1.5
      vertex 25.4369 -29.4114 1.5
    endloop
  endfacet
  facet normal 0.218043 -0.975939 0
    outer loop
      vertex 25.7435 -29.3429 1.5
      vertex 25.4369 -29.4114 -1.5
      vertex 25.7435 -29.3429 -1.5
    endloop
  endfacet
  facet normal 0.0938928 -0.995582 0
    outer loop
      vertex 24.8139 -29.4901 -1.5
      vertex 25.1267 -29.4606 1.5
      vertex 24.8139 -29.4901 1.5
    endloop
  endfacet
  facet normal 0.0938928 -0.995582 0
    outer loop
      vertex 25.1267 -29.4606 1.5
      vertex 24.8139 -29.4901 -1.5
      vertex 25.1267 -29.4606 -1.5
    endloop
  endfacet
  facet normal -0.397259 0.917707 0
    outer loop
      vertex -26.3406 29.1489 -1.5
      vertex -26.6289 29.0241 1.5
      vertex -26.3406 29.1489 1.5
    endloop
  endfacet
  facet normal -0.397259 0.917707 0
    outer loop
      vertex -26.6289 29.0241 1.5
      vertex -26.3406 29.1489 -1.5
      vertex -26.6289 29.0241 -1.5
    endloop
  endfacet
  facet normal -0.995582 0.0938928 0
    outer loop
      vertex -29.4901 24.8139 -1.5
      vertex -29.4606 25.1267 1.5
      vertex -29.4606 25.1267 -1.5
    endloop
  endfacet
  facet normal -0.995582 0.0938928 0
    outer loop
      vertex -29.4606 25.1267 1.5
      vertex -29.4901 24.8139 -1.5
      vertex -29.4901 24.8139 1.5
    endloop
  endfacet
  facet normal 0.960313 -0.278924 0
    outer loop
      vertex 29.2553 -26.0451 1.5
      vertex 29.3429 -25.7435 -1.5
      vertex 29.3429 -25.7435 1.5
    endloop
  endfacet
  facet normal 0.960313 -0.278924 0
    outer loop
      vertex 29.3429 -25.7435 -1.5
      vertex 29.2553 -26.0451 1.5
      vertex 29.2553 -26.0451 -1.5
    endloop
  endfacet
  facet normal -0.749968 0.661474 0
    outer loop
      vertex -28.3526 27.6871 -1.5
      vertex -28.1448 27.9227 1.5
      vertex -28.1448 27.9227 -1.5
    endloop
  endfacet
  facet normal -0.749968 0.661474 0
    outer loop
      vertex -28.1448 27.9227 1.5
      vertex -28.3526 27.6871 -1.5
      vertex -28.3526 27.6871 1.5
    endloop
  endfacet
  facet normal -0.0938928 0.995582 0
    outer loop
      vertex -24.8139 29.4901 -1.5
      vertex -25.1267 29.4606 1.5
      vertex -24.8139 29.4901 1.5
    endloop
  endfacet
  facet normal -0.0938928 0.995582 0
    outer loop
      vertex -25.1267 29.4606 1.5
      vertex -24.8139 29.4901 -1.5
      vertex -25.1267 29.4606 -1.5
    endloop
  endfacet
  facet normal 0.960313 0.278924 0
    outer loop
      vertex 29.3429 25.7435 1.5
      vertex 29.2553 26.0451 -1.5
      vertex 29.2553 26.0451 1.5
    endloop
  endfacet
  facet normal 0.960313 0.278924 0
    outer loop
      vertex 29.2553 26.0451 -1.5
      vertex 29.3429 25.7435 1.5
      vertex 29.3429 25.7435 -1.5
    endloop
  endfacet
  facet normal -0.891027 0.45395 0
    outer loop
      vertex -29.0241 26.6289 -1.5
      vertex -28.8815 26.9088 1.5
      vertex -28.8815 26.9088 -1.5
    endloop
  endfacet
  facet normal -0.891027 0.45395 0
    outer loop
      vertex -28.8815 26.9088 1.5
      vertex -29.0241 26.6289 -1.5
      vertex -29.0241 26.6289 1.5
    endloop
  endfacet
  facet normal 0.338776 0.940867 -0
    outer loop
      vertex 26.3406 29.1489 -1.5
      vertex 26.0451 29.2553 1.5
      vertex 26.3406 29.1489 1.5
    endloop
  endfacet
  facet normal 0.338776 0.940867 0
    outer loop
      vertex 26.0451 29.2553 1.5
      vertex 26.3406 29.1489 -1.5
      vertex 26.0451 29.2553 -1.5
    endloop
  endfacet
  facet normal -0.338776 -0.940867 0
    outer loop
      vertex -26.3406 -29.1489 -1.5
      vertex -26.0451 -29.2553 1.5
      vertex -26.3406 -29.1489 1.5
    endloop
  endfacet
  facet normal -0.338776 -0.940867 -0
    outer loop
      vertex -26.0451 -29.2553 1.5
      vertex -26.3406 -29.1489 -1.5
      vertex -26.0451 -29.2553 -1.5
    endloop
  endfacet
  facet normal -0.218043 -0.975939 0
    outer loop
      vertex -25.7435 -29.3429 -1.5
      vertex -25.4369 -29.4114 1.5
      vertex -25.7435 -29.3429 1.5
    endloop
  endfacet
  facet normal -0.218043 -0.975939 -0
    outer loop
      vertex -25.4369 -29.4114 1.5
      vertex -25.7435 -29.3429 -1.5
      vertex -25.4369 -29.4114 -1.5
    endloop
  endfacet
  facet normal -0.45395 0.891027 0
    outer loop
      vertex -26.6289 29.0241 -1.5
      vertex -26.9088 28.8815 1.5
      vertex -26.6289 29.0241 1.5
    endloop
  endfacet
  facet normal -0.45395 0.891027 0
    outer loop
      vertex -26.9088 28.8815 1.5
      vertex -26.6289 29.0241 -1.5
      vertex -26.9088 28.8815 -1.5
    endloop
  endfacet
  facet normal -0.218043 0.975939 0
    outer loop
      vertex -25.4369 29.4114 -1.5
      vertex -25.7435 29.3429 1.5
      vertex -25.4369 29.4114 1.5
    endloop
  endfacet
  facet normal -0.218043 0.975939 0
    outer loop
      vertex -25.7435 29.3429 1.5
      vertex -25.4369 29.4114 -1.5
      vertex -25.7435 29.3429 -1.5
    endloop
  endfacet
  facet normal -0.987654 0.156649 0
    outer loop
      vertex -29.4606 25.1267 -1.5
      vertex -29.4114 25.4369 1.5
      vertex -29.4114 25.4369 -1.5
    endloop
  endfacet
  facet normal -0.987654 0.156649 0
    outer loop
      vertex -29.4114 25.4369 1.5
      vertex -29.4606 25.1267 -1.5
      vertex -29.4606 25.1267 1.5
    endloop
  endfacet
  facet normal 0.995582 0.0938928 0
    outer loop
      vertex 29.4901 24.8139 1.5
      vertex 29.4606 25.1267 -1.5
      vertex 29.4606 25.1267 1.5
    endloop
  endfacet
  facet normal 0.995582 0.0938928 0
    outer loop
      vertex 29.4606 25.1267 -1.5
      vertex 29.4901 24.8139 1.5
      vertex 29.4901 24.8139 -1.5
    endloop
  endfacet
  facet normal -0.707107 -0.707107 0
    outer loop
      vertex -27.9227 -28.1448 -1.5
      vertex -28.1448 -27.9227 1.5
      vertex -28.1448 -27.9227 -1.5
    endloop
  endfacet
  facet normal -0.707107 -0.707107 0
    outer loop
      vertex -28.1448 -27.9227 1.5
      vertex -27.9227 -28.1448 -1.5
      vertex -27.9227 -28.1448 1.5
    endloop
  endfacet
  facet normal 0.999503 0.031523 0
    outer loop
      vertex 29.5 24.5 1.5
      vertex 29.4901 24.8139 -1.5
      vertex 29.4901 24.8139 1.5
    endloop
  endfacet
  facet normal 0.999503 0.031523 0
    outer loop
      vertex 29.4901 24.8139 -1.5
      vertex 29.5 24.5 1.5
      vertex 29.5 24.5 -1.5
    endloop
  endfacet
  facet normal -0.707107 0.707107 0
    outer loop
      vertex -28.1448 27.9227 -1.5
      vertex -27.9227 28.1448 1.5
      vertex -27.9227 28.1448 -1.5
    endloop
  endfacet
  facet normal -0.707107 0.707107 0
    outer loop
      vertex -27.9227 28.1448 1.5
      vertex -28.1448 27.9227 -1.5
      vertex -28.1448 27.9227 1.5
    endloop
  endfacet
  facet normal 0.987654 0.156649 0
    outer loop
      vertex 29.4606 25.1267 1.5
      vertex 29.4114 25.4369 -1.5
      vertex 29.4114 25.4369 1.5
    endloop
  endfacet
  facet normal 0.987654 0.156649 0
    outer loop
      vertex 29.4114 25.4369 -1.5
      vertex 29.4606 25.1267 1.5
      vertex 29.4606 25.1267 -1.5
    endloop
  endfacet
  facet normal 0.975939 0.218043 0
    outer loop
      vertex 29.4114 25.4369 1.5
      vertex 29.3429 25.7435 -1.5
      vertex 29.3429 25.7435 1.5
    endloop
  endfacet
  facet normal 0.975939 0.218043 0
    outer loop
      vertex 29.3429 25.7435 -1.5
      vertex 29.4114 25.4369 1.5
      vertex 29.4114 25.4369 -1.5
    endloop
  endfacet
  facet normal 0.45395 0.891027 -0
    outer loop
      vertex 26.9088 28.8815 -1.5
      vertex 26.6289 29.0241 1.5
      vertex 26.9088 28.8815 1.5
    endloop
  endfacet
  facet normal 0.45395 0.891027 0
    outer loop
      vertex 26.6289 29.0241 1.5
      vertex 26.9088 28.8815 -1.5
      vertex 26.6289 29.0241 -1.5
    endloop
  endfacet
  facet normal -0.509148 -0.860679 0
    outer loop
      vertex -27.1791 -28.7216 -1.5
      vertex -26.9088 -28.8815 1.5
      vertex -27.1791 -28.7216 1.5
    endloop
  endfacet
  facet normal -0.509148 -0.860679 -0
    outer loop
      vertex -26.9088 -28.8815 1.5
      vertex -27.1791 -28.7216 -1.5
      vertex -26.9088 -28.8815 -1.5
    endloop
  endfacet
  facet normal 0.749968 0.661474 0
    outer loop
      vertex 28.3526 27.6871 1.5
      vertex 28.1448 27.9227 -1.5
      vertex 28.1448 27.9227 1.5
    endloop
  endfacet
  facet normal 0.749968 0.661474 0
    outer loop
      vertex 28.1448 27.9227 -1.5
      vertex 28.3526 27.6871 1.5
      vertex 28.3526 27.6871 -1.5
    endloop
  endfacet
  facet normal -0.860679 -0.509148 0
    outer loop
      vertex -28.7216 -27.1791 -1.5
      vertex -28.8815 -26.9088 1.5
      vertex -28.8815 -26.9088 -1.5
    endloop
  endfacet
  facet normal -0.860679 -0.509148 0
    outer loop
      vertex -28.8815 -26.9088 1.5
      vertex -28.7216 -27.1791 -1.5
      vertex -28.7216 -27.1791 1.5
    endloop
  endfacet
  facet normal 0.917707 0.397259 0
    outer loop
      vertex 29.1489 26.3406 1.5
      vertex 29.0241 26.6289 -1.5
      vertex 29.0241 26.6289 1.5
    endloop
  endfacet
  facet normal 0.917707 0.397259 0
    outer loop
      vertex 29.0241 26.6289 -1.5
      vertex 29.1489 26.3406 1.5
      vertex 29.1489 26.3406 -1.5
    endloop
  endfacet
  facet normal 0.707107 -0.707107 0
    outer loop
      vertex 27.9227 -28.1448 1.5
      vertex 28.1448 -27.9227 -1.5
      vertex 28.1448 -27.9227 1.5
    endloop
  endfacet
  facet normal 0.707107 -0.707107 0
    outer loop
      vertex 28.1448 -27.9227 -1.5
      vertex 27.9227 -28.1448 1.5
      vertex 27.9227 -28.1448 -1.5
    endloop
  endfacet
  facet normal 0.561953 -0.827169 0
    outer loop
      vertex 27.1791 -28.7216 -1.5
      vertex 27.4389 -28.5451 1.5
      vertex 27.1791 -28.7216 1.5
    endloop
  endfacet
  facet normal 0.561953 -0.827169 0
    outer loop
      vertex 27.4389 -28.5451 1.5
      vertex 27.1791 -28.7216 -1.5
      vertex 27.4389 -28.5451 -1.5
    endloop
  endfacet
  facet normal 0.561953 0.827169 -0
    outer loop
      vertex 27.4389 28.5451 -1.5
      vertex 27.1791 28.7216 1.5
      vertex 27.4389 28.5451 1.5
    endloop
  endfacet
  facet normal 0.561953 0.827169 0
    outer loop
      vertex 27.1791 28.7216 1.5
      vertex 27.4389 28.5451 -1.5
      vertex 27.1791 28.7216 -1.5
    endloop
  endfacet
  facet normal -0.0938928 -0.995582 0
    outer loop
      vertex -25.1267 -29.4606 -1.5
      vertex -24.8139 -29.4901 1.5
      vertex -25.1267 -29.4606 1.5
    endloop
  endfacet
  facet normal -0.0938928 -0.995582 -0
    outer loop
      vertex -24.8139 -29.4901 1.5
      vertex -25.1267 -29.4606 -1.5
      vertex -24.8139 -29.4901 -1.5
    endloop
  endfacet
  facet normal 0.278924 -0.960313 0
    outer loop
      vertex 25.7435 -29.3429 -1.5
      vertex 26.0451 -29.2553 1.5
      vertex 25.7435 -29.3429 1.5
    endloop
  endfacet
  facet normal 0.278924 -0.960313 0
    outer loop
      vertex 26.0451 -29.2553 1.5
      vertex 25.7435 -29.3429 -1.5
      vertex 26.0451 -29.2553 -1.5
    endloop
  endfacet
  facet normal -0.987654 -0.156649 0
    outer loop
      vertex -29.4114 -25.4369 -1.5
      vertex -29.4606 -25.1267 1.5
      vertex -29.4606 -25.1267 -1.5
    endloop
  endfacet
  facet normal -0.987654 -0.156649 0
    outer loop
      vertex -29.4606 -25.1267 1.5
      vertex -29.4114 -25.4369 -1.5
      vertex -29.4114 -25.4369 1.5
    endloop
  endfacet
  facet normal 0.0938928 0.995582 -0
    outer loop
      vertex 25.1267 29.4606 -1.5
      vertex 24.8139 29.4901 1.5
      vertex 25.1267 29.4606 1.5
    endloop
  endfacet
  facet normal 0.0938928 0.995582 0
    outer loop
      vertex 24.8139 29.4901 1.5
      vertex 25.1267 29.4606 -1.5
      vertex 24.8139 29.4901 -1.5
    endloop
  endfacet
  facet normal 0.278924 0.960313 -0
    outer loop
      vertex 26.0451 29.2553 -1.5
      vertex 25.7435 29.3429 1.5
      vertex 26.0451 29.2553 1.5
    endloop
  endfacet
  facet normal 0.278924 0.960313 0
    outer loop
      vertex 25.7435 29.3429 1.5
      vertex 26.0451 29.2553 -1.5
      vertex 25.7435 29.3429 -1.5
    endloop
  endfacet
  facet normal -0.891027 -0.45395 0
    outer loop
      vertex -28.8815 -26.9088 -1.5
      vertex -29.0241 -26.6289 1.5
      vertex -29.0241 -26.6289 -1.5
    endloop
  endfacet
  facet normal -0.891027 -0.45395 0
    outer loop
      vertex -29.0241 -26.6289 1.5
      vertex -28.8815 -26.9088 -1.5
      vertex -28.8815 -26.9088 1.5
    endloop
  endfacet
  facet normal -0.661474 0.749968 0
    outer loop
      vertex -27.6871 28.3526 -1.5
      vertex -27.9227 28.1448 1.5
      vertex -27.6871 28.3526 1.5
    endloop
  endfacet
  facet normal -0.661474 0.749968 0
    outer loop
      vertex -27.9227 28.1448 1.5
      vertex -27.6871 28.3526 -1.5
      vertex -27.9227 28.1448 -1.5
    endloop
  endfacet
  facet normal -0.940867 -0.338776 0
    outer loop
      vertex -29.1489 -26.3406 -1.5
      vertex -29.2553 -26.0451 1.5
      vertex -29.2553 -26.0451 -1.5
    endloop
  endfacet
  facet normal -0.940867 -0.338776 0
    outer loop
      vertex -29.2553 -26.0451 1.5
      vertex -29.1489 -26.3406 -1.5
      vertex -29.1489 -26.3406 1.5
    endloop
  endfacet
  facet normal 0.827169 0.561953 0
    outer loop
      vertex 28.7216 27.1791 1.5
      vertex 28.5451 27.4389 -1.5
      vertex 28.5451 27.4389 1.5
    endloop
  endfacet
  facet normal 0.827169 0.561953 0
    outer loop
      vertex 28.5451 27.4389 -1.5
      vertex 28.7216 27.1791 1.5
      vertex 28.7216 27.1791 -1.5
    endloop
  endfacet
  facet normal 0.975939 -0.218043 0
    outer loop
      vertex 29.3429 -25.7435 1.5
      vertex 29.4114 -25.4369 -1.5
      vertex 29.4114 -25.4369 1.5
    endloop
  endfacet
  facet normal 0.975939 -0.218043 0
    outer loop
      vertex 29.4114 -25.4369 -1.5
      vertex 29.3429 -25.7435 1.5
      vertex 29.3429 -25.7435 -1.5
    endloop
  endfacet
  facet normal 0.156649 0.987654 -0
    outer loop
      vertex 25.4369 29.4114 -1.5
      vertex 25.1267 29.4606 1.5
      vertex 25.4369 29.4114 1.5
    endloop
  endfacet
  facet normal 0.156649 0.987654 0
    outer loop
      vertex 25.1267 29.4606 1.5
      vertex 25.4369 29.4114 -1.5
      vertex 25.1267 29.4606 -1.5
    endloop
  endfacet
  facet normal -0.917707 0.397259 0
    outer loop
      vertex -29.1489 26.3406 -1.5
      vertex -29.0241 26.6289 1.5
      vertex -29.0241 26.6289 -1.5
    endloop
  endfacet
  facet normal -0.917707 0.397259 0
    outer loop
      vertex -29.0241 26.6289 1.5
      vertex -29.1489 26.3406 -1.5
      vertex -29.1489 26.3406 1.5
    endloop
  endfacet
  facet normal 0.917707 -0.397259 0
    outer loop
      vertex 29.0241 -26.6289 1.5
      vertex 29.1489 -26.3406 -1.5
      vertex 29.1489 -26.3406 1.5
    endloop
  endfacet
  facet normal 0.917707 -0.397259 0
    outer loop
      vertex 29.1489 -26.3406 -1.5
      vertex 29.0241 -26.6289 1.5
      vertex 29.0241 -26.6289 -1.5
    endloop
  endfacet
  facet normal 0.940867 0.338776 0
    outer loop
      vertex 29.2553 26.0451 1.5
      vertex 29.1489 26.3406 -1.5
      vertex 29.1489 26.3406 1.5
    endloop
  endfacet
  facet normal 0.940867 0.338776 0
    outer loop
      vertex 29.1489 26.3406 -1.5
      vertex 29.2553 26.0451 1.5
      vertex 29.2553 26.0451 -1.5
    endloop
  endfacet
  facet normal -0.45395 -0.891027 0
    outer loop
      vertex -26.9088 -28.8815 -1.5
      vertex -26.6289 -29.0241 1.5
      vertex -26.9088 -28.8815 1.5
    endloop
  endfacet
  facet normal -0.45395 -0.891027 -0
    outer loop
      vertex -26.6289 -29.0241 1.5
      vertex -26.9088 -28.8815 -1.5
      vertex -26.6289 -29.0241 -1.5
    endloop
  endfacet
  facet normal -0.661474 -0.749968 0
    outer loop
      vertex -27.9227 -28.1448 -1.5
      vertex -27.6871 -28.3526 1.5
      vertex -27.9227 -28.1448 1.5
    endloop
  endfacet
  facet normal -0.661474 -0.749968 -0
    outer loop
      vertex -27.6871 -28.3526 1.5
      vertex -27.9227 -28.1448 -1.5
      vertex -27.6871 -28.3526 -1.5
    endloop
  endfacet
  facet normal -0.790191 0.61286 0
    outer loop
      vertex -28.5451 27.4389 -1.5
      vertex -28.3526 27.6871 1.5
      vertex -28.3526 27.6871 -1.5
    endloop
  endfacet
  facet normal -0.790191 0.61286 0
    outer loop
      vertex -28.3526 27.6871 1.5
      vertex -28.5451 27.4389 -1.5
      vertex -28.5451 27.4389 1.5
    endloop
  endfacet
  facet normal -0.999503 -0.031523 0
    outer loop
      vertex -29.4901 -24.8139 -1.5
      vertex -29.5 -24.5 1.5
      vertex -29.5 -24.5 -1.5
    endloop
  endfacet
  facet normal -0.999503 -0.031523 0
    outer loop
      vertex -29.5 -24.5 1.5
      vertex -29.4901 -24.8139 -1.5
      vertex -29.4901 -24.8139 1.5
    endloop
  endfacet
  facet normal -0.509148 0.860679 0
    outer loop
      vertex -26.9088 28.8815 -1.5
      vertex -27.1791 28.7216 1.5
      vertex -26.9088 28.8815 1.5
    endloop
  endfacet
  facet normal -0.509148 0.860679 0
    outer loop
      vertex -27.1791 28.7216 1.5
      vertex -26.9088 28.8815 -1.5
      vertex -27.1791 28.7216 -1.5
    endloop
  endfacet
  facet normal 0.940867 -0.338776 0
    outer loop
      vertex 29.1489 -26.3406 1.5
      vertex 29.2553 -26.0451 -1.5
      vertex 29.2553 -26.0451 1.5
    endloop
  endfacet
  facet normal 0.940867 -0.338776 0
    outer loop
      vertex 29.2553 -26.0451 -1.5
      vertex 29.1489 -26.3406 1.5
      vertex 29.1489 -26.3406 -1.5
    endloop
  endfacet
  facet normal -0.278924 0.960313 0
    outer loop
      vertex -25.7435 29.3429 -1.5
      vertex -26.0451 29.2553 1.5
      vertex -25.7435 29.3429 1.5
    endloop
  endfacet
  facet normal -0.278924 0.960313 0
    outer loop
      vertex -26.0451 29.2553 1.5
      vertex -25.7435 29.3429 -1.5
      vertex -26.0451 29.2553 -1.5
    endloop
  endfacet
  facet normal -0.975939 0.218043 0
    outer loop
      vertex -29.4114 25.4369 -1.5
      vertex -29.3429 25.7435 1.5
      vertex -29.3429 25.7435 -1.5
    endloop
  endfacet
  facet normal -0.975939 0.218043 0
    outer loop
      vertex -29.3429 25.7435 1.5
      vertex -29.4114 25.4369 -1.5
      vertex -29.4114 25.4369 1.5
    endloop
  endfacet
  facet normal -0.61286 0.790191 0
    outer loop
      vertex -27.4389 28.5451 -1.5
      vertex -27.6871 28.3526 1.5
      vertex -27.4389 28.5451 1.5
    endloop
  endfacet
  facet normal -0.61286 0.790191 0
    outer loop
      vertex -27.6871 28.3526 1.5
      vertex -27.4389 28.5451 -1.5
      vertex -27.6871 28.3526 -1.5
    endloop
  endfacet
  facet normal -0.338776 0.940867 0
    outer loop
      vertex -26.0451 29.2553 -1.5
      vertex -26.3406 29.1489 1.5
      vertex -26.0451 29.2553 1.5
    endloop
  endfacet
  facet normal -0.338776 0.940867 0
    outer loop
      vertex -26.3406 29.1489 1.5
      vertex -26.0451 29.2553 -1.5
      vertex -26.3406 29.1489 -1.5
    endloop
  endfacet
  facet normal 0.45395 -0.891027 0
    outer loop
      vertex 26.6289 -29.0241 -1.5
      vertex 26.9088 -28.8815 1.5
      vertex 26.6289 -29.0241 1.5
    endloop
  endfacet
  facet normal 0.45395 -0.891027 0
    outer loop
      vertex 26.9088 -28.8815 1.5
      vertex 26.6289 -29.0241 -1.5
      vertex 26.9088 -28.8815 -1.5
    endloop
  endfacet
  facet normal -0.561953 -0.827169 0
    outer loop
      vertex -27.4389 -28.5451 -1.5
      vertex -27.1791 -28.7216 1.5
      vertex -27.4389 -28.5451 1.5
    endloop
  endfacet
  facet normal -0.561953 -0.827169 -0
    outer loop
      vertex -27.1791 -28.7216 1.5
      vertex -27.4389 -28.5451 -1.5
      vertex -27.1791 -28.7216 -1.5
    endloop
  endfacet
  facet normal 0 0 1
    outer loop
      vertex 24.5 29.5 1.5
      vertex 29.5 24.5 1.5
      vertex 29.4901 24.8139 1.5
    endloop
  endfacet
  facet normal 0 0 1
    outer loop
      vertex 29.5 24.5 1.5
      vertex 24.5 29.5 1.5
      vertex 29.5 -24.5 1.5
    endloop
  endfacet
  facet normal 0 0 1
    outer loop
      vertex 24.5 29.5 1.5
      vertex 29.4901 24.8139 1.5
      vertex 29.4606 25.1267 1.5
    endloop
  endfacet
  facet normal 0 0 1
    outer loop
      vertex 24.5 -29.5 1.5
      vertex 29.5 -24.5 1.5
      vertex 24.5 29.5 1.5
    endloop
  endfacet
  facet normal 0 0 1
    outer loop
      vertex 24.5 29.5 1.5
      vertex 29.4606 25.1267 1.5
      vertex 29.4114 25.4369 1.5
    endloop
  endfacet
  facet normal 0 0 1
    outer loop
      vertex 29.5 -24.5 1.5
      vertex 24.5 -29.5 1.5
      vertex 29.4901 -24.8139 1.5
    endloop
  endfacet
  facet normal 0 0 1
    outer loop
      vertex 24.5 29.5 1.5
      vertex 29.4114 25.4369 1.5
      vertex 29.3429 25.7435 1.5
    endloop
  endfacet
  facet normal 0 0 1
    outer loop
      vertex 29.4901 -24.8139 1.5
      vertex 24.5 -29.5 1.5
      vertex 29.4606 -25.1267 1.5
    endloop
  endfacet
  facet normal 0 0 1
    outer loop
      vertex 24.5 29.5 1.5
      vertex 29.3429 25.7435 1.5
      vertex 29.2553 26.0451 1.5
    endloop
  endfacet
  facet normal 0 0 1
    outer loop
      vertex 29.4606 -25.1267 1.5
      vertex 24.5 -29.5 1.5
      vertex 29.4114 -25.4369 1.5
    endloop
  endfacet
  facet normal 0 0 1
    outer loop
      vertex 24.5 29.5 1.5
      vertex 29.2553 26.0451 1.5
      vertex 29.1489 26.3406 1.5
    endloop
  endfacet
  facet normal 0 0 1
    outer loop
      vertex 29.4114 -25.4369 1.5
      vertex 24.5 -29.5 1.5
      vertex 29.3429 -25.7435 1.5
    endloop
  endfacet
  facet normal 0 0 1
    outer loop
      vertex 24.5 29.5 1.5
      vertex 29.1489 26.3406 1.5
      vertex 29.0241 26.6289 1.5
    endloop
  endfacet
  facet normal 0 0 1
    outer loop
      vertex 29.3429 -25.7435 1.5
      vertex 24.5 -29.5 1.5
      vertex 29.2553 -26.0451 1.5
    endloop
  endfacet
  facet normal 0 0 1
    outer loop
      vertex 24.5 29.5 1.5
      vertex 29.0241 26.6289 1.5
      vertex 28.8815 26.9088 1.5
    endloop
  endfacet
  facet normal 0 0 1
    outer loop
      vertex 29.2553 -26.0451 1.5
      vertex 24.5 -29.5 1.5
      vertex 29.1489 -26.3406 1.5
    endloop
  endfacet
  facet normal 0 0 1
    outer loop
      vertex 24.5 29.5 1.5
      vertex 28.8815 26.9088 1.5
      vertex 28.7216 27.1791 1.5
    endloop
  endfacet
  facet normal 0 0 1
    outer loop
      vertex 29.1489 -26.3406 1.5
      vertex 24.5 -29.5 1.5
      vertex 29.0241 -26.6289 1.5
    endloop
  endfacet
  facet normal 0 0 1
    outer loop
      vertex 24.5 29.5 1.5
      vertex 28.7216 27.1791 1.5
      vertex 28.5451 27.4389 1.5
    endloop
  endfacet
  facet normal 0 0 1
    outer loop
      vertex 29.0241 -26.6289 1.5
      vertex 24.5 -29.5 1.5
      vertex 28.8815 -26.9088 1.5
    endloop
  endfacet
  facet normal 0 0 1
    outer loop
      vertex 24.5 29.5 1.5
      vertex 28.5451 27.4389 1.5
      vertex 28.3526 27.6871 1.5
    endloop
  endfacet
  facet normal 0 0 1
    outer loop
      vertex 28.8815 -26.9088 1.5
      vertex 24.5 -29.5 1.5
      vertex 28.7216 -27.1791 1.5
    endloop
  endfacet
  facet normal 0 0 1
    outer loop
      vertex 24.5 29.5 1.5
      vertex 28.3526 27.6871 1.5
      vertex 28.1448 27.9227 1.5
    endloop
  endfacet
  facet normal 0 0 1
    outer loop
      vertex 28.7216 -27.1791 1.5
      vertex 24.5 -29.5 1.5
      vertex 28.5451 -27.4389 1.5
    endloop
  endfacet
  facet normal 0 0 1
    outer loop
      vertex 24.5 29.5 1.5
      vertex 28.1448 27.9227 1.5
      vertex 27.9227 28.1448 1.5
    endloop
  endfacet
  facet normal 0 0 1
    outer loop
      vertex 28.5451 -27.4389 1.5
      vertex 24.5 -29.5 1.5
      vertex 28.3526 -27.6871 1.5
    endloop
  endfacet
  facet normal 0 0 1
    outer loop
      vertex 24.5 29.5 1.5
      vertex 27.9227 28.1448 1.5
      vertex 27.6871 28.3526 1.5
    endloop
  endfacet
  facet normal 0 0 1
    outer loop
      vertex 28.3526 -27.6871 1.5
      vertex 24.5 -29.5 1.5
      vertex 28.1448 -27.9227 1.5
    endloop
  endfacet
  facet normal 0 0 1
    outer loop
      vertex 24.5 29.5 1.5
      vertex 27.6871 28.3526 1.5
      vertex 27.4389 28.5451 1.5
    endloop
  endfacet
  facet normal 0 0 1
    outer loop
      vertex 28.1448 -27.9227 1.5
      vertex 24.5 -29.5 1.5
      vertex 27.9227 -28.1448 1.5
    endloop
  endfacet
  facet normal 0 0 1
    outer loop
      vertex 24.5 29.5 1.5
      vertex 27.4389 28.5451 1.5
      vertex 27.1791 28.7216 1.5
    endloop
  endfacet
  facet normal 0 0 1
    outer loop
      vertex 27.9227 -28.1448 1.5
      vertex 24.5 -29.5 1.5
      vertex 27.6871 -28.3526 1.5
    endloop
  endfacet
  facet normal 0 0 1
    outer loop
      vertex 24.5 29.5 1.5
      vertex 27.1791 28.7216 1.5
      vertex 26.9088 28.8815 1.5
    endloop
  endfacet
  facet normal 0 0 1
    outer loop
      vertex 27.6871 -28.3526 1.5
      vertex 24.5 -29.5 1.5
      vertex 27.4389 -28.5451 1.5
    endloop
  endfacet
  facet normal 0 0 1
    outer loop
      vertex 24.5 29.5 1.5
      vertex 26.9088 28.8815 1.5
      vertex 26.6289 29.0241 1.5
    endloop
  endfacet
  facet normal 0 0 1
    outer loop
      vertex 27.4389 -28.5451 1.5
      vertex 24.5 -29.5 1.5
      vertex 27.1791 -28.7216 1.5
    endloop
  endfacet
  facet normal 0 0 1
    outer loop
      vertex 24.5 29.5 1.5
      vertex 26.6289 29.0241 1.5
      vertex 26.3406 29.1489 1.5
    endloop
  endfacet
  facet normal 0 0 1
    outer loop
      vertex 27.1791 -28.7216 1.5
      vertex 24.5 -29.5 1.5
      vertex 26.9088 -28.8815 1.5
    endloop
  endfacet
  facet normal 0 0 1
    outer loop
      vertex 24.5 29.5 1.5
      vertex 26.3406 29.1489 1.5
      vertex 26.0451 29.2553 1.5
    endloop
  endfacet
  facet normal 0 0 1
    outer loop
      vertex 26.9088 -28.8815 1.5
      vertex 24.5 -29.5 1.5
      vertex 26.6289 -29.0241 1.5
    endloop
  endfacet
  facet normal 0 0 1
    outer loop
      vertex 24.5 29.5 1.5
      vertex 26.0451 29.2553 1.5
      vertex 25.7435 29.3429 1.5
    endloop
  endfacet
  facet normal 0 0 1
    outer loop
      vertex 26.6289 -29.0241 1.5
      vertex 24.5 -29.5 1.5
      vertex 26.3406 -29.1489 1.5
    endloop
  endfacet
  facet normal 0 0 1
    outer loop
      vertex 24.5 29.5 1.5
      vertex 25.7435 29.3429 1.5
      vertex 25.4369 29.4114 1.5
    endloop
  endfacet
  facet normal 0 0 1
    outer loop
      vertex 26.3406 -29.1489 1.5
      vertex 24.5 -29.5 1.5
      vertex 26.0451 -29.2553 1.5
    endloop
  endfacet
  facet normal 0 0 1
    outer loop
      vertex 24.5 29.5 1.5
      vertex 25.4369 29.4114 1.5
      vertex 25.1267 29.4606 1.5
    endloop
  endfacet
  facet normal 0 0 1
    outer loop
      vertex 26.0451 -29.2553 1.5
      vertex 24.5 -29.5 1.5
      vertex 25.7435 -29.3429 1.5
    endloop
  endfacet
  facet normal 0 0 1
    outer loop
      vertex 24.5 29.5 1.5
      vertex 25.1267 29.4606 1.5
      vertex 24.8139 29.4901 1.5
    endloop
  endfacet
  facet normal 0 0 1
    outer loop
      vertex 25.7435 -29.3429 1.5
      vertex 24.5 -29.5 1.5
      vertex 25.4369 -29.4114 1.5
    endloop
  endfacet
  facet normal 0 0 1
    outer loop
      vertex 25.4369 -29.4114 1.5
      vertex 24.5 -29.5 1.5
      vertex 25.1267 -29.4606 1.5
    endloop
  endfacet
  facet normal 0 0 1
    outer loop
      vertex 25.1267 -29.4606 1.5
      vertex 24.5 -29.5 1.5
      vertex 24.8139 -29.4901 1.5
    endloop
  endfacet
  facet normal -0 0 1
    outer loop
      vertex -24.5 29.5 1.5
      vertex 24.5 -29.5 1.5
      vertex 24.5 29.5 1.5
    endloop
  endfacet
  facet normal 0 0 1
    outer loop
      vertex -24.5 29.5 1.5
      vertex -24.5 -29.5 1.5
      vertex 24.5 -29.5 1.5
    endloop
  endfacet
  facet normal 0 0 1
    outer loop
      vertex -29.5 24.5 1.5
      vertex -24.5 29.5 1.5
      vertex -24.8139 29.4901 1.5
    endloop
  endfacet
  facet normal 0 0 1
    outer loop
      vertex -24.5 29.5 1.5
      vertex -29.5 24.5 1.5
      vertex -24.5 -29.5 1.5
    endloop
  endfacet
  facet normal 0 0 1
    outer loop
      vertex -29.5 24.5 1.5
      vertex -24.8139 29.4901 1.5
      vertex -25.1267 29.4606 1.5
    endloop
  endfacet
  facet normal -0 0 1
    outer loop
      vertex -29.5 -24.5 1.5
      vertex -24.5 -29.5 1.5
      vertex -29.5 24.5 1.5
    endloop
  endfacet
  facet normal 0 0 1
    outer loop
      vertex -29.5 24.5 1.5
      vertex -25.1267 29.4606 1.5
      vertex -25.4369 29.4114 1.5
    endloop
  endfacet
  facet normal 0 0 1
    outer loop
      vertex -24.5 -29.5 1.5
      vertex -29.5 -24.5 1.5
      vertex -24.8139 -29.4901 1.5
    endloop
  endfacet
  facet normal 0 0 1
    outer loop
      vertex -29.5 24.5 1.5
      vertex -25.4369 29.4114 1.5
      vertex -25.7435 29.3429 1.5
    endloop
  endfacet
  facet normal 0 0 1
    outer loop
      vertex -24.8139 -29.4901 1.5
      vertex -29.5 -24.5 1.5
      vertex -25.1267 -29.4606 1.5
    endloop
  endfacet
  facet normal 0 0 1
    outer loop
      vertex -29.5 24.5 1.5
      vertex -25.7435 29.3429 1.5
      vertex -26.0451 29.2553 1.5
    endloop
  endfacet
  facet normal 0 0 1
    outer loop
      vertex -25.1267 -29.4606 1.5
      vertex -29.5 -24.5 1.5
      vertex -25.4369 -29.4114 1.5
    endloop
  endfacet
  facet normal 0 0 1
    outer loop
      vertex -29.5 24.5 1.5
      vertex -26.0451 29.2553 1.5
      vertex -26.3406 29.1489 1.5
    endloop
  endfacet
  facet normal 0 0 1
    outer loop
      vertex -25.4369 -29.4114 1.5
      vertex -29.5 -24.5 1.5
      vertex -25.7435 -29.3429 1.5
    endloop
  endfacet
  facet normal 0 0 1
    outer loop
      vertex -29.5 24.5 1.5
      vertex -26.3406 29.1489 1.5
      vertex -26.6289 29.0241 1.5
    endloop
  endfacet
  facet normal 0 0 1
    outer loop
      vertex -25.7435 -29.3429 1.5
      vertex -29.5 -24.5 1.5
      vertex -26.0451 -29.2553 1.5
    endloop
  endfacet
  facet normal 0 0 1
    outer loop
      vertex -29.5 24.5 1.5
      vertex -26.6289 29.0241 1.5
      vertex -26.9088 28.8815 1.5
    endloop
  endfacet
  facet normal 0 0 1
    outer loop
      vertex -26.0451 -29.2553 1.5
      vertex -29.5 -24.5 1.5
      vertex -26.3406 -29.1489 1.5
    endloop
  endfacet
  facet normal 0 0 1
    outer loop
      vertex -29.5 24.5 1.5
      vertex -26.9088 28.8815 1.5
      vertex -27.1791 28.7216 1.5
    endloop
  endfacet
  facet normal 0 0 1
    outer loop
      vertex -26.3406 -29.1489 1.5
      vertex -29.5 -24.5 1.5
      vertex -26.6289 -29.0241 1.5
    endloop
  endfacet
  facet normal 0 0 1
    outer loop
      vertex -29.5 24.5 1.5
      vertex -27.1791 28.7216 1.5
      vertex -27.4389 28.5451 1.5
    endloop
  endfacet
  facet normal 0 0 1
    outer loop
      vertex -26.6289 -29.0241 1.5
      vertex -29.5 -24.5 1.5
      vertex -26.9088 -28.8815 1.5
    endloop
  endfacet
  facet normal 0 0 1
    outer loop
      vertex -29.5 24.5 1.5
      vertex -27.4389 28.5451 1.5
      vertex -27.6871 28.3526 1.5
    endloop
  endfacet
  facet normal 0 0 1
    outer loop
      vertex -26.9088 -28.8815 1.5
      vertex -29.5 -24.5 1.5
      vertex -27.1791 -28.7216 1.5
    endloop
  endfacet
  facet normal 0 0 1
    outer loop
      vertex -29.5 24.5 1.5
      vertex -27.6871 28.3526 1.5
      vertex -27.9227 28.1448 1.5
    endloop
  endfacet
  facet normal 0 0 1
    outer loop
      vertex -27.1791 -28.7216 1.5
      vertex -29.5 -24.5 1.5
      vertex -27.4389 -28.5451 1.5
    endloop
  endfacet
  facet normal 0 0 1
    outer loop
      vertex -29.5 24.5 1.5
      vertex -27.9227 28.1448 1.5
      vertex -28.1448 27.9227 1.5
    endloop
  endfacet
  facet normal 0 0 1
    outer loop
      vertex -27.4389 -28.5451 1.5
      vertex -29.5 -24.5 1.5
      vertex -27.6871 -28.3526 1.5
    endloop
  endfacet
  facet normal 0 0 1
    outer loop
      vertex -29.5 24.5 1.5
      vertex -28.1448 27.9227 1.5
      vertex -28.3526 27.6871 1.5
    endloop
  endfacet
  facet normal 0 0 1
    outer loop
      vertex -27.6871 -28.3526 1.5
      vertex -29.5 -24.5 1.5
      vertex -27.9227 -28.1448 1.5
    endloop
  endfacet
  facet normal 0 0 1
    outer loop
      vertex -29.5 24.5 1.5
      vertex -28.3526 27.6871 1.5
      vertex -28.5451 27.4389 1.5
    endloop
  endfacet
  facet normal 0 0 1
    outer loop
      vertex -27.9227 -28.1448 1.5
      vertex -29.5 -24.5 1.5
      vertex -28.1448 -27.9227 1.5
    endloop
  endfacet
  facet normal 0 0 1
    outer loop
      vertex -29.5 24.5 1.5
      vertex -28.5451 27.4389 1.5
      vertex -28.7216 27.1791 1.5
    endloop
  endfacet
  facet normal 0 0 1
    outer loop
      vertex -28.1448 -27.9227 1.5
      vertex -29.5 -24.5 1.5
      vertex -28.3526 -27.6871 1.5
    endloop
  endfacet
  facet normal 0 0 1
    outer loop
      vertex -29.5 24.5 1.5
      vertex -28.7216 27.1791 1.5
      vertex -28.8815 26.9088 1.5
    endloop
  endfacet
  facet normal 0 0 1
    outer loop
      vertex -28.3526 -27.6871 1.5
      vertex -29.5 -24.5 1.5
      vertex -28.5451 -27.4389 1.5
    endloop
  endfacet
  facet normal 0 0 1
    outer loop
      vertex -29.5 24.5 1.5
      vertex -28.8815 26.9088 1.5
      vertex -29.0241 26.6289 1.5
    endloop
  endfacet
  facet normal 0 0 1
    outer loop
      vertex -28.5451 -27.4389 1.5
      vertex -29.5 -24.5 1.5
      vertex -28.7216 -27.1791 1.5
    endloop
  endfacet
  facet normal 0 0 1
    outer loop
      vertex -29.5 24.5 1.5
      vertex -29.0241 26.6289 1.5
      vertex -29.1489 26.3406 1.5
    endloop
  endfacet
  facet normal 0 0 1
    outer loop
      vertex -28.7216 -27.1791 1.5
      vertex -29.5 -24.5 1.5
      vertex -28.8815 -26.9088 1.5
    endloop
  endfacet
  facet normal 0 0 1
    outer loop
      vertex -29.5 24.5 1.5
      vertex -29.1489 26.3406 1.5
      vertex -29.2553 26.0451 1.5
    endloop
  endfacet
  facet normal 0 0 1
    outer loop
      vertex -28.8815 -26.9088 1.5
      vertex -29.5 -24.5 1.5
      vertex -29.0241 -26.6289 1.5
    endloop
  endfacet
  facet normal 0 0 1
    outer loop
      vertex -29.5 24.5 1.5
      vertex -29.2553 26.0451 1.5
      vertex -29.3429 25.7435 1.5
    endloop
  endfacet
  facet normal 0 0 1
    outer loop
      vertex -29.0241 -26.6289 1.5
      vertex -29.5 -24.5 1.5
      vertex -29.1489 -26.3406 1.5
    endloop
  endfacet
  facet normal 0 0 1
    outer loop
      vertex -29.5 24.5 1.5
      vertex -29.3429 25.7435 1.5
      vertex -29.4114 25.4369 1.5
    endloop
  endfacet
  facet normal 0 0 1
    outer loop
      vertex -29.1489 -26.3406 1.5
      vertex -29.5 -24.5 1.5
      vertex -29.2553 -26.0451 1.5
    endloop
  endfacet
  facet normal 0 0 1
    outer loop
      vertex -29.5 24.5 1.5
      vertex -29.4114 25.4369 1.5
      vertex -29.4606 25.1267 1.5
    endloop
  endfacet
  facet normal 0 0 1
    outer loop
      vertex -29.2553 -26.0451 1.5
      vertex -29.5 -24.5 1.5
      vertex -29.3429 -25.7435 1.5
    endloop
  endfacet
  facet normal 0 0 1
    outer loop
      vertex -29.5 24.5 1.5
      vertex -29.4606 25.1267 1.5
      vertex -29.4901 24.8139 1.5
    endloop
  endfacet
  facet normal 0 0 1
    outer loop
      vertex -29.3429 -25.7435 1.5
      vertex -29.5 -24.5 1.5
      vertex -29.4114 -25.4369 1.5
    endloop
  endfacet
  facet normal 0 0 1
    outer loop
      vertex -29.4114 -25.4369 1.5
      vertex -29.5 -24.5 1.5
      vertex -29.4606 -25.1267 1.5
    endloop
  endfacet
  facet normal 0 0 1
    outer loop
      vertex -29.4606 -25.1267 1.5
      vertex -29.5 -24.5 1.5
      vertex -29.4901 -24.8139 1.5
    endloop
  endfacet
  facet normal -0.749968 -0.661474 0
    outer loop
      vertex -28.1448 -27.9227 -1.5
      vertex -28.3526 -27.6871 1.5
      vertex -28.3526 -27.6871 -1.5
    endloop
  endfacet
  facet normal -0.749968 -0.661474 0
    outer loop
      vertex -28.3526 -27.6871 1.5
      vertex -28.1448 -27.9227 -1.5
      vertex -28.1448 -27.9227 1.5
    endloop
  endfacet
  facet normal 0.397259 0.917707 -0
    outer loop
      vertex 26.6289 29.0241 -1.5
      vertex 26.3406 29.1489 1.5
      vertex 26.6289 29.0241 1.5
    endloop
  endfacet
  facet normal 0.397259 0.917707 0
    outer loop
      vertex 26.3406 29.1489 1.5
      vertex 26.6289 29.0241 -1.5
      vertex 26.3406 29.1489 -1.5
    endloop
  endfacet
  facet normal 0.827169 -0.561953 0
    outer loop
      vertex 28.5451 -27.4389 1.5
      vertex 28.7216 -27.1791 -1.5
      vertex 28.7216 -27.1791 1.5
    endloop
  endfacet
  facet normal 0.827169 -0.561953 0
    outer loop
      vertex 28.7216 -27.1791 -1.5
      vertex 28.5451 -27.4389 1.5
      vertex 28.5451 -27.4389 -1.5
    endloop
  endfacet
  facet normal 0.860679 0.509148 0
    outer loop
      vertex 28.8815 26.9088 1.5
      vertex 28.7216 27.1791 -1.5
      vertex 28.7216 27.1791 1.5
    endloop
  endfacet
  facet normal 0.860679 0.509148 0
    outer loop
      vertex 28.7216 27.1791 -1.5
      vertex 28.8815 26.9088 1.5
      vertex 28.8815 26.9088 -1.5
    endloop
  endfacet
  facet normal 0.509148 -0.860679 0
    outer loop
      vertex 26.9088 -28.8815 -1.5
      vertex 27.1791 -28.7216 1.5
      vertex 26.9088 -28.8815 1.5
    endloop
  endfacet
  facet normal 0.509148 -0.860679 0
    outer loop
      vertex 27.1791 -28.7216 1.5
      vertex 26.9088 -28.8815 -1.5
      vertex 27.1791 -28.7216 -1.5
    endloop
  endfacet
  facet normal 0.749968 -0.661474 0
    outer loop
      vertex 28.1448 -27.9227 1.5
      vertex 28.3526 -27.6871 -1.5
      vertex 28.3526 -27.6871 1.5
    endloop
  endfacet
  facet normal 0.749968 -0.661474 0
    outer loop
      vertex 28.3526 -27.6871 -1.5
      vertex 28.1448 -27.9227 1.5
      vertex 28.1448 -27.9227 -1.5
    endloop
  endfacet
  facet normal 0.338776 -0.940867 0
    outer loop
      vertex 26.0451 -29.2553 -1.5
      vertex 26.3406 -29.1489 1.5
      vertex 26.0451 -29.2553 1.5
    endloop
  endfacet
  facet normal 0.338776 -0.940867 0
    outer loop
      vertex 26.3406 -29.1489 1.5
      vertex 26.0451 -29.2553 -1.5
      vertex 26.3406 -29.1489 -1.5
    endloop
  endfacet
  facet normal -0.960313 0.278924 0
    outer loop
      vertex -29.3429 25.7435 -1.5
      vertex -29.2553 26.0451 1.5
      vertex -29.2553 26.0451 -1.5
    endloop
  endfacet
  facet normal -0.960313 0.278924 0
    outer loop
      vertex -29.2553 26.0451 1.5
      vertex -29.3429 25.7435 -1.5
      vertex -29.3429 25.7435 1.5
    endloop
  endfacet
  facet normal -0.61286 -0.790191 0
    outer loop
      vertex -27.6871 -28.3526 -1.5
      vertex -27.4389 -28.5451 1.5
      vertex -27.6871 -28.3526 1.5
    endloop
  endfacet
  facet normal -0.61286 -0.790191 -0
    outer loop
      vertex -27.4389 -28.5451 1.5
      vertex -27.6871 -28.3526 -1.5
      vertex -27.4389 -28.5451 -1.5
    endloop
  endfacet
  facet normal -0.860679 0.509148 0
    outer loop
      vertex -28.8815 26.9088 -1.5
      vertex -28.7216 27.1791 1.5
      vertex -28.7216 27.1791 -1.5
    endloop
  endfacet
  facet normal -0.860679 0.509148 0
    outer loop
      vertex -28.7216 27.1791 1.5
      vertex -28.8815 26.9088 -1.5
      vertex -28.8815 26.9088 1.5
    endloop
  endfacet
  facet normal -0.561953 0.827169 0
    outer loop
      vertex -27.1791 28.7216 -1.5
      vertex -27.4389 28.5451 1.5
      vertex -27.1791 28.7216 1.5
    endloop
  endfacet
  facet normal -0.561953 0.827169 0
    outer loop
      vertex -27.4389 28.5451 1.5
      vertex -27.1791 28.7216 -1.5
      vertex -27.4389 28.5451 -1.5
    endloop
  endfacet
endsolid OpenSCAD_Model
