solid OpenSCAD_Model
  facet normal 1 -0 0
    outer loop
      vertex 87.25 40 50
      vertex 87.25 45 40
      vertex 87.25 45 50
    endloop
  endfacet
  facet normal 1 0 0
    outer loop
      vertex 87.25 45 40
      vertex 87.25 40 50
      vertex 87.25 40 40
    endloop
  endfacet
  facet normal -0 0 1
    outer loop
      vertex -87.25 45 50
      vertex 87.25 40 50
      vertex 87.25 45 50
    endloop
  endfacet
  facet normal 0 0 1
    outer loop
      vertex 87.25 40 50
      vertex -87.25 45 50
      vertex -87.25 40 50
    endloop
  endfacet
  facet normal 0 0 -1
    outer loop
      vertex 82.25 40 40
      vertex 87.25 45 40
      vertex 87.25 40 40
    endloop
  endfacet
  facet normal -0 0 -1
    outer loop
      vertex 87.25 45 40
      vertex 82.25 40 40
      vertex 82.25 45 40
    endloop
  endfacet
  facet normal 0 0 -1
    outer loop
      vertex -87.25 40 40
      vertex -82.25 45 40
      vertex -82.25 40 40
    endloop
  endfacet
  facet normal -0 0 -1
    outer loop
      vertex -82.25 45 40
      vertex -87.25 40 40
      vertex -87.25 45 40
    endloop
  endfacet
  facet normal 0 0 -1
    outer loop
      vertex -77.25 40 40
      vertex 77.25 45 40
      vertex 77.25 40 40
    endloop
  endfacet
  facet normal -0 0 -1
    outer loop
      vertex 77.25 45 40
      vertex -77.25 40 40
      vertex -77.25 45 40
    endloop
  endfacet
  facet normal -1 0 0
    outer loop
      vertex -87.25 40 40
      vertex -87.25 45 50
      vertex -87.25 45 40
    endloop
  endfacet
  facet normal -1 -0 0
    outer loop
      vertex -87.25 45 50
      vertex -87.25 40 40
      vertex -87.25 40 50
    endloop
  endfacet
  facet normal 0 1 -0
    outer loop
      vertex 77.25 45 40
      vertex -77.25 45 45
      vertex 77.25 45 45
    endloop
  endfacet
  facet normal 0 1 0
    outer loop
      vertex -77.25 45 45
      vertex 77.25 45 40
      vertex -77.25 45 40
    endloop
  endfacet
  facet normal 0 1 0
    outer loop
      vertex 77.25 45 45
      vertex 87.25 45 50
      vertex 82.25 45 45
    endloop
  endfacet
  facet normal 0 1 -0
    outer loop
      vertex 87.25 45 40
      vertex 82.25 45 45
      vertex 87.25 45 50
    endloop
  endfacet
  facet normal 0 1 0
    outer loop
      vertex 82.25 45 45
      vertex 87.25 45 40
      vertex 82.25 45 40
    endloop
  endfacet
  facet normal 0 1 0
    outer loop
      vertex 87.25 45 50
      vertex 77.25 45 45
      vertex -87.25 45 50
    endloop
  endfacet
  facet normal 0 1 -0
    outer loop
      vertex -77.25 45 45
      vertex -87.25 45 50
      vertex 77.25 45 45
    endloop
  endfacet
  facet normal 0 1 -0
    outer loop
      vertex -82.25 45 45
      vertex -87.25 45 50
      vertex -77.25 45 45
    endloop
  endfacet
  facet normal 0 1 0
    outer loop
      vertex -87.25 45 40
      vertex -82.25 45 45
      vertex -82.25 45 40
    endloop
  endfacet
  facet normal 0 1 0
    outer loop
      vertex -82.25 45 45
      vertex -87.25 45 40
      vertex -87.25 45 50
    endloop
  endfacet
  facet normal 0 -1 0
    outer loop
      vertex -77.25 40 40
      vertex 77.25 40 45
      vertex -77.25 40 45
    endloop
  endfacet
  facet normal 0 -1 -0
    outer loop
      vertex 77.25 40 45
      vertex -77.25 40 40
      vertex 77.25 40 40
    endloop
  endfacet
  facet normal 0 -1 0
    outer loop
      vertex -77.25 40 45
      vertex -87.25 40 50
      vertex -82.25 40 45
    endloop
  endfacet
  facet normal 0 -1 0
    outer loop
      vertex -87.25 40 40
      vertex -82.25 40 45
      vertex -87.25 40 50
    endloop
  endfacet
  facet normal 0 -1 -0
    outer loop
      vertex -82.25 40 45
      vertex -87.25 40 40
      vertex -82.25 40 40
    endloop
  endfacet
  facet normal 0 -1 0
    outer loop
      vertex -87.25 40 50
      vertex -77.25 40 45
      vertex 87.25 40 50
    endloop
  endfacet
  facet normal 0 -1 0
    outer loop
      vertex 77.25 40 45
      vertex 87.25 40 50
      vertex -77.25 40 45
    endloop
  endfacet
  facet normal 0 -1 0
    outer loop
      vertex 82.25 40 45
      vertex 87.25 40 50
      vertex 77.25 40 45
    endloop
  endfacet
  facet normal 0 -1 0
    outer loop
      vertex 87.25 40 40
      vertex 82.25 40 45
      vertex 82.25 40 40
    endloop
  endfacet
  facet normal 0 -1 0
    outer loop
      vertex 82.25 40 45
      vertex 87.25 40 40
      vertex 87.25 40 50
    endloop
  endfacet
  facet normal -1 0 0
    outer loop
      vertex 82.25 40 40
      vertex 82.25 45 45
      vertex 82.25 45 40
    endloop
  endfacet
  facet normal -1 -0 0
    outer loop
      vertex 82.25 45 45
      vertex 82.25 40 40
      vertex 82.25 40 45
    endloop
  endfacet
  facet normal 0 0 -1
    outer loop
      vertex 77.25 40 45
      vertex 82.25 45 45
      vertex 82.25 40 45
    endloop
  endfacet
  facet normal -0 0 -1
    outer loop
      vertex 82.25 45 45
      vertex 77.25 40 45
      vertex 77.25 45 45
    endloop
  endfacet
  facet normal 1 -0 0
    outer loop
      vertex 77.25 40 45
      vertex 77.25 45 40
      vertex 77.25 45 45
    endloop
  endfacet
  facet normal 1 0 0
    outer loop
      vertex 77.25 45 40
      vertex 77.25 40 45
      vertex 77.25 40 40
    endloop
  endfacet
  facet normal -1 0 0
    outer loop
      vertex -77.25 40 40
      vertex -77.25 45 45
      vertex -77.25 45 40
    endloop
  endfacet
  facet normal -1 -0 0
    outer loop
      vertex -77.25 45 45
      vertex -77.25 40 40
      vertex -77.25 40 45
    endloop
  endfacet
  facet normal 0 0 -1
    outer loop
      vertex -82.25 40 45
      vertex -77.25 45 45
      vertex -77.25 40 45
    endloop
  endfacet
  facet normal -0 0 -1
    outer loop
      vertex -77.25 45 45
      vertex -82.25 40 45
      vertex -82.25 45 45
    endloop
  endfacet
  facet normal 1 -0 0
    outer loop
      vertex -82.25 40 45
      vertex -82.25 45 40
      vertex -82.25 45 45
    endloop
  endfacet
  facet normal 1 0 0
    outer loop
      vertex -82.25 45 40
      vertex -82.25 40 45
      vertex -82.25 40 40
    endloop
  endfacet
endsolid OpenSCAD_Model
