solid OpenSCAD_Model
  facet normal 0 0 -1
    outer loop
      vertex 1.46722 9.68813 0
      vertex 2.5 12.75 0
      vertex 2.5 2.74457 0
    endloop
  endfacet
  facet normal 0 0 -1
    outer loop
      vertex 2.5 12.75 0
      vertex 1.46722 9.68813 0
      vertex 1.5 10 0
    endloop
  endfacet
  facet normal 0 0 -1
    outer loop
      vertex 2.5 2.74457 0
      vertex 1.37032 9.38989 0
      vertex 1.46722 9.68813 0
    endloop
  endfacet
  facet normal 0 0 -1
    outer loop
      vertex 2.5 2.74457 0
      vertex 1.21352 9.11832 0
      vertex 1.37032 9.38989 0
    endloop
  endfacet
  facet normal 0 0 -1
    outer loop
      vertex 2.5 2.74457 0
      vertex 1.0037 8.88528 0
      vertex 1.21352 9.11832 0
    endloop
  endfacet
  facet normal 0 0 -1
    outer loop
      vertex 2.5 2.74457 0
      vertex 0.75 8.70096 0
      vertex 1.0037 8.88528 0
    endloop
  endfacet
  facet normal 0 0 -1
    outer loop
      vertex 2.5 2.74457 0
      vertex 0.463525 8.57341 0
      vertex 0.75 8.70096 0
    endloop
  endfacet
  facet normal 0 0 -1
    outer loop
      vertex 2.5 2.74457 0
      vertex 0.156793 8.50822 0
      vertex 0.463525 8.57341 0
    endloop
  endfacet
  facet normal 0 0 -1
    outer loop
      vertex 2.5 2.74457 0
      vertex -0.156793 8.50822 0
      vertex 0.156793 8.50822 0
    endloop
  endfacet
  facet normal 0 0 -1
    outer loop
      vertex -2.5 2.74457 0
      vertex -0.156793 8.50822 0
      vertex 2.5 2.74457 0
    endloop
  endfacet
  facet normal -0 0 -1
    outer loop
      vertex -0.156793 8.50822 0
      vertex -2.5 2.74457 0
      vertex -0.463525 8.57341 0
    endloop
  endfacet
  facet normal -0 0 -1
    outer loop
      vertex -0.463525 8.57341 0
      vertex -2.5 2.74457 0
      vertex -0.75 8.70096 0
    endloop
  endfacet
  facet normal -0 0 -1
    outer loop
      vertex -0.75 8.70096 0
      vertex -2.5 2.74457 0
      vertex -1.0037 8.88528 0
    endloop
  endfacet
  facet normal 0 0 -1
    outer loop
      vertex -2.5 12.75 0
      vertex -1.46722 9.68813 0
      vertex -2.5 2.74457 0
    endloop
  endfacet
  facet normal -0 0 -1
    outer loop
      vertex -1.37032 9.38989 0
      vertex -2.5 2.74457 0
      vertex -1.46722 9.68813 0
    endloop
  endfacet
  facet normal -0 0 -1
    outer loop
      vertex -1.21352 9.11832 0
      vertex -2.5 2.74457 0
      vertex -1.37032 9.38989 0
    endloop
  endfacet
  facet normal -0 0 -1
    outer loop
      vertex -1.0037 8.88528 0
      vertex -2.5 2.74457 0
      vertex -1.21352 9.11832 0
    endloop
  endfacet
  facet normal 0 0 -1
    outer loop
      vertex 1.46722 10.3119 0
      vertex 2.5 12.75 0
      vertex 1.5 10 0
    endloop
  endfacet
  facet normal 0 0 -1
    outer loop
      vertex 1.37032 10.6101 0
      vertex 2.5 12.75 0
      vertex 1.46722 10.3119 0
    endloop
  endfacet
  facet normal 0 0 -1
    outer loop
      vertex 1.21352 10.8817 0
      vertex 2.5 12.75 0
      vertex 1.37032 10.6101 0
    endloop
  endfacet
  facet normal 0 0 -1
    outer loop
      vertex 1.0037 11.1147 0
      vertex 2.5 12.75 0
      vertex 1.21352 10.8817 0
    endloop
  endfacet
  facet normal 0 0 -1
    outer loop
      vertex 0.75 11.299 0
      vertex 2.5 12.75 0
      vertex 1.0037 11.1147 0
    endloop
  endfacet
  facet normal 0 0 -1
    outer loop
      vertex 0.463525 11.4266 0
      vertex 2.5 12.75 0
      vertex 0.75 11.299 0
    endloop
  endfacet
  facet normal 0 0 -1
    outer loop
      vertex 0.156793 11.4918 0
      vertex 2.5 12.75 0
      vertex 0.463525 11.4266 0
    endloop
  endfacet
  facet normal 0 0 -1
    outer loop
      vertex -0.156793 11.4918 0
      vertex 2.5 12.75 0
      vertex 0.156793 11.4918 0
    endloop
  endfacet
  facet normal 0 0 -1
    outer loop
      vertex -2.5 12.75 0
      vertex -0.156793 11.4918 0
      vertex -0.463525 11.4266 0
    endloop
  endfacet
  facet normal 0 0 -1
    outer loop
      vertex -2.5 12.75 0
      vertex -0.463525 11.4266 0
      vertex -0.75 11.299 0
    endloop
  endfacet
  facet normal 0 0 -1
    outer loop
      vertex -1.46722 9.68813 0
      vertex -2.5 12.75 0
      vertex -1.5 10 0
    endloop
  endfacet
  facet normal 0 0 -1
    outer loop
      vertex -0.156793 11.4918 0
      vertex -2.5 12.75 0
      vertex 2.5 12.75 0
    endloop
  endfacet
  facet normal 0 0 -1
    outer loop
      vertex -1.0037 11.1147 0
      vertex -2.5 12.75 0
      vertex -0.75 11.299 0
    endloop
  endfacet
  facet normal 0 0 -1
    outer loop
      vertex -1.21352 10.8817 0
      vertex -2.5 12.75 0
      vertex -1.0037 11.1147 0
    endloop
  endfacet
  facet normal 0 0 -1
    outer loop
      vertex -1.37032 10.6101 0
      vertex -2.5 12.75 0
      vertex -1.21352 10.8817 0
    endloop
  endfacet
  facet normal 0 0 -1
    outer loop
      vertex -1.46722 10.3119 0
      vertex -2.5 12.75 0
      vertex -1.37032 10.6101 0
    endloop
  endfacet
  facet normal 0 0 -1
    outer loop
      vertex -1.5 10 0
      vertex -2.5 12.75 0
      vertex -1.46722 10.3119 0
    endloop
  endfacet
  facet normal 0 0 -1
    outer loop
      vertex 1.46722 -9.68813 0
      vertex 2.5 -12.75 0
      vertex 1.5 -10 0
    endloop
  endfacet
  facet normal 0 0 -1
    outer loop
      vertex 2.5 -12.75 0
      vertex 1.46722 -10.3119 0
      vertex 1.5 -10 0
    endloop
  endfacet
  facet normal 0 0 -1
    outer loop
      vertex 2.5 -12.75 0
      vertex 1.37032 -10.6101 0
      vertex 1.46722 -10.3119 0
    endloop
  endfacet
  facet normal 0 0 -1
    outer loop
      vertex 2.5 -12.75 0
      vertex 1.21352 -10.8817 0
      vertex 1.37032 -10.6101 0
    endloop
  endfacet
  facet normal 0 0 -1
    outer loop
      vertex 2.5 -12.75 0
      vertex 1.0037 -11.1147 0
      vertex 1.21352 -10.8817 0
    endloop
  endfacet
  facet normal 0 0 -1
    outer loop
      vertex 2.5 -12.75 0
      vertex 0.75 -11.299 0
      vertex 1.0037 -11.1147 0
    endloop
  endfacet
  facet normal 0 0 -1
    outer loop
      vertex 2.5 -12.75 0
      vertex 0.463525 -11.4266 0
      vertex 0.75 -11.299 0
    endloop
  endfacet
  facet normal 0 0 -1
    outer loop
      vertex 2.5 -12.75 0
      vertex 0.156793 -11.4918 0
      vertex 0.463525 -11.4266 0
    endloop
  endfacet
  facet normal 0 0 -1
    outer loop
      vertex 2.5 -12.75 0
      vertex -0.156793 -11.4918 0
      vertex 0.156793 -11.4918 0
    endloop
  endfacet
  facet normal 0 0 -1
    outer loop
      vertex -2.5 -12.75 0
      vertex -0.156793 -11.4918 0
      vertex 2.5 -12.75 0
    endloop
  endfacet
  facet normal -0 0 -1
    outer loop
      vertex -0.156793 -11.4918 0
      vertex -2.5 -12.75 0
      vertex -0.463525 -11.4266 0
    endloop
  endfacet
  facet normal -0 0 -1
    outer loop
      vertex -1.46722 -10.3119 0
      vertex -2.5 -12.75 0
      vertex -1.5 -10 0
    endloop
  endfacet
  facet normal -0 0 -1
    outer loop
      vertex -1.37032 -10.6101 0
      vertex -2.5 -12.75 0
      vertex -1.46722 -10.3119 0
    endloop
  endfacet
  facet normal -0 0 -1
    outer loop
      vertex -1.21352 -10.8817 0
      vertex -2.5 -12.75 0
      vertex -1.37032 -10.6101 0
    endloop
  endfacet
  facet normal -0 0 -1
    outer loop
      vertex -1.0037 -11.1147 0
      vertex -2.5 -12.75 0
      vertex -1.21352 -10.8817 0
    endloop
  endfacet
  facet normal -0 0 -1
    outer loop
      vertex -0.75 -11.299 0
      vertex -2.5 -12.75 0
      vertex -1.0037 -11.1147 0
    endloop
  endfacet
  facet normal -0 0 -1
    outer loop
      vertex -0.463525 -11.4266 0
      vertex -2.5 -12.75 0
      vertex -0.75 -11.299 0
    endloop
  endfacet
  facet normal 0 0 -1
    outer loop
      vertex 2.5 -12.75 0
      vertex 1.46722 -9.68813 0
      vertex 2.5 -2.74457 0
    endloop
  endfacet
  facet normal 0 0 -1
    outer loop
      vertex 1.37032 -9.38989 0
      vertex 2.5 -2.74457 0
      vertex 1.46722 -9.68813 0
    endloop
  endfacet
  facet normal 0 0 -1
    outer loop
      vertex 1.21352 -9.11832 0
      vertex 2.5 -2.74457 0
      vertex 1.37032 -9.38989 0
    endloop
  endfacet
  facet normal 0 0 -1
    outer loop
      vertex 1.0037 -8.88528 0
      vertex 2.5 -2.74457 0
      vertex 1.21352 -9.11832 0
    endloop
  endfacet
  facet normal 0 0 -1
    outer loop
      vertex 0.75 -8.70096 0
      vertex 2.5 -2.74457 0
      vertex 1.0037 -8.88528 0
    endloop
  endfacet
  facet normal 0 0 -1
    outer loop
      vertex 0.463525 -8.57341 0
      vertex 2.5 -2.74457 0
      vertex 0.75 -8.70096 0
    endloop
  endfacet
  facet normal 0 0 -1
    outer loop
      vertex 0.156793 -8.50822 0
      vertex 2.5 -2.74457 0
      vertex 0.463525 -8.57341 0
    endloop
  endfacet
  facet normal 0 0 -1
    outer loop
      vertex -0.156793 -8.50822 0
      vertex 2.5 -2.74457 0
      vertex 0.156793 -8.50822 0
    endloop
  endfacet
  facet normal 0 0 -1
    outer loop
      vertex -2.5 -2.74457 0
      vertex -0.156793 -8.50822 0
      vertex -0.463525 -8.57341 0
    endloop
  endfacet
  facet normal 0 0 -1
    outer loop
      vertex -2.5 -2.74457 0
      vertex -0.463525 -8.57341 0
      vertex -0.75 -8.70096 0
    endloop
  endfacet
  facet normal 0 0 -1
    outer loop
      vertex -2.5 -2.74457 0
      vertex -0.75 -8.70096 0
      vertex -1.0037 -8.88528 0
    endloop
  endfacet
  facet normal 0 0 -1
    outer loop
      vertex -2.5 -2.74457 0
      vertex -1.0037 -8.88528 0
      vertex -1.21352 -9.11832 0
    endloop
  endfacet
  facet normal 0 0 -1
    outer loop
      vertex -2.5 -12.75 0
      vertex -1.46722 -9.68813 0
      vertex -1.5 -10 0
    endloop
  endfacet
  facet normal 0 0 -1
    outer loop
      vertex -2.5 -2.74457 0
      vertex -1.46722 -9.68813 0
      vertex -2.5 -12.75 0
    endloop
  endfacet
  facet normal 0 0 -1
    outer loop
      vertex -0.156793 -8.50822 0
      vertex -2.5 -2.74457 0
      vertex 2.5 -2.74457 0
    endloop
  endfacet
  facet normal 0 0 -1
    outer loop
      vertex -1.37032 -9.38989 0
      vertex -2.5 -2.74457 0
      vertex -1.21352 -9.11832 0
    endloop
  endfacet
  facet normal 0 0 -1
    outer loop
      vertex -1.46722 -9.68813 0
      vertex -2.5 -2.74457 0
      vertex -1.37032 -9.38989 0
    endloop
  endfacet
  facet normal 1 0 0
    outer loop
      vertex 2.5 5.91517 5
      vertex 2.5 2.70129 0.515299
      vertex 2.5 2.74457 0.172674
    endloop
  endfacet
  facet normal 1 0 0
    outer loop
      vertex 2.5 3.73359 6.79138
      vertex 2.5 2.61541 0.849797
      vertex 2.5 2.70129 0.515299
    endloop
  endfacet
  facet normal 1 0 0
    outer loop
      vertex 2.5 3.73359 6.79138
      vertex 2.5 2.48827 1.17089
      vertex 2.5 2.61541 0.849797
    endloop
  endfacet
  facet normal 1 0 0
    outer loop
      vertex 2.5 3.73359 6.79138
      vertex 2.5 2.3219 1.47352
      vertex 2.5 2.48827 1.17089
    endloop
  endfacet
  facet normal 1 0 0
    outer loop
      vertex 2.5 3.73359 6.79138
      vertex 2.5 2.11891 1.75292
      vertex 2.5 2.3219 1.47352
    endloop
  endfacet
  facet normal 1 0 0
    outer loop
      vertex 2.5 1.01234 2.55689
      vertex 2.5 2.85296 7.20577
      vertex 2.5 1.92735 7.50652
    endloop
  endfacet
  facet normal 1 0 0
    outer loop
      vertex 2.5 3.73359 6.79138
      vertex 2.5 1.8825 2.00466
      vertex 2.5 2.11891 1.75292
    endloop
  endfacet
  facet normal 1 0 0
    outer loop
      vertex 2.5 3.73359 6.79138
      vertex 2.5 1.61641 2.2248
      vertex 2.5 1.8825 2.00466
    endloop
  endfacet
  facet normal 1 0 0
    outer loop
      vertex 2.5 3.73359 6.79138
      vertex 2.5 1.32482 2.40984
      vertex 2.5 1.61641 2.2248
    endloop
  endfacet
  facet normal 1 0 0
    outer loop
      vertex 2.5 2.85296 7.20577
      vertex 2.5 1.01234 2.55689
      vertex 2.5 1.32482 2.40984
    endloop
  endfacet
  facet normal 1 0 0
    outer loop
      vertex 2.5 0.683897 2.6636
      vertex 2.5 1.92735 7.50652
      vertex 2.5 0.971333 7.68889
    endloop
  endfacet
  facet normal 1 0 0
    outer loop
      vertex 2.5 1.92735 7.50652
      vertex 2.5 0.683897 2.6636
      vertex 2.5 1.01234 2.55689
    endloop
  endfacet
  facet normal 1 0 0
    outer loop
      vertex 2.5 0.971333 7.68889
      vertex 2.5 0.344666 2.72832
      vertex 2.5 0.683897 2.6636
    endloop
  endfacet
  facet normal 1 0 0
    outer loop
      vertex 2.5 0 7.75
      vertex 2.5 0.344666 2.72832
      vertex 2.5 0.971333 7.68889
    endloop
  endfacet
  facet normal 1 0 0
    outer loop
      vertex 2.5 0 7.75
      vertex 2.5 0 2.75
      vertex 2.5 0.344666 2.72832
    endloop
  endfacet
  facet normal 1 0 0
    outer loop
      vertex 2.5 0 7.75
      vertex 2.5 -0.344666 2.72832
      vertex 2.5 0 2.75
    endloop
  endfacet
  facet normal 1 -0 0
    outer loop
      vertex 2.5 -0.971333 7.68889
      vertex 2.5 -0.344666 2.72832
      vertex 2.5 0 7.75
    endloop
  endfacet
  facet normal 1 0 0
    outer loop
      vertex 2.5 -0.344666 2.72832
      vertex 2.5 -0.971333 7.68889
      vertex 2.5 -0.683897 2.6636
    endloop
  endfacet
  facet normal 1 -0 0
    outer loop
      vertex 2.5 -1.92735 7.50652
      vertex 2.5 -0.683897 2.6636
      vertex 2.5 -0.971333 7.68889
    endloop
  endfacet
  facet normal 1 0 0
    outer loop
      vertex 2.5 -0.683897 2.6636
      vertex 2.5 -1.92735 7.50652
      vertex 2.5 -1.01234 2.55689
    endloop
  endfacet
  facet normal 1 -0 0
    outer loop
      vertex 2.5 -2.85296 7.20577
      vertex 2.5 -1.01234 2.55689
      vertex 2.5 -1.92735 7.50652
    endloop
  endfacet
  facet normal 1 0 0
    outer loop
      vertex 2.5 -1.01234 2.55689
      vertex 2.5 -2.85296 7.20577
      vertex 2.5 -1.32482 2.40984
    endloop
  endfacet
  facet normal 1 -0 0
    outer loop
      vertex 2.5 -3.73359 6.79138
      vertex 2.5 -1.32482 2.40984
      vertex 2.5 -2.85296 7.20577
    endloop
  endfacet
  facet normal 1 0 0
    outer loop
      vertex 2.5 -1.32482 2.40984
      vertex 2.5 -3.73359 6.79138
      vertex 2.5 -1.61641 2.2248
    endloop
  endfacet
  facet normal 1 -0 0
    outer loop
      vertex 2.5 -4.55534 6.26988
      vertex 2.5 -1.61641 2.2248
      vertex 2.5 -3.73359 6.79138
    endloop
  endfacet
  facet normal 1 0 0
    outer loop
      vertex 2.5 -1.61641 2.2248
      vertex 2.5 -4.55534 6.26988
      vertex 2.5 -1.8825 2.00466
    endloop
  endfacet
  facet normal 1 -0 0
    outer loop
      vertex 2.5 -5.30524 5.64951
      vertex 2.5 -1.8825 2.00466
      vertex 2.5 -4.55534 6.26988
    endloop
  endfacet
  facet normal 1 -0 0
    outer loop
      vertex 2.5 -5.91517 5
      vertex 2.5 -1.8825 2.00466
      vertex 2.5 -5.30524 5.64951
    endloop
  endfacet
  facet normal 1 0 0
    outer loop
      vertex 2.5 -1.8825 2.00466
      vertex 2.5 -5.91517 5
      vertex 2.5 -2.11891 1.75292
    endloop
  endfacet
  facet normal 1 0 0
    outer loop
      vertex 2.5 -2.11891 1.75292
      vertex 2.5 -5.91517 5
      vertex 2.5 -2.3219 1.47352
    endloop
  endfacet
  facet normal 1 0 0
    outer loop
      vertex 2.5 -2.3219 1.47352
      vertex 2.5 -5.91517 5
      vertex 2.5 -2.48827 1.17089
    endloop
  endfacet
  facet normal 1 0 0
    outer loop
      vertex 2.5 -2.48827 1.17089
      vertex 2.5 -5.91517 5
      vertex 2.5 -2.61541 0.849797
    endloop
  endfacet
  facet normal 1 0 0
    outer loop
      vertex 2.5 -2.61541 0.849797
      vertex 2.5 -5.91517 5
      vertex 2.5 -2.70129 0.515299
    endloop
  endfacet
  facet normal 1 0 0
    outer loop
      vertex 2.5 -2.70129 0.515299
      vertex 2.5 -5.91517 5
      vertex 2.5 -2.74457 0.172674
    endloop
  endfacet
  facet normal 1 0 0
    outer loop
      vertex 2.5 -12.75 0
      vertex 2.5 -2.74457 0.172674
      vertex 2.5 -5.91517 5
    endloop
  endfacet
  facet normal 1 0 0
    outer loop
      vertex 2.5 -12.75 0
      vertex 2.5 -5.91517 5
      vertex 2.5 -12.75 5
    endloop
  endfacet
  facet normal 1 0 0
    outer loop
      vertex 2.5 -2.74457 0.172674
      vertex 2.5 -12.75 0
      vertex 2.5 -2.74457 0
    endloop
  endfacet
  facet normal 1 -0 0
    outer loop
      vertex 2.5 5.91517 5
      vertex 2.5 12.75 0
      vertex 2.5 12.75 5
    endloop
  endfacet
  facet normal 1 0 0
    outer loop
      vertex 2.5 2.70129 0.515299
      vertex 2.5 5.30524 5.64951
      vertex 2.5 4.55534 6.26988
    endloop
  endfacet
  facet normal 1 0 0
    outer loop
      vertex 2.5 2.70129 0.515299
      vertex 2.5 4.55534 6.26988
      vertex 2.5 3.73359 6.79138
    endloop
  endfacet
  facet normal 1 0 0
    outer loop
      vertex 2.5 1.32482 2.40984
      vertex 2.5 3.73359 6.79138
      vertex 2.5 2.85296 7.20577
    endloop
  endfacet
  facet normal 1 0 0
    outer loop
      vertex 2.5 2.70129 0.515299
      vertex 2.5 5.91517 5
      vertex 2.5 5.30524 5.64951
    endloop
  endfacet
  facet normal 1 0 0
    outer loop
      vertex 2.5 5.91517 5
      vertex 2.5 2.74457 0.172674
      vertex 2.5 12.75 0
    endloop
  endfacet
  facet normal 1 0 0
    outer loop
      vertex 2.5 12.75 0
      vertex 2.5 2.74457 0.172674
      vertex 2.5 2.74457 0
    endloop
  endfacet
  facet normal -1 0 0
    outer loop
      vertex -2.5 -12.75 0
      vertex -2.5 -2.74457 0.172674
      vertex -2.5 -2.74457 0
    endloop
  endfacet
  facet normal -1 0 0
    outer loop
      vertex -2.5 -2.74457 0.172674
      vertex -2.5 -3.73359 6.79138
      vertex -2.5 -2.85296 7.20577
    endloop
  endfacet
  facet normal -1 0 0
    outer loop
      vertex -2.5 -2.74457 0.172674
      vertex -2.5 -4.55534 6.26988
      vertex -2.5 -3.73359 6.79138
    endloop
  endfacet
  facet normal -1 0 0
    outer loop
      vertex -2.5 -2.74457 0.172674
      vertex -2.5 -5.30524 5.64951
      vertex -2.5 -4.55534 6.26988
    endloop
  endfacet
  facet normal -1 0 0
    outer loop
      vertex -2.5 -2.74457 0.172674
      vertex -2.5 -5.91517 5
      vertex -2.5 -5.30524 5.64951
    endloop
  endfacet
  facet normal -1 -0 0
    outer loop
      vertex -2.5 -2.74457 0.172674
      vertex -2.5 -12.75 0
      vertex -2.5 -5.91517 5
    endloop
  endfacet
  facet normal -1 -0 0
    outer loop
      vertex -2.5 -5.91517 5
      vertex -2.5 -12.75 0
      vertex -2.5 -12.75 5
    endloop
  endfacet
  facet normal -1 0 0
    outer loop
      vertex -2.5 12.75 0
      vertex -2.5 5.91517 5
      vertex -2.5 12.75 5
    endloop
  endfacet
  facet normal -1 0 0
    outer loop
      vertex -2.5 1.8825 2.00466
      vertex -2.5 5.30524 5.64951
      vertex -2.5 5.91517 5
    endloop
  endfacet
  facet normal -1 -0 0
    outer loop
      vertex -2.5 5.30524 5.64951
      vertex -2.5 1.8825 2.00466
      vertex -2.5 4.55534 6.26988
    endloop
  endfacet
  facet normal -1 -0 0
    outer loop
      vertex -2.5 4.55534 6.26988
      vertex -2.5 1.61641 2.2248
      vertex -2.5 3.73359 6.79138
    endloop
  endfacet
  facet normal -1 0 0
    outer loop
      vertex -2.5 2.74457 0.172674
      vertex -2.5 5.91517 5
      vertex -2.5 12.75 0
    endloop
  endfacet
  facet normal -1 0 0
    outer loop
      vertex -2.5 2.74457 0.172674
      vertex -2.5 12.75 0
      vertex -2.5 2.74457 0
    endloop
  endfacet
  facet normal -1 0 0
    outer loop
      vertex -2.5 5.91517 5
      vertex -2.5 2.74457 0.172674
      vertex -2.5 2.70129 0.515299
    endloop
  endfacet
  facet normal -1 0 0
    outer loop
      vertex -2.5 5.91517 5
      vertex -2.5 2.70129 0.515299
      vertex -2.5 2.61541 0.849797
    endloop
  endfacet
  facet normal -1 0 0
    outer loop
      vertex -2.5 5.91517 5
      vertex -2.5 2.61541 0.849797
      vertex -2.5 2.48827 1.17089
    endloop
  endfacet
  facet normal -1 0 0
    outer loop
      vertex -2.5 2.3219 1.47352
      vertex -2.5 5.91517 5
      vertex -2.5 2.48827 1.17089
    endloop
  endfacet
  facet normal -1 0 0
    outer loop
      vertex -2.5 2.11891 1.75292
      vertex -2.5 5.91517 5
      vertex -2.5 2.3219 1.47352
    endloop
  endfacet
  facet normal -1 0 0
    outer loop
      vertex -2.5 1.8825 2.00466
      vertex -2.5 5.91517 5
      vertex -2.5 2.11891 1.75292
    endloop
  endfacet
  facet normal -1 0 0
    outer loop
      vertex -2.5 4.55534 6.26988
      vertex -2.5 1.8825 2.00466
      vertex -2.5 1.61641 2.2248
    endloop
  endfacet
  facet normal -1 0 0
    outer loop
      vertex -2.5 1.32482 2.40984
      vertex -2.5 3.73359 6.79138
      vertex -2.5 1.61641 2.2248
    endloop
  endfacet
  facet normal -1 -0 0
    outer loop
      vertex -2.5 3.73359 6.79138
      vertex -2.5 1.32482 2.40984
      vertex -2.5 2.85296 7.20577
    endloop
  endfacet
  facet normal -1 0 0
    outer loop
      vertex -2.5 1.01234 2.55689
      vertex -2.5 2.85296 7.20577
      vertex -2.5 1.32482 2.40984
    endloop
  endfacet
  facet normal -1 -0 0
    outer loop
      vertex -2.5 2.85296 7.20577
      vertex -2.5 1.01234 2.55689
      vertex -2.5 1.92735 7.50652
    endloop
  endfacet
  facet normal -1 0 0
    outer loop
      vertex -2.5 0.683897 2.6636
      vertex -2.5 1.92735 7.50652
      vertex -2.5 1.01234 2.55689
    endloop
  endfacet
  facet normal -1 -0 0
    outer loop
      vertex -2.5 1.92735 7.50652
      vertex -2.5 0.683897 2.6636
      vertex -2.5 0.971333 7.68889
    endloop
  endfacet
  facet normal -1 0 0
    outer loop
      vertex -2.5 0.344666 2.72832
      vertex -2.5 0.971333 7.68889
      vertex -2.5 0.683897 2.6636
    endloop
  endfacet
  facet normal -1 0 0
    outer loop
      vertex -2.5 0 2.75
      vertex -2.5 0.971333 7.68889
      vertex -2.5 0.344666 2.72832
    endloop
  endfacet
  facet normal -1 0 0
    outer loop
      vertex -2.5 0 2.75
      vertex -2.5 0 7.75
      vertex -2.5 0.971333 7.68889
    endloop
  endfacet
  facet normal -1 0 0
    outer loop
      vertex -2.5 -0.344666 2.72832
      vertex -2.5 0 7.75
      vertex -2.5 0 2.75
    endloop
  endfacet
  facet normal -1 0 0
    outer loop
      vertex -2.5 -0.971333 7.68889
      vertex -2.5 -0.344666 2.72832
      vertex -2.5 -0.683897 2.6636
    endloop
  endfacet
  facet normal -1 0 0
    outer loop
      vertex -2.5 -0.344666 2.72832
      vertex -2.5 -0.971333 7.68889
      vertex -2.5 0 7.75
    endloop
  endfacet
  facet normal -1 0 0
    outer loop
      vertex -2.5 -1.92735 7.50652
      vertex -2.5 -0.683897 2.6636
      vertex -2.5 -1.01234 2.55689
    endloop
  endfacet
  facet normal -1 0 0
    outer loop
      vertex -2.5 -2.85296 7.20577
      vertex -2.5 -1.01234 2.55689
      vertex -2.5 -1.32482 2.40984
    endloop
  endfacet
  facet normal -1 0 0
    outer loop
      vertex -2.5 -2.85296 7.20577
      vertex -2.5 -1.32482 2.40984
      vertex -2.5 -1.61641 2.2248
    endloop
  endfacet
  facet normal -1 0 0
    outer loop
      vertex -2.5 -2.85296 7.20577
      vertex -2.5 -1.61641 2.2248
      vertex -2.5 -1.8825 2.00466
    endloop
  endfacet
  facet normal -1 0 0
    outer loop
      vertex -2.5 -0.683897 2.6636
      vertex -2.5 -1.92735 7.50652
      vertex -2.5 -0.971333 7.68889
    endloop
  endfacet
  facet normal -1 0 0
    outer loop
      vertex -2.5 -2.85296 7.20577
      vertex -2.5 -1.8825 2.00466
      vertex -2.5 -2.11891 1.75292
    endloop
  endfacet
  facet normal -1 0 0
    outer loop
      vertex -2.5 -2.85296 7.20577
      vertex -2.5 -2.11891 1.75292
      vertex -2.5 -2.3219 1.47352
    endloop
  endfacet
  facet normal -1 0 0
    outer loop
      vertex -2.5 -2.85296 7.20577
      vertex -2.5 -2.3219 1.47352
      vertex -2.5 -2.48827 1.17089
    endloop
  endfacet
  facet normal -1 0 0
    outer loop
      vertex -2.5 -2.85296 7.20577
      vertex -2.5 -2.48827 1.17089
      vertex -2.5 -2.61541 0.849797
    endloop
  endfacet
  facet normal -1 0 0
    outer loop
      vertex -2.5 -2.85296 7.20577
      vertex -2.5 -2.61541 0.849797
      vertex -2.5 -2.70129 0.515299
    endloop
  endfacet
  facet normal -1 0 0
    outer loop
      vertex -2.5 -2.85296 7.20577
      vertex -2.5 -2.70129 0.515299
      vertex -2.5 -2.74457 0.172674
    endloop
  endfacet
  facet normal -1 0 0
    outer loop
      vertex -2.5 -1.01234 2.55689
      vertex -2.5 -2.85296 7.20577
      vertex -2.5 -1.92735 7.50652
    endloop
  endfacet
  facet normal 0 0 1
    outer loop
      vertex 2.5 12.75 5
      vertex 1.5 10 5
      vertex 2.5 5.91517 5
    endloop
  endfacet
  facet normal 0 0 1
    outer loop
      vertex 2.5 12.75 5
      vertex 1.46722 10.3119 5
      vertex 1.5 10 5
    endloop
  endfacet
  facet normal 0 0 1
    outer loop
      vertex 2.5 12.75 5
      vertex 1.37032 10.6101 5
      vertex 1.46722 10.3119 5
    endloop
  endfacet
  facet normal 0 0 1
    outer loop
      vertex 2.5 12.75 5
      vertex 1.21352 10.8817 5
      vertex 1.37032 10.6101 5
    endloop
  endfacet
  facet normal 0 0 1
    outer loop
      vertex 2.5 12.75 5
      vertex 1.0037 11.1147 5
      vertex 1.21352 10.8817 5
    endloop
  endfacet
  facet normal 0 0 1
    outer loop
      vertex 2.5 12.75 5
      vertex 0.75 11.299 5
      vertex 1.0037 11.1147 5
    endloop
  endfacet
  facet normal 0 0 1
    outer loop
      vertex 2.5 12.75 5
      vertex 0.463525 11.4266 5
      vertex 0.75 11.299 5
    endloop
  endfacet
  facet normal 0 0 1
    outer loop
      vertex 2.5 12.75 5
      vertex 0.156793 11.4918 5
      vertex 0.463525 11.4266 5
    endloop
  endfacet
  facet normal 0 0 1
    outer loop
      vertex 2.5 12.75 5
      vertex -0.156793 11.4918 5
      vertex 0.156793 11.4918 5
    endloop
  endfacet
  facet normal -0 0 1
    outer loop
      vertex -2.5 12.75 5
      vertex -0.156793 11.4918 5
      vertex 2.5 12.75 5
    endloop
  endfacet
  facet normal 0 0 1
    outer loop
      vertex -0.156793 11.4918 5
      vertex -2.5 12.75 5
      vertex -0.463525 11.4266 5
    endloop
  endfacet
  facet normal 0 0 1
    outer loop
      vertex -1.46722 10.3119 5
      vertex -2.5 12.75 5
      vertex -1.5 10 5
    endloop
  endfacet
  facet normal 0 0 1
    outer loop
      vertex -1.37032 10.6101 5
      vertex -2.5 12.75 5
      vertex -1.46722 10.3119 5
    endloop
  endfacet
  facet normal 0 0 1
    outer loop
      vertex -1.21352 10.8817 5
      vertex -2.5 12.75 5
      vertex -1.37032 10.6101 5
    endloop
  endfacet
  facet normal 0 0 1
    outer loop
      vertex -1.0037 11.1147 5
      vertex -2.5 12.75 5
      vertex -1.21352 10.8817 5
    endloop
  endfacet
  facet normal 0 0 1
    outer loop
      vertex -0.75 11.299 5
      vertex -2.5 12.75 5
      vertex -1.0037 11.1147 5
    endloop
  endfacet
  facet normal 0 0 1
    outer loop
      vertex -0.463525 11.4266 5
      vertex -2.5 12.75 5
      vertex -0.75 11.299 5
    endloop
  endfacet
  facet normal -0 0 1
    outer loop
      vertex 1.46722 9.68813 5
      vertex 2.5 5.91517 5
      vertex 1.5 10 5
    endloop
  endfacet
  facet normal -0 0 1
    outer loop
      vertex 1.37032 9.38989 5
      vertex 2.5 5.91517 5
      vertex 1.46722 9.68813 5
    endloop
  endfacet
  facet normal -0 0 1
    outer loop
      vertex 1.21352 9.11832 5
      vertex 2.5 5.91517 5
      vertex 1.37032 9.38989 5
    endloop
  endfacet
  facet normal -0 0 1
    outer loop
      vertex 1.0037 8.88528 5
      vertex 2.5 5.91517 5
      vertex 1.21352 9.11832 5
    endloop
  endfacet
  facet normal -0 0 1
    outer loop
      vertex 0.75 8.70096 5
      vertex 2.5 5.91517 5
      vertex 1.0037 8.88528 5
    endloop
  endfacet
  facet normal -0 0 1
    outer loop
      vertex 0.463525 8.57341 5
      vertex 2.5 5.91517 5
      vertex 0.75 8.70096 5
    endloop
  endfacet
  facet normal -0 0 1
    outer loop
      vertex 0.156793 8.50822 5
      vertex 2.5 5.91517 5
      vertex 0.463525 8.57341 5
    endloop
  endfacet
  facet normal -0 0 1
    outer loop
      vertex -0.156793 8.50822 5
      vertex 2.5 5.91517 5
      vertex 0.156793 8.50822 5
    endloop
  endfacet
  facet normal 0 0 1
    outer loop
      vertex -2.5 5.91517 5
      vertex -0.156793 8.50822 5
      vertex -0.463525 8.57341 5
    endloop
  endfacet
  facet normal 0 0 1
    outer loop
      vertex -2.5 5.91517 5
      vertex -0.463525 8.57341 5
      vertex -0.75 8.70096 5
    endloop
  endfacet
  facet normal 0 0 1
    outer loop
      vertex -2.5 5.91517 5
      vertex -0.75 8.70096 5
      vertex -1.0037 8.88528 5
    endloop
  endfacet
  facet normal 0 0 1
    outer loop
      vertex -2.5 5.91517 5
      vertex -1.5 10 5
      vertex -2.5 12.75 5
    endloop
  endfacet
  facet normal 0 0 1
    outer loop
      vertex -1.5 10 5
      vertex -2.5 5.91517 5
      vertex -1.46722 9.68813 5
    endloop
  endfacet
  facet normal 0 0 1
    outer loop
      vertex -0.156793 8.50822 5
      vertex -2.5 5.91517 5
      vertex 2.5 5.91517 5
    endloop
  endfacet
  facet normal 0 0 1
    outer loop
      vertex -1.21352 9.11832 5
      vertex -2.5 5.91517 5
      vertex -1.0037 8.88528 5
    endloop
  endfacet
  facet normal 0 0 1
    outer loop
      vertex -1.37032 9.38989 5
      vertex -2.5 5.91517 5
      vertex -1.21352 9.11832 5
    endloop
  endfacet
  facet normal 0 0 1
    outer loop
      vertex -1.46722 9.68813 5
      vertex -2.5 5.91517 5
      vertex -1.37032 9.38989 5
    endloop
  endfacet
  facet normal 0 0 1
    outer loop
      vertex 2.5 -5.91517 5
      vertex 1.5 -10 5
      vertex 2.5 -12.75 5
    endloop
  endfacet
  facet normal 0 0 1
    outer loop
      vertex 2.5 -5.91517 5
      vertex 1.46722 -9.68813 5
      vertex 1.5 -10 5
    endloop
  endfacet
  facet normal 0 0 1
    outer loop
      vertex 2.5 -5.91517 5
      vertex 1.37032 -9.38989 5
      vertex 1.46722 -9.68813 5
    endloop
  endfacet
  facet normal 0 0 1
    outer loop
      vertex 2.5 -5.91517 5
      vertex 1.21352 -9.11832 5
      vertex 1.37032 -9.38989 5
    endloop
  endfacet
  facet normal 0 0 1
    outer loop
      vertex 2.5 -5.91517 5
      vertex 1.0037 -8.88528 5
      vertex 1.21352 -9.11832 5
    endloop
  endfacet
  facet normal 0 0 1
    outer loop
      vertex 2.5 -5.91517 5
      vertex 0.75 -8.70096 5
      vertex 1.0037 -8.88528 5
    endloop
  endfacet
  facet normal 0 0 1
    outer loop
      vertex 2.5 -5.91517 5
      vertex 0.463525 -8.57341 5
      vertex 0.75 -8.70096 5
    endloop
  endfacet
  facet normal 0 0 1
    outer loop
      vertex 2.5 -5.91517 5
      vertex 0.156793 -8.50822 5
      vertex 0.463525 -8.57341 5
    endloop
  endfacet
  facet normal 0 0 1
    outer loop
      vertex 2.5 -5.91517 5
      vertex -0.156793 -8.50822 5
      vertex 0.156793 -8.50822 5
    endloop
  endfacet
  facet normal -0 0 1
    outer loop
      vertex -2.5 -5.91517 5
      vertex -0.156793 -8.50822 5
      vertex 2.5 -5.91517 5
    endloop
  endfacet
  facet normal 0 0 1
    outer loop
      vertex -0.156793 -8.50822 5
      vertex -2.5 -5.91517 5
      vertex -0.463525 -8.57341 5
    endloop
  endfacet
  facet normal 0 0 1
    outer loop
      vertex -0.463525 -8.57341 5
      vertex -2.5 -5.91517 5
      vertex -0.75 -8.70096 5
    endloop
  endfacet
  facet normal 0 0 1
    outer loop
      vertex -1.46722 -9.68813 5
      vertex -2.5 -5.91517 5
      vertex -1.5 -10 5
    endloop
  endfacet
  facet normal 0 0 1
    outer loop
      vertex -1.37032 -9.38989 5
      vertex -2.5 -5.91517 5
      vertex -1.46722 -9.68813 5
    endloop
  endfacet
  facet normal 0 0 1
    outer loop
      vertex -1.21352 -9.11832 5
      vertex -2.5 -5.91517 5
      vertex -1.37032 -9.38989 5
    endloop
  endfacet
  facet normal 0 0 1
    outer loop
      vertex -1.0037 -8.88528 5
      vertex -2.5 -5.91517 5
      vertex -1.21352 -9.11832 5
    endloop
  endfacet
  facet normal 0 0 1
    outer loop
      vertex -0.75 -8.70096 5
      vertex -2.5 -5.91517 5
      vertex -1.0037 -8.88528 5
    endloop
  endfacet
  facet normal -0 0 1
    outer loop
      vertex 1.46722 -10.3119 5
      vertex 2.5 -12.75 5
      vertex 1.5 -10 5
    endloop
  endfacet
  facet normal -0 0 1
    outer loop
      vertex 1.37032 -10.6101 5
      vertex 2.5 -12.75 5
      vertex 1.46722 -10.3119 5
    endloop
  endfacet
  facet normal -0 0 1
    outer loop
      vertex 1.21352 -10.8817 5
      vertex 2.5 -12.75 5
      vertex 1.37032 -10.6101 5
    endloop
  endfacet
  facet normal -0 0 1
    outer loop
      vertex 1.0037 -11.1147 5
      vertex 2.5 -12.75 5
      vertex 1.21352 -10.8817 5
    endloop
  endfacet
  facet normal -0 0 1
    outer loop
      vertex 0.75 -11.299 5
      vertex 2.5 -12.75 5
      vertex 1.0037 -11.1147 5
    endloop
  endfacet
  facet normal -0 0 1
    outer loop
      vertex 0.463525 -11.4266 5
      vertex 2.5 -12.75 5
      vertex 0.75 -11.299 5
    endloop
  endfacet
  facet normal -0 0 1
    outer loop
      vertex 0.156793 -11.4918 5
      vertex 2.5 -12.75 5
      vertex 0.463525 -11.4266 5
    endloop
  endfacet
  facet normal -0 0 1
    outer loop
      vertex -0.156793 -11.4918 5
      vertex 2.5 -12.75 5
      vertex 0.156793 -11.4918 5
    endloop
  endfacet
  facet normal 0 0 1
    outer loop
      vertex -2.5 -12.75 5
      vertex -0.156793 -11.4918 5
      vertex -0.463525 -11.4266 5
    endloop
  endfacet
  facet normal 0 0 1
    outer loop
      vertex -2.5 -12.75 5
      vertex -0.463525 -11.4266 5
      vertex -0.75 -11.299 5
    endloop
  endfacet
  facet normal 0 0 1
    outer loop
      vertex -2.5 -12.75 5
      vertex -1.5 -10 5
      vertex -2.5 -5.91517 5
    endloop
  endfacet
  facet normal 0 0 1
    outer loop
      vertex -0.156793 -11.4918 5
      vertex -2.5 -12.75 5
      vertex 2.5 -12.75 5
    endloop
  endfacet
  facet normal 0 0 1
    outer loop
      vertex -1.0037 -11.1147 5
      vertex -2.5 -12.75 5
      vertex -0.75 -11.299 5
    endloop
  endfacet
  facet normal 0 0 1
    outer loop
      vertex -1.21352 -10.8817 5
      vertex -2.5 -12.75 5
      vertex -1.0037 -11.1147 5
    endloop
  endfacet
  facet normal 0 0 1
    outer loop
      vertex -1.37032 -10.6101 5
      vertex -2.5 -12.75 5
      vertex -1.21352 -10.8817 5
    endloop
  endfacet
  facet normal 0 0 1
    outer loop
      vertex -1.46722 -10.3119 5
      vertex -2.5 -12.75 5
      vertex -1.37032 -10.6101 5
    endloop
  endfacet
  facet normal 0 0 1
    outer loop
      vertex -1.5 -10 5
      vertex -2.5 -12.75 5
      vertex -1.46722 -10.3119 5
    endloop
  endfacet
  facet normal 0 1 -0
    outer loop
      vertex 2.5 12.75 0
      vertex -2.5 12.75 5
      vertex 2.5 12.75 5
    endloop
  endfacet
  facet normal 0 1 0
    outer loop
      vertex -2.5 12.75 5
      vertex 2.5 12.75 0
      vertex -2.5 12.75 0
    endloop
  endfacet
  facet normal 0 -1 0
    outer loop
      vertex -2.5 -12.75 0
      vertex 2.5 -12.75 5
      vertex -2.5 -12.75 5
    endloop
  endfacet
  facet normal 0 -1 -0
    outer loop
      vertex 2.5 -12.75 5
      vertex -2.5 -12.75 0
      vertex 2.5 -12.75 0
    endloop
  endfacet
  facet normal 0 -0.187381 0.982287
    outer loop
      vertex -2.5 -0.971333 7.68889
      vertex 2.5 -1.92735 7.50652
      vertex 2.5 -0.971333 7.68889
    endloop
  endfacet
  facet normal 0 -0.187381 0.982287
    outer loop
      vertex 2.5 -1.92735 7.50652
      vertex -2.5 -0.971333 7.68889
      vertex -2.5 -1.92735 7.50652
    endloop
  endfacet
  facet normal -0 0.0627894 0.998027
    outer loop
      vertex -2.5 0.971333 7.68889
      vertex 2.5 0 7.75
      vertex 2.5 0.971333 7.68889
    endloop
  endfacet
  facet normal 0 0.0627894 0.998027
    outer loop
      vertex 2.5 0 7.75
      vertex -2.5 0.971333 7.68889
      vertex -2.5 0 7.75
    endloop
  endfacet
  facet normal 0 -0.309018 0.951056
    outer loop
      vertex -2.5 -1.92735 7.50652
      vertex 2.5 -2.85296 7.20577
      vertex 2.5 -1.92735 7.50652
    endloop
  endfacet
  facet normal 0 -0.309018 0.951056
    outer loop
      vertex 2.5 -2.85296 7.20577
      vertex -2.5 -1.92735 7.50652
      vertex -2.5 -2.85296 7.20577
    endloop
  endfacet
  facet normal -0 0.187381 0.982287
    outer loop
      vertex -2.5 1.92735 7.50652
      vertex 2.5 0.971333 7.68889
      vertex 2.5 1.92735 7.50652
    endloop
  endfacet
  facet normal 0 0.187381 0.982287
    outer loop
      vertex 2.5 0.971333 7.68889
      vertex -2.5 1.92735 7.50652
      vertex -2.5 0.971333 7.68889
    endloop
  endfacet
  facet normal 0 0.728969 0.684547
    outer loop
      vertex 2.5 5.91517 5
      vertex -2.5 5.30524 5.64951
      vertex 2.5 5.30524 5.64951
    endloop
  endfacet
  facet normal 0 0.728969 0.684547
    outer loop
      vertex -2.5 5.30524 5.64951
      vertex 2.5 5.91517 5
      vertex -2.5 5.91517 5
    endloop
  endfacet
  facet normal 0 -0.535828 0.844327
    outer loop
      vertex -2.5 -3.73359 6.79138
      vertex 2.5 -4.55534 6.26988
      vertex 2.5 -3.73359 6.79138
    endloop
  endfacet
  facet normal 0 -0.535828 0.844327
    outer loop
      vertex 2.5 -4.55534 6.26988
      vertex -2.5 -3.73359 6.79138
      vertex -2.5 -4.55534 6.26988
    endloop
  endfacet
  facet normal 0 -0.728969 0.684547
    outer loop
      vertex -2.5 -5.91517 5
      vertex 2.5 -5.30524 5.64951
      vertex -2.5 -5.30524 5.64951
    endloop
  endfacet
  facet normal 0 -0.728969 0.684547
    outer loop
      vertex 2.5 -5.30524 5.64951
      vertex -2.5 -5.91517 5
      vertex 2.5 -5.91517 5
    endloop
  endfacet
  facet normal -0 0.309018 0.951056
    outer loop
      vertex -2.5 2.85296 7.20577
      vertex 2.5 1.92735 7.50652
      vertex 2.5 2.85296 7.20577
    endloop
  endfacet
  facet normal 0 0.309018 0.951056
    outer loop
      vertex 2.5 1.92735 7.50652
      vertex -2.5 2.85296 7.20577
      vertex -2.5 1.92735 7.50652
    endloop
  endfacet
  facet normal 0 -0.637423 0.770514
    outer loop
      vertex -2.5 -4.55534 6.26988
      vertex 2.5 -5.30524 5.64951
      vertex 2.5 -4.55534 6.26988
    endloop
  endfacet
  facet normal 0 -0.637423 0.770514
    outer loop
      vertex 2.5 -5.30524 5.64951
      vertex -2.5 -4.55534 6.26988
      vertex -2.5 -5.30524 5.64951
    endloop
  endfacet
  facet normal -0 0.535828 0.844327
    outer loop
      vertex -2.5 4.55534 6.26988
      vertex 2.5 3.73359 6.79138
      vertex 2.5 4.55534 6.26988
    endloop
  endfacet
  facet normal 0 0.535828 0.844327
    outer loop
      vertex 2.5 3.73359 6.79138
      vertex -2.5 4.55534 6.26988
      vertex -2.5 3.73359 6.79138
    endloop
  endfacet
  facet normal 0 -0.0627894 0.998027
    outer loop
      vertex -2.5 0 7.75
      vertex 2.5 -0.971333 7.68889
      vertex 2.5 0 7.75
    endloop
  endfacet
  facet normal 0 -0.0627894 0.998027
    outer loop
      vertex 2.5 -0.971333 7.68889
      vertex -2.5 0 7.75
      vertex -2.5 -0.971333 7.68889
    endloop
  endfacet
  facet normal -0 0.637423 0.770514
    outer loop
      vertex -2.5 5.30524 5.64951
      vertex 2.5 4.55534 6.26988
      vertex 2.5 5.30524 5.64951
    endloop
  endfacet
  facet normal 0 0.637423 0.770514
    outer loop
      vertex 2.5 4.55534 6.26988
      vertex -2.5 5.30524 5.64951
      vertex -2.5 4.55534 6.26988
    endloop
  endfacet
  facet normal 0 -0.425777 0.904828
    outer loop
      vertex -2.5 -2.85296 7.20577
      vertex 2.5 -3.73359 6.79138
      vertex 2.5 -2.85296 7.20577
    endloop
  endfacet
  facet normal 0 -0.425777 0.904828
    outer loop
      vertex 2.5 -3.73359 6.79138
      vertex -2.5 -2.85296 7.20577
      vertex -2.5 -3.73359 6.79138
    endloop
  endfacet
  facet normal -0 0.425777 0.904828
    outer loop
      vertex -2.5 3.73359 6.79138
      vertex 2.5 2.85296 7.20577
      vertex 2.5 3.73359 6.79138
    endloop
  endfacet
  facet normal 0 0.425777 0.904828
    outer loop
      vertex 2.5 2.85296 7.20577
      vertex -2.5 3.73359 6.79138
      vertex -2.5 2.85296 7.20577
    endloop
  endfacet
  facet normal 0.207888 0.978153 -0
    outer loop
      vertex -0.156793 8.50822 0
      vertex -0.463525 8.57341 5
      vertex -0.156793 8.50822 5
    endloop
  endfacet
  facet normal 0.207888 0.978153 0
    outer loop
      vertex -0.463525 8.57341 5
      vertex -0.156793 8.50822 0
      vertex -0.463525 8.57341 0
    endloop
  endfacet
  facet normal 0.951048 -0.309043 0
    outer loop
      vertex -1.46722 10.3119 5
      vertex -1.37032 10.6101 0
      vertex -1.37032 10.6101 5
    endloop
  endfacet
  facet normal 0.951048 -0.309043 0
    outer loop
      vertex -1.37032 10.6101 0
      vertex -1.46722 10.3119 5
      vertex -1.46722 10.3119 0
    endloop
  endfacet
  facet normal 0.994523 -0.104522 0
    outer loop
      vertex -1.5 10 5
      vertex -1.46722 10.3119 0
      vertex -1.46722 10.3119 5
    endloop
  endfacet
  facet normal 0.994523 -0.104522 0
    outer loop
      vertex -1.46722 10.3119 0
      vertex -1.5 10 5
      vertex -1.5 10 0
    endloop
  endfacet
  facet normal 0.866037 -0.49998 0
    outer loop
      vertex -1.37032 10.6101 5
      vertex -1.21352 10.8817 0
      vertex -1.21352 10.8817 5
    endloop
  endfacet
  facet normal 0.866037 -0.49998 0
    outer loop
      vertex -1.21352 10.8817 0
      vertex -1.37032 10.6101 5
      vertex -1.37032 10.6101 0
    endloop
  endfacet
  facet normal -0.743104 -0.669176 0
    outer loop
      vertex 1.21352 10.8817 0
      vertex 1.0037 11.1147 5
      vertex 1.0037 11.1147 0
    endloop
  endfacet
  facet normal -0.743104 -0.669176 0
    outer loop
      vertex 1.0037 11.1147 5
      vertex 1.21352 10.8817 0
      vertex 1.21352 10.8817 5
    endloop
  endfacet
  facet normal 0 -1 0
    outer loop
      vertex -0.156793 11.4918 0
      vertex 0.156793 11.4918 5
      vertex -0.156793 11.4918 5
    endloop
  endfacet
  facet normal 0 -1 -0
    outer loop
      vertex 0.156793 11.4918 5
      vertex -0.156793 11.4918 0
      vertex 0.156793 11.4918 0
    endloop
  endfacet
  facet normal -0.994523 -0.104522 0
    outer loop
      vertex 1.5 10 0
      vertex 1.46722 10.3119 5
      vertex 1.46722 10.3119 0
    endloop
  endfacet
  facet normal -0.994523 -0.104522 0
    outer loop
      vertex 1.46722 10.3119 5
      vertex 1.5 10 0
      vertex 1.5 10 5
    endloop
  endfacet
  facet normal -0.406745 0.913542 0
    outer loop
      vertex 0.75 8.70096 0
      vertex 0.463525 8.57341 5
      vertex 0.75 8.70096 5
    endloop
  endfacet
  facet normal -0.406745 0.913542 0
    outer loop
      vertex 0.463525 8.57341 5
      vertex 0.75 8.70096 0
      vertex 0.463525 8.57341 0
    endloop
  endfacet
  facet normal -0.406878 -0.913483 0
    outer loop
      vertex 0.463525 11.4266 0
      vertex 0.75 11.299 5
      vertex 0.463525 11.4266 5
    endloop
  endfacet
  facet normal -0.406878 -0.913483 -0
    outer loop
      vertex 0.75 11.299 5
      vertex 0.463525 11.4266 0
      vertex 0.75 11.299 0
    endloop
  endfacet
  facet normal -0.587777 0.809023 0
    outer loop
      vertex 1.0037 8.88528 0
      vertex 0.75 8.70096 5
      vertex 1.0037 8.88528 5
    endloop
  endfacet
  facet normal -0.587777 0.809023 0
    outer loop
      vertex 0.75 8.70096 5
      vertex 1.0037 8.88528 0
      vertex 0.75 8.70096 0
    endloop
  endfacet
  facet normal 0.406745 0.913542 -0
    outer loop
      vertex -0.463525 8.57341 0
      vertex -0.75 8.70096 5
      vertex -0.463525 8.57341 5
    endloop
  endfacet
  facet normal 0.406745 0.913542 0
    outer loop
      vertex -0.75 8.70096 5
      vertex -0.463525 8.57341 0
      vertex -0.75 8.70096 0
    endloop
  endfacet
  facet normal 0.406878 -0.913483 0
    outer loop
      vertex -0.75 11.299 0
      vertex -0.463525 11.4266 5
      vertex -0.75 11.299 5
    endloop
  endfacet
  facet normal 0.406878 -0.913483 0
    outer loop
      vertex -0.463525 11.4266 5
      vertex -0.75 11.299 0
      vertex -0.463525 11.4266 0
    endloop
  endfacet
  facet normal 0.743104 -0.669176 0
    outer loop
      vertex -1.21352 10.8817 5
      vertex -1.0037 11.1147 0
      vertex -1.0037 11.1147 5
    endloop
  endfacet
  facet normal 0.743104 -0.669176 0
    outer loop
      vertex -1.0037 11.1147 0
      vertex -1.21352 10.8817 5
      vertex -1.21352 10.8817 0
    endloop
  endfacet
  facet normal 0.743161 0.669113 0
    outer loop
      vertex -1.0037 8.88528 5
      vertex -1.21352 9.11832 0
      vertex -1.21352 9.11832 5
    endloop
  endfacet
  facet normal 0.743161 0.669113 0
    outer loop
      vertex -1.21352 9.11832 0
      vertex -1.0037 8.88528 5
      vertex -1.0037 8.88528 0
    endloop
  endfacet
  facet normal -0.866037 -0.49998 0
    outer loop
      vertex 1.37032 10.6101 0
      vertex 1.21352 10.8817 5
      vertex 1.21352 10.8817 0
    endloop
  endfacet
  facet normal -0.866037 -0.49998 0
    outer loop
      vertex 1.21352 10.8817 5
      vertex 1.37032 10.6101 0
      vertex 1.37032 10.6101 5
    endloop
  endfacet
  facet normal 0.587777 0.809023 -0
    outer loop
      vertex -0.75 8.70096 0
      vertex -1.0037 8.88528 5
      vertex -0.75 8.70096 5
    endloop
  endfacet
  facet normal 0.587777 0.809023 0
    outer loop
      vertex -1.0037 8.88528 5
      vertex -0.75 8.70096 0
      vertex -1.0037 8.88528 0
    endloop
  endfacet
  facet normal 0.994522 0.104532 0
    outer loop
      vertex -1.46722 9.68813 5
      vertex -1.5 10 0
      vertex -1.5 10 5
    endloop
  endfacet
  facet normal 0.994522 0.104532 0
    outer loop
      vertex -1.5 10 0
      vertex -1.46722 9.68813 5
      vertex -1.46722 9.68813 0
    endloop
  endfacet
  facet normal 0.95106 0.309005 0
    outer loop
      vertex -1.37032 9.38989 5
      vertex -1.46722 9.68813 0
      vertex -1.46722 9.68813 5
    endloop
  endfacet
  facet normal 0.95106 0.309005 0
    outer loop
      vertex -1.46722 9.68813 0
      vertex -1.37032 9.38989 5
      vertex -1.37032 9.38989 0
    endloop
  endfacet
  facet normal 0.866013 0.500021 0
    outer loop
      vertex -1.21352 9.11832 5
      vertex -1.37032 9.38989 0
      vertex -1.37032 9.38989 5
    endloop
  endfacet
  facet normal 0.866013 0.500021 0
    outer loop
      vertex -1.37032 9.38989 0
      vertex -1.21352 9.11832 5
      vertex -1.21352 9.11832 0
    endloop
  endfacet
  facet normal -0.743161 0.669113 0
    outer loop
      vertex 1.0037 8.88528 0
      vertex 1.21352 9.11832 5
      vertex 1.21352 9.11832 0
    endloop
  endfacet
  facet normal -0.743161 0.669113 0
    outer loop
      vertex 1.21352 9.11832 5
      vertex 1.0037 8.88528 0
      vertex 1.0037 8.88528 5
    endloop
  endfacet
  facet normal 0.207918 -0.978146 0
    outer loop
      vertex -0.463525 11.4266 0
      vertex -0.156793 11.4918 5
      vertex -0.463525 11.4266 5
    endloop
  endfacet
  facet normal 0.207918 -0.978146 0
    outer loop
      vertex -0.156793 11.4918 5
      vertex -0.463525 11.4266 0
      vertex -0.156793 11.4918 0
    endloop
  endfacet
  facet normal 0.587735 -0.809053 0
    outer loop
      vertex -1.0037 11.1147 0
      vertex -0.75 11.299 5
      vertex -1.0037 11.1147 5
    endloop
  endfacet
  facet normal 0.587735 -0.809053 0
    outer loop
      vertex -0.75 11.299 5
      vertex -1.0037 11.1147 0
      vertex -0.75 11.299 0
    endloop
  endfacet
  facet normal -0.994522 0.104532 0
    outer loop
      vertex 1.46722 9.68813 0
      vertex 1.5 10 5
      vertex 1.5 10 0
    endloop
  endfacet
  facet normal -0.994522 0.104532 0
    outer loop
      vertex 1.5 10 5
      vertex 1.46722 9.68813 0
      vertex 1.46722 9.68813 5
    endloop
  endfacet
  facet normal 0 1 -0
    outer loop
      vertex 0.156793 8.50822 0
      vertex -0.156793 8.50822 5
      vertex 0.156793 8.50822 5
    endloop
  endfacet
  facet normal 0 1 0
    outer loop
      vertex -0.156793 8.50822 5
      vertex 0.156793 8.50822 0
      vertex -0.156793 8.50822 0
    endloop
  endfacet
  facet normal -0.587735 -0.809053 0
    outer loop
      vertex 0.75 11.299 0
      vertex 1.0037 11.1147 5
      vertex 0.75 11.299 5
    endloop
  endfacet
  facet normal -0.587735 -0.809053 -0
    outer loop
      vertex 1.0037 11.1147 5
      vertex 0.75 11.299 0
      vertex 1.0037 11.1147 0
    endloop
  endfacet
  facet normal -0.95106 0.309005 0
    outer loop
      vertex 1.37032 9.38989 0
      vertex 1.46722 9.68813 5
      vertex 1.46722 9.68813 0
    endloop
  endfacet
  facet normal -0.95106 0.309005 0
    outer loop
      vertex 1.46722 9.68813 5
      vertex 1.37032 9.38989 0
      vertex 1.37032 9.38989 5
    endloop
  endfacet
  facet normal -0.207918 -0.978146 0
    outer loop
      vertex 0.156793 11.4918 0
      vertex 0.463525 11.4266 5
      vertex 0.156793 11.4918 5
    endloop
  endfacet
  facet normal -0.207918 -0.978146 -0
    outer loop
      vertex 0.463525 11.4266 5
      vertex 0.156793 11.4918 0
      vertex 0.463525 11.4266 0
    endloop
  endfacet
  facet normal -0.866013 0.500021 0
    outer loop
      vertex 1.21352 9.11832 0
      vertex 1.37032 9.38989 5
      vertex 1.37032 9.38989 0
    endloop
  endfacet
  facet normal -0.866013 0.500021 0
    outer loop
      vertex 1.37032 9.38989 5
      vertex 1.21352 9.11832 0
      vertex 1.21352 9.11832 5
    endloop
  endfacet
  facet normal -0.951048 -0.309043 0
    outer loop
      vertex 1.46722 10.3119 0
      vertex 1.37032 10.6101 5
      vertex 1.37032 10.6101 0
    endloop
  endfacet
  facet normal -0.951048 -0.309043 0
    outer loop
      vertex 1.37032 10.6101 5
      vertex 1.46722 10.3119 0
      vertex 1.46722 10.3119 5
    endloop
  endfacet
  facet normal -0.207888 0.978153 0
    outer loop
      vertex 0.463525 8.57341 0
      vertex 0.156793 8.50822 5
      vertex 0.463525 8.57341 5
    endloop
  endfacet
  facet normal -0.207888 0.978153 0
    outer loop
      vertex 0.156793 8.50822 5
      vertex 0.463525 8.57341 0
      vertex 0.156793 8.50822 0
    endloop
  endfacet
  facet normal -0.994523 0.104522 0
    outer loop
      vertex 1.46722 -10.3119 0
      vertex 1.5 -10 5
      vertex 1.5 -10 0
    endloop
  endfacet
  facet normal -0.994523 0.104522 0
    outer loop
      vertex 1.5 -10 5
      vertex 1.46722 -10.3119 0
      vertex 1.46722 -10.3119 5
    endloop
  endfacet
  facet normal 0.743161 -0.669113 0
    outer loop
      vertex -1.21352 -9.11832 5
      vertex -1.0037 -8.88528 0
      vertex -1.0037 -8.88528 5
    endloop
  endfacet
  facet normal 0.743161 -0.669113 0
    outer loop
      vertex -1.0037 -8.88528 0
      vertex -1.21352 -9.11832 5
      vertex -1.21352 -9.11832 0
    endloop
  endfacet
  facet normal 0.587777 -0.809023 0
    outer loop
      vertex -1.0037 -8.88528 0
      vertex -0.75 -8.70096 5
      vertex -1.0037 -8.88528 5
    endloop
  endfacet
  facet normal 0.587777 -0.809023 0
    outer loop
      vertex -0.75 -8.70096 5
      vertex -1.0037 -8.88528 0
      vertex -0.75 -8.70096 0
    endloop
  endfacet
  facet normal 0.207888 -0.978153 0
    outer loop
      vertex -0.463525 -8.57341 0
      vertex -0.156793 -8.50822 5
      vertex -0.463525 -8.57341 5
    endloop
  endfacet
  facet normal 0.207888 -0.978153 0
    outer loop
      vertex -0.156793 -8.50822 5
      vertex -0.463525 -8.57341 0
      vertex -0.156793 -8.50822 0
    endloop
  endfacet
  facet normal 0.994523 0.104522 0
    outer loop
      vertex -1.46722 -10.3119 5
      vertex -1.5 -10 0
      vertex -1.5 -10 5
    endloop
  endfacet
  facet normal 0.994523 0.104522 0
    outer loop
      vertex -1.5 -10 0
      vertex -1.46722 -10.3119 5
      vertex -1.46722 -10.3119 0
    endloop
  endfacet
  facet normal 0.866013 -0.500021 0
    outer loop
      vertex -1.37032 -9.38989 5
      vertex -1.21352 -9.11832 0
      vertex -1.21352 -9.11832 5
    endloop
  endfacet
  facet normal 0.866013 -0.500021 0
    outer loop
      vertex -1.21352 -9.11832 0
      vertex -1.37032 -9.38989 5
      vertex -1.37032 -9.38989 0
    endloop
  endfacet
  facet normal 0 -1 0
    outer loop
      vertex -0.156793 -8.50822 0
      vertex 0.156793 -8.50822 5
      vertex -0.156793 -8.50822 5
    endloop
  endfacet
  facet normal 0 -1 -0
    outer loop
      vertex 0.156793 -8.50822 5
      vertex -0.156793 -8.50822 0
      vertex 0.156793 -8.50822 0
    endloop
  endfacet
  facet normal -0.743161 -0.669113 0
    outer loop
      vertex 1.21352 -9.11832 0
      vertex 1.0037 -8.88528 5
      vertex 1.0037 -8.88528 0
    endloop
  endfacet
  facet normal -0.743161 -0.669113 0
    outer loop
      vertex 1.0037 -8.88528 5
      vertex 1.21352 -9.11832 0
      vertex 1.21352 -9.11832 5
    endloop
  endfacet
  facet normal -0.866013 -0.500021 0
    outer loop
      vertex 1.37032 -9.38989 0
      vertex 1.21352 -9.11832 5
      vertex 1.21352 -9.11832 0
    endloop
  endfacet
  facet normal -0.866013 -0.500021 0
    outer loop
      vertex 1.21352 -9.11832 5
      vertex 1.37032 -9.38989 0
      vertex 1.37032 -9.38989 5
    endloop
  endfacet
  facet normal 0.994522 -0.104532 0
    outer loop
      vertex -1.5 -10 5
      vertex -1.46722 -9.68813 0
      vertex -1.46722 -9.68813 5
    endloop
  endfacet
  facet normal 0.994522 -0.104532 0
    outer loop
      vertex -1.46722 -9.68813 0
      vertex -1.5 -10 5
      vertex -1.5 -10 0
    endloop
  endfacet
  facet normal 0.587735 0.809053 -0
    outer loop
      vertex -0.75 -11.299 0
      vertex -1.0037 -11.1147 5
      vertex -0.75 -11.299 5
    endloop
  endfacet
  facet normal 0.587735 0.809053 0
    outer loop
      vertex -1.0037 -11.1147 5
      vertex -0.75 -11.299 0
      vertex -1.0037 -11.1147 0
    endloop
  endfacet
  facet normal 0.95106 -0.309005 0
    outer loop
      vertex -1.46722 -9.68813 5
      vertex -1.37032 -9.38989 0
      vertex -1.37032 -9.38989 5
    endloop
  endfacet
  facet normal 0.95106 -0.309005 0
    outer loop
      vertex -1.37032 -9.38989 0
      vertex -1.46722 -9.68813 5
      vertex -1.46722 -9.68813 0
    endloop
  endfacet
  facet normal -0.743104 0.669176 0
    outer loop
      vertex 1.0037 -11.1147 0
      vertex 1.21352 -10.8817 5
      vertex 1.21352 -10.8817 0
    endloop
  endfacet
  facet normal -0.743104 0.669176 0
    outer loop
      vertex 1.21352 -10.8817 5
      vertex 1.0037 -11.1147 0
      vertex 1.0037 -11.1147 5
    endloop
  endfacet
  facet normal -0.587777 -0.809023 0
    outer loop
      vertex 0.75 -8.70096 0
      vertex 1.0037 -8.88528 5
      vertex 0.75 -8.70096 5
    endloop
  endfacet
  facet normal -0.587777 -0.809023 -0
    outer loop
      vertex 1.0037 -8.88528 5
      vertex 0.75 -8.70096 0
      vertex 1.0037 -8.88528 0
    endloop
  endfacet
  facet normal -0.207888 -0.978153 0
    outer loop
      vertex 0.156793 -8.50822 0
      vertex 0.463525 -8.57341 5
      vertex 0.156793 -8.50822 5
    endloop
  endfacet
  facet normal -0.207888 -0.978153 -0
    outer loop
      vertex 0.463525 -8.57341 5
      vertex 0.156793 -8.50822 0
      vertex 0.463525 -8.57341 0
    endloop
  endfacet
  facet normal 0.406745 -0.913542 0
    outer loop
      vertex -0.75 -8.70096 0
      vertex -0.463525 -8.57341 5
      vertex -0.75 -8.70096 5
    endloop
  endfacet
  facet normal 0.406745 -0.913542 0
    outer loop
      vertex -0.463525 -8.57341 5
      vertex -0.75 -8.70096 0
      vertex -0.463525 -8.57341 0
    endloop
  endfacet
  facet normal 0.406878 0.913483 -0
    outer loop
      vertex -0.463525 -11.4266 0
      vertex -0.75 -11.299 5
      vertex -0.463525 -11.4266 5
    endloop
  endfacet
  facet normal 0.406878 0.913483 0
    outer loop
      vertex -0.75 -11.299 5
      vertex -0.463525 -11.4266 0
      vertex -0.75 -11.299 0
    endloop
  endfacet
  facet normal 0.866037 0.49998 0
    outer loop
      vertex -1.21352 -10.8817 5
      vertex -1.37032 -10.6101 0
      vertex -1.37032 -10.6101 5
    endloop
  endfacet
  facet normal 0.866037 0.49998 0
    outer loop
      vertex -1.37032 -10.6101 0
      vertex -1.21352 -10.8817 5
      vertex -1.21352 -10.8817 0
    endloop
  endfacet
  facet normal -0.994522 -0.104532 0
    outer loop
      vertex 1.5 -10 0
      vertex 1.46722 -9.68813 5
      vertex 1.46722 -9.68813 0
    endloop
  endfacet
  facet normal -0.994522 -0.104532 0
    outer loop
      vertex 1.46722 -9.68813 5
      vertex 1.5 -10 0
      vertex 1.5 -10 5
    endloop
  endfacet
  facet normal 0.743104 0.669176 0
    outer loop
      vertex -1.0037 -11.1147 5
      vertex -1.21352 -10.8817 0
      vertex -1.21352 -10.8817 5
    endloop
  endfacet
  facet normal 0.743104 0.669176 0
    outer loop
      vertex -1.21352 -10.8817 0
      vertex -1.0037 -11.1147 5
      vertex -1.0037 -11.1147 0
    endloop
  endfacet
  facet normal 0 1 -0
    outer loop
      vertex 0.156793 -11.4918 0
      vertex -0.156793 -11.4918 5
      vertex 0.156793 -11.4918 5
    endloop
  endfacet
  facet normal 0 1 0
    outer loop
      vertex -0.156793 -11.4918 5
      vertex 0.156793 -11.4918 0
      vertex -0.156793 -11.4918 0
    endloop
  endfacet
  facet normal -0.406878 0.913483 0
    outer loop
      vertex 0.75 -11.299 0
      vertex 0.463525 -11.4266 5
      vertex 0.75 -11.299 5
    endloop
  endfacet
  facet normal -0.406878 0.913483 0
    outer loop
      vertex 0.463525 -11.4266 5
      vertex 0.75 -11.299 0
      vertex 0.463525 -11.4266 0
    endloop
  endfacet
  facet normal -0.406745 -0.913542 0
    outer loop
      vertex 0.463525 -8.57341 0
      vertex 0.75 -8.70096 5
      vertex 0.463525 -8.57341 5
    endloop
  endfacet
  facet normal -0.406745 -0.913542 -0
    outer loop
      vertex 0.75 -8.70096 5
      vertex 0.463525 -8.57341 0
      vertex 0.75 -8.70096 0
    endloop
  endfacet
  facet normal -0.951048 0.309043 0
    outer loop
      vertex 1.37032 -10.6101 0
      vertex 1.46722 -10.3119 5
      vertex 1.46722 -10.3119 0
    endloop
  endfacet
  facet normal -0.951048 0.309043 0
    outer loop
      vertex 1.46722 -10.3119 5
      vertex 1.37032 -10.6101 0
      vertex 1.37032 -10.6101 5
    endloop
  endfacet
  facet normal 0.951048 0.309043 0
    outer loop
      vertex -1.37032 -10.6101 5
      vertex -1.46722 -10.3119 0
      vertex -1.46722 -10.3119 5
    endloop
  endfacet
  facet normal 0.951048 0.309043 0
    outer loop
      vertex -1.46722 -10.3119 0
      vertex -1.37032 -10.6101 5
      vertex -1.37032 -10.6101 0
    endloop
  endfacet
  facet normal 0.207918 0.978146 -0
    outer loop
      vertex -0.156793 -11.4918 0
      vertex -0.463525 -11.4266 5
      vertex -0.156793 -11.4918 5
    endloop
  endfacet
  facet normal 0.207918 0.978146 0
    outer loop
      vertex -0.463525 -11.4266 5
      vertex -0.156793 -11.4918 0
      vertex -0.463525 -11.4266 0
    endloop
  endfacet
  facet normal -0.866037 0.49998 0
    outer loop
      vertex 1.21352 -10.8817 0
      vertex 1.37032 -10.6101 5
      vertex 1.37032 -10.6101 0
    endloop
  endfacet
  facet normal -0.866037 0.49998 0
    outer loop
      vertex 1.37032 -10.6101 5
      vertex 1.21352 -10.8817 0
      vertex 1.21352 -10.8817 5
    endloop
  endfacet
  facet normal -0.587735 0.809053 0
    outer loop
      vertex 1.0037 -11.1147 0
      vertex 0.75 -11.299 5
      vertex 1.0037 -11.1147 5
    endloop
  endfacet
  facet normal -0.587735 0.809053 0
    outer loop
      vertex 0.75 -11.299 5
      vertex 1.0037 -11.1147 0
      vertex 0.75 -11.299 0
    endloop
  endfacet
  facet normal -0.207918 0.978146 0
    outer loop
      vertex 0.463525 -11.4266 0
      vertex 0.156793 -11.4918 5
      vertex 0.463525 -11.4266 5
    endloop
  endfacet
  facet normal -0.207918 0.978146 0
    outer loop
      vertex 0.156793 -11.4918 5
      vertex 0.463525 -11.4266 0
      vertex 0.156793 -11.4918 0
    endloop
  endfacet
  facet normal -0.95106 -0.309005 0
    outer loop
      vertex 1.46722 -9.68813 0
      vertex 1.37032 -9.38989 5
      vertex 1.37032 -9.38989 0
    endloop
  endfacet
  facet normal -0.95106 -0.309005 0
    outer loop
      vertex 1.37032 -9.38989 5
      vertex 1.46722 -9.68813 0
      vertex 1.46722 -9.68813 5
    endloop
  endfacet
  facet normal 0 -0.187404 -0.982283
    outer loop
      vertex -2.5 0.344666 2.72832
      vertex 2.5 0.683897 2.6636
      vertex 2.5 0.344666 2.72832
    endloop
  endfacet
  facet normal -0 -0.187404 -0.982283
    outer loop
      vertex 2.5 0.683897 2.6636
      vertex -2.5 0.344666 2.72832
      vertex -2.5 0.683897 2.6636
    endloop
  endfacet
  facet normal 0 -0.876309 -0.481749
    outer loop
      vertex -2.5 2.48827 1.17089
      vertex 2.5 2.3219 1.47352
      vertex -2.5 2.3219 1.47352
    endloop
  endfacet
  facet normal 0 -0.876309 -0.481749
    outer loop
      vertex 2.5 2.3219 1.47352
      vertex -2.5 2.48827 1.17089
      vertex 2.5 2.48827 1.17089
    endloop
  endfacet
  facet normal 0 -0.809025 -0.587774
    outer loop
      vertex -2.5 2.3219 1.47352
      vertex 2.5 2.11891 1.75292
      vertex -2.5 2.11891 1.75292
    endloop
  endfacet
  facet normal 0 -0.809025 -0.587774
    outer loop
      vertex 2.5 2.11891 1.75292
      vertex -2.5 2.3219 1.47352
      vertex 2.5 2.3219 1.47352
    endloop
  endfacet
  facet normal 0 0.728954 -0.684563
    outer loop
      vertex 2.5 -2.11891 1.75292
      vertex -2.5 -1.8825 2.00466
      vertex 2.5 -1.8825 2.00466
    endloop
  endfacet
  facet normal 0 0.728954 -0.684563
    outer loop
      vertex -2.5 -1.8825 2.00466
      vertex 2.5 -2.11891 1.75292
      vertex -2.5 -2.11891 1.75292
    endloop
  endfacet
  facet normal 0 -1 0
    outer loop
      vertex -2.5 2.74457 0
      vertex 2.5 2.74457 0.172674
      vertex -2.5 2.74457 0.172674
    endloop
  endfacet
  facet normal 0 -1 -0
    outer loop
      vertex 2.5 2.74457 0.172674
      vertex -2.5 2.74457 0
      vertex 2.5 2.74457 0
    endloop
  endfacet
  facet normal 0 -0.308997 -0.951063
    outer loop
      vertex -2.5 0.683897 2.6636
      vertex 2.5 1.01234 2.55689
      vertex 2.5 0.683897 2.6636
    endloop
  endfacet
  facet normal -0 -0.308997 -0.951063
    outer loop
      vertex 2.5 1.01234 2.55689
      vertex -2.5 0.683897 2.6636
      vertex -2.5 1.01234 2.55689
    endloop
  endfacet
  facet normal 0 0.968586 -0.248678
    outer loop
      vertex 2.5 -2.70129 0.515299
      vertex -2.5 -2.61541 0.849797
      vertex 2.5 -2.61541 0.849797
    endloop
  endfacet
  facet normal 0 0.968586 -0.248678
    outer loop
      vertex -2.5 -2.61541 0.849797
      vertex 2.5 -2.70129 0.515299
      vertex -2.5 -2.70129 0.515299
    endloop
  endfacet
  facet normal 0 0.992116 -0.125323
    outer loop
      vertex 2.5 -2.74457 0.172674
      vertex -2.5 -2.70129 0.515299
      vertex 2.5 -2.70129 0.515299
    endloop
  endfacet
  facet normal 0 0.992116 -0.125323
    outer loop
      vertex -2.5 -2.70129 0.515299
      vertex 2.5 -2.74457 0.172674
      vertex -2.5 -2.74457 0.172674
    endloop
  endfacet
  facet normal 0 0.637443 -0.770497
    outer loop
      vertex -2.5 -1.8825 2.00466
      vertex 2.5 -1.61641 2.2248
      vertex 2.5 -1.8825 2.00466
    endloop
  endfacet
  facet normal 0 0.637443 -0.770497
    outer loop
      vertex 2.5 -1.61641 2.2248
      vertex -2.5 -1.8825 2.00466
      vertex -2.5 -1.61641 2.2248
    endloop
  endfacet
  facet normal 0 -0.929766 -0.36815
    outer loop
      vertex -2.5 2.61541 0.849797
      vertex 2.5 2.48827 1.17089
      vertex -2.5 2.48827 1.17089
    endloop
  endfacet
  facet normal 0 -0.929766 -0.36815
    outer loop
      vertex 2.5 2.48827 1.17089
      vertex -2.5 2.61541 0.849797
      vertex 2.5 2.61541 0.849797
    endloop
  endfacet
  facet normal 0 0.535809 -0.844339
    outer loop
      vertex -2.5 -1.61641 2.2248
      vertex 2.5 -1.32482 2.40984
      vertex 2.5 -1.61641 2.2248
    endloop
  endfacet
  facet normal 0 0.535809 -0.844339
    outer loop
      vertex 2.5 -1.32482 2.40984
      vertex -2.5 -1.61641 2.2248
      vertex -2.5 -1.32482 2.40984
    endloop
  endfacet
  facet normal 0 -0.968586 -0.248678
    outer loop
      vertex -2.5 2.70129 0.515299
      vertex 2.5 2.61541 0.849797
      vertex -2.5 2.61541 0.849797
    endloop
  endfacet
  facet normal 0 -0.968586 -0.248678
    outer loop
      vertex 2.5 2.61541 0.849797
      vertex -2.5 2.70129 0.515299
      vertex 2.5 2.70129 0.515299
    endloop
  endfacet
  facet normal 0 0.929766 -0.36815
    outer loop
      vertex 2.5 -2.61541 0.849797
      vertex -2.5 -2.48827 1.17089
      vertex 2.5 -2.48827 1.17089
    endloop
  endfacet
  facet normal 0 0.929766 -0.36815
    outer loop
      vertex -2.5 -2.48827 1.17089
      vertex 2.5 -2.61541 0.849797
      vertex -2.5 -2.61541 0.849797
    endloop
  endfacet
  facet normal 0 0.425798 -0.904818
    outer loop
      vertex -2.5 -1.32482 2.40984
      vertex 2.5 -1.01234 2.55689
      vertex 2.5 -1.32482 2.40984
    endloop
  endfacet
  facet normal 0 0.425798 -0.904818
    outer loop
      vertex 2.5 -1.01234 2.55689
      vertex -2.5 -1.32482 2.40984
      vertex -2.5 -1.01234 2.55689
    endloop
  endfacet
  facet normal 0 1 -0
    outer loop
      vertex 2.5 -2.74457 0
      vertex -2.5 -2.74457 0.172674
      vertex 2.5 -2.74457 0.172674
    endloop
  endfacet
  facet normal 0 1 0
    outer loop
      vertex -2.5 -2.74457 0.172674
      vertex 2.5 -2.74457 0
      vertex -2.5 -2.74457 0
    endloop
  endfacet
  facet normal 0 -0.728954 -0.684563
    outer loop
      vertex -2.5 2.11891 1.75292
      vertex 2.5 1.8825 2.00466
      vertex -2.5 1.8825 2.00466
    endloop
  endfacet
  facet normal 0 -0.728954 -0.684563
    outer loop
      vertex 2.5 1.8825 2.00466
      vertex -2.5 2.11891 1.75292
      vertex 2.5 2.11891 1.75292
    endloop
  endfacet
  facet normal 0 -0.992116 -0.125323
    outer loop
      vertex -2.5 2.74457 0.172674
      vertex 2.5 2.70129 0.515299
      vertex -2.5 2.70129 0.515299
    endloop
  endfacet
  facet normal 0 -0.992116 -0.125323
    outer loop
      vertex 2.5 2.70129 0.515299
      vertex -2.5 2.74457 0.172674
      vertex 2.5 2.74457 0.172674
    endloop
  endfacet
  facet normal 0 0.187404 -0.982283
    outer loop
      vertex -2.5 -0.683897 2.6636
      vertex 2.5 -0.344666 2.72832
      vertex 2.5 -0.683897 2.6636
    endloop
  endfacet
  facet normal 0 0.187404 -0.982283
    outer loop
      vertex 2.5 -0.344666 2.72832
      vertex -2.5 -0.683897 2.6636
      vertex -2.5 -0.344666 2.72832
    endloop
  endfacet
  facet normal 0 0.308997 -0.951063
    outer loop
      vertex -2.5 -1.01234 2.55689
      vertex 2.5 -0.683897 2.6636
      vertex 2.5 -1.01234 2.55689
    endloop
  endfacet
  facet normal 0 0.308997 -0.951063
    outer loop
      vertex 2.5 -0.683897 2.6636
      vertex -2.5 -1.01234 2.55689
      vertex -2.5 -0.683897 2.6636
    endloop
  endfacet
  facet normal 0 -0.535809 -0.844339
    outer loop
      vertex -2.5 1.32482 2.40984
      vertex 2.5 1.61641 2.2248
      vertex 2.5 1.32482 2.40984
    endloop
  endfacet
  facet normal -0 -0.535809 -0.844339
    outer loop
      vertex 2.5 1.61641 2.2248
      vertex -2.5 1.32482 2.40984
      vertex -2.5 1.61641 2.2248
    endloop
  endfacet
  facet normal 0 -0.637443 -0.770497
    outer loop
      vertex -2.5 1.61641 2.2248
      vertex 2.5 1.8825 2.00466
      vertex 2.5 1.61641 2.2248
    endloop
  endfacet
  facet normal -0 -0.637443 -0.770497
    outer loop
      vertex 2.5 1.8825 2.00466
      vertex -2.5 1.61641 2.2248
      vertex -2.5 1.8825 2.00466
    endloop
  endfacet
  facet normal 0 0.809025 -0.587774
    outer loop
      vertex 2.5 -2.3219 1.47352
      vertex -2.5 -2.11891 1.75292
      vertex 2.5 -2.11891 1.75292
    endloop
  endfacet
  facet normal 0 0.809025 -0.587774
    outer loop
      vertex -2.5 -2.11891 1.75292
      vertex 2.5 -2.3219 1.47352
      vertex -2.5 -2.3219 1.47352
    endloop
  endfacet
  facet normal 0 -0.425798 -0.904818
    outer loop
      vertex -2.5 1.01234 2.55689
      vertex 2.5 1.32482 2.40984
      vertex 2.5 1.01234 2.55689
    endloop
  endfacet
  facet normal -0 -0.425798 -0.904818
    outer loop
      vertex 2.5 1.32482 2.40984
      vertex -2.5 1.01234 2.55689
      vertex -2.5 1.32482 2.40984
    endloop
  endfacet
  facet normal 0 -0.0627774 -0.998028
    outer loop
      vertex -2.5 0 2.75
      vertex 2.5 0.344666 2.72832
      vertex 2.5 0 2.75
    endloop
  endfacet
  facet normal -0 -0.0627774 -0.998028
    outer loop
      vertex 2.5 0.344666 2.72832
      vertex -2.5 0 2.75
      vertex -2.5 0.344666 2.72832
    endloop
  endfacet
  facet normal 0 0.0627774 -0.998028
    outer loop
      vertex -2.5 -0.344666 2.72832
      vertex 2.5 0 2.75
      vertex 2.5 -0.344666 2.72832
    endloop
  endfacet
  facet normal 0 0.0627774 -0.998028
    outer loop
      vertex 2.5 0 2.75
      vertex -2.5 -0.344666 2.72832
      vertex -2.5 0 2.75
    endloop
  endfacet
  facet normal 0 0.876309 -0.481749
    outer loop
      vertex 2.5 -2.48827 1.17089
      vertex -2.5 -2.3219 1.47352
      vertex 2.5 -2.3219 1.47352
    endloop
  endfacet
  facet normal 0 0.876309 -0.481749
    outer loop
      vertex -2.5 -2.3219 1.47352
      vertex 2.5 -2.48827 1.17089
      vertex -2.5 -2.48827 1.17089
    endloop
  endfacet
endsolid OpenSCAD_Model
