solid OpenSCAD_Model
  facet normal 1 -0 0
    outer loop
      vertex 88.25 40 50
      vertex 88.25 47 40
      vertex 88.25 47 50
    endloop
  endfacet
  facet normal 1 0 0
    outer loop
      vertex 88.25 47 40
      vertex 88.25 40 50
      vertex 88.25 40 40
    endloop
  endfacet
  facet normal -0 0 1
    outer loop
      vertex -88.25 47 50
      vertex 88.25 40 50
      vertex 88.25 47 50
    endloop
  endfacet
  facet normal 0 0 1
    outer loop
      vertex 88.25 40 50
      vertex -88.25 47 50
      vertex -88.25 40 50
    endloop
  endfacet
  facet normal 0 0 -1
    outer loop
      vertex 83.25 40 40
      vertex 88.25 47 40
      vertex 88.25 40 40
    endloop
  endfacet
  facet normal -0 0 -1
    outer loop
      vertex 88.25 47 40
      vertex 83.25 40 40
      vertex 83.25 47 40
    endloop
  endfacet
  facet normal 0 0 -1
    outer loop
      vertex -88.25 40 40
      vertex -83.25 47 40
      vertex -83.25 40 40
    endloop
  endfacet
  facet normal -0 0 -1
    outer loop
      vertex -83.25 47 40
      vertex -88.25 40 40
      vertex -88.25 47 40
    endloop
  endfacet
  facet normal 0 0 -1
    outer loop
      vertex -76.25 40 40
      vertex 76.25 47 40
      vertex 76.25 40 40
    endloop
  endfacet
  facet normal -0 0 -1
    outer loop
      vertex 76.25 47 40
      vertex -76.25 40 40
      vertex -76.25 47 40
    endloop
  endfacet
  facet normal -1 0 0
    outer loop
      vertex -88.25 40 40
      vertex -88.25 47 50
      vertex -88.25 47 40
    endloop
  endfacet
  facet normal -1 -0 0
    outer loop
      vertex -88.25 47 50
      vertex -88.25 40 40
      vertex -88.25 40 50
    endloop
  endfacet
  facet normal 0 1 -0
    outer loop
      vertex 76.25 47 40
      vertex -76.25 47 45
      vertex 76.25 47 45
    endloop
  endfacet
  facet normal 0 1 0
    outer loop
      vertex -76.25 47 45
      vertex 76.25 47 40
      vertex -76.25 47 40
    endloop
  endfacet
  facet normal 0 1 0
    outer loop
      vertex 76.25 47 45
      vertex 88.25 47 50
      vertex 83.25 47 45
    endloop
  endfacet
  facet normal 0 1 -0
    outer loop
      vertex 88.25 47 40
      vertex 83.25 47 45
      vertex 88.25 47 50
    endloop
  endfacet
  facet normal 0 1 0
    outer loop
      vertex 83.25 47 45
      vertex 88.25 47 40
      vertex 83.25 47 40
    endloop
  endfacet
  facet normal 0 1 0
    outer loop
      vertex 88.25 47 50
      vertex 76.25 47 45
      vertex -88.25 47 50
    endloop
  endfacet
  facet normal 0 1 -0
    outer loop
      vertex -76.25 47 45
      vertex -88.25 47 50
      vertex 76.25 47 45
    endloop
  endfacet
  facet normal 0 1 -0
    outer loop
      vertex -83.25 47 45
      vertex -88.25 47 50
      vertex -76.25 47 45
    endloop
  endfacet
  facet normal 0 1 0
    outer loop
      vertex -88.25 47 40
      vertex -83.25 47 45
      vertex -83.25 47 40
    endloop
  endfacet
  facet normal 0 1 0
    outer loop
      vertex -83.25 47 45
      vertex -88.25 47 40
      vertex -88.25 47 50
    endloop
  endfacet
  facet normal 0 -1 0
    outer loop
      vertex -76.25 40 40
      vertex 76.25 40 45
      vertex -76.25 40 45
    endloop
  endfacet
  facet normal 0 -1 -0
    outer loop
      vertex 76.25 40 45
      vertex -76.25 40 40
      vertex 76.25 40 40
    endloop
  endfacet
  facet normal 0 -1 0
    outer loop
      vertex -76.25 40 45
      vertex -88.25 40 50
      vertex -83.25 40 45
    endloop
  endfacet
  facet normal 0 -1 0
    outer loop
      vertex -88.25 40 40
      vertex -83.25 40 45
      vertex -88.25 40 50
    endloop
  endfacet
  facet normal 0 -1 -0
    outer loop
      vertex -83.25 40 45
      vertex -88.25 40 40
      vertex -83.25 40 40
    endloop
  endfacet
  facet normal 0 -1 0
    outer loop
      vertex -88.25 40 50
      vertex -76.25 40 45
      vertex 88.25 40 50
    endloop
  endfacet
  facet normal 0 -1 0
    outer loop
      vertex 76.25 40 45
      vertex 88.25 40 50
      vertex -76.25 40 45
    endloop
  endfacet
  facet normal 0 -1 0
    outer loop
      vertex 83.25 40 45
      vertex 88.25 40 50
      vertex 76.25 40 45
    endloop
  endfacet
  facet normal 0 -1 0
    outer loop
      vertex 88.25 40 40
      vertex 83.25 40 45
      vertex 83.25 40 40
    endloop
  endfacet
  facet normal 0 -1 0
    outer loop
      vertex 83.25 40 45
      vertex 88.25 40 40
      vertex 88.25 40 50
    endloop
  endfacet
  facet normal -1 0 0
    outer loop
      vertex 83.25 40 40
      vertex 83.25 47 45
      vertex 83.25 47 40
    endloop
  endfacet
  facet normal -1 -0 0
    outer loop
      vertex 83.25 47 45
      vertex 83.25 40 40
      vertex 83.25 40 45
    endloop
  endfacet
  facet normal 0 0 -1
    outer loop
      vertex 76.25 40 45
      vertex 83.25 47 45
      vertex 83.25 40 45
    endloop
  endfacet
  facet normal -0 0 -1
    outer loop
      vertex 83.25 47 45
      vertex 76.25 40 45
      vertex 76.25 47 45
    endloop
  endfacet
  facet normal 1 -0 0
    outer loop
      vertex 76.25 40 45
      vertex 76.25 47 40
      vertex 76.25 47 45
    endloop
  endfacet
  facet normal 1 0 0
    outer loop
      vertex 76.25 47 40
      vertex 76.25 40 45
      vertex 76.25 40 40
    endloop
  endfacet
  facet normal -1 0 0
    outer loop
      vertex -76.25 40 40
      vertex -76.25 47 45
      vertex -76.25 47 40
    endloop
  endfacet
  facet normal -1 -0 0
    outer loop
      vertex -76.25 47 45
      vertex -76.25 40 40
      vertex -76.25 40 45
    endloop
  endfacet
  facet normal 0 0 -1
    outer loop
      vertex -83.25 40 45
      vertex -76.25 47 45
      vertex -76.25 40 45
    endloop
  endfacet
  facet normal -0 0 -1
    outer loop
      vertex -76.25 47 45
      vertex -83.25 40 45
      vertex -83.25 47 45
    endloop
  endfacet
  facet normal 1 -0 0
    outer loop
      vertex -83.25 40 45
      vertex -83.25 47 40
      vertex -83.25 47 45
    endloop
  endfacet
  facet normal 1 0 0
    outer loop
      vertex -83.25 47 40
      vertex -83.25 40 45
      vertex -83.25 40 40
    endloop
  endfacet
endsolid OpenSCAD_Model
