solid OpenSCAD_Model
  facet normal 0 -0.187375 0.982289
    outer loop
      vertex -3 2.10143 -8.18453
      vertex -0.8 1.4 -8.31833
      vertex -0.8 2.10143 -8.18453
    endloop
  endfacet
  facet normal 0 -0.187375 0.982289
    outer loop
      vertex -0.8 1.4 -8.31833
      vertex -3 2.10143 -8.18453
      vertex -3 1.4 -8.31833
    endloop
  endfacet
  facet normal 0 -0.425778 -0.904828
    outer loop
      vertex -3 3.11065 7.85661
      vertex -0.8 4.07082 7.40479
      vertex -0.8 3.11065 7.85661
    endloop
  endfacet
  facet normal -0 -0.425778 -0.904828
    outer loop
      vertex -0.8 4.07082 7.40479
      vertex -3 3.11065 7.85661
      vertex -3 4.07082 7.40479
    endloop
  endfacet
  facet normal -0 0.425778 0.904828
    outer loop
      vertex -3 -3.11065 -7.85661
      vertex -0.8 -4.07082 -7.40479
      vertex -0.8 -3.11065 -7.85661
    endloop
  endfacet
  facet normal 0 0.425778 0.904828
    outer loop
      vertex -0.8 -4.07082 -7.40479
      vertex -3 -3.11065 -7.85661
      vertex -3 -4.07082 -7.40479
    endloop
  endfacet
  facet normal 0 -0.309021 -0.951055
    outer loop
      vertex -3 2.10143 8.18453
      vertex -0.8 3.11065 7.85661
      vertex -0.8 2.10143 8.18453
    endloop
  endfacet
  facet normal -0 -0.309021 -0.951055
    outer loop
      vertex -0.8 3.11065 7.85661
      vertex -3 2.10143 8.18453
      vertex -3 3.11065 7.85661
    endloop
  endfacet
  facet normal 0 0.63742 -0.770516
    outer loop
      vertex -3 -5.6 6.31235
      vertex -0.8 -4.96678 6.83619
      vertex -0.8 -5.6 6.31235
    endloop
  endfacet
  facet normal 0 0.63742 -0.770516
    outer loop
      vertex -0.8 -4.96678 6.83619
      vertex -3 -5.6 6.31235
      vertex -3 -4.96678 6.83619
    endloop
  endfacet
  facet normal 0 -0.63742 0.770516
    outer loop
      vertex -3 5.6 -6.31235
      vertex -0.8 4.96678 -6.83619
      vertex -0.8 5.6 -6.31235
    endloop
  endfacet
  facet normal 0 -0.63742 0.770516
    outer loop
      vertex -0.8 4.96678 -6.83619
      vertex -3 5.6 -6.31235
      vertex -3 4.96678 -6.83619
    endloop
  endfacet
  facet normal 0 -0.309021 0.951055
    outer loop
      vertex -3 3.11065 -7.85661
      vertex -0.8 2.10143 -8.18453
      vertex -0.8 3.11065 -7.85661
    endloop
  endfacet
  facet normal 0 -0.309021 0.951055
    outer loop
      vertex -0.8 2.10143 -8.18453
      vertex -3 3.11065 -7.85661
      vertex -3 2.10143 -8.18453
    endloop
  endfacet
  facet normal 0 -0.425778 0.904828
    outer loop
      vertex -3 4.07082 -7.40479
      vertex -0.8 3.11065 -7.85661
      vertex -0.8 4.07082 -7.40479
    endloop
  endfacet
  facet normal 0 -0.425778 0.904828
    outer loop
      vertex -0.8 3.11065 -7.85661
      vertex -3 4.07082 -7.40479
      vertex -3 3.11065 -7.85661
    endloop
  endfacet
  facet normal -0 0.187375 0.982289
    outer loop
      vertex -3 -1.4 -8.31833
      vertex -0.8 -2.10143 -8.18453
      vertex -0.8 -1.4 -8.31833
    endloop
  endfacet
  facet normal 0 0.187375 0.982289
    outer loop
      vertex -0.8 -2.10143 -8.18453
      vertex -3 -1.4 -8.31833
      vertex -3 -2.10143 -8.18453
    endloop
  endfacet
  facet normal 0 -0.535831 0.844325
    outer loop
      vertex -3 4.96678 -6.83619
      vertex -0.8 4.07082 -7.40479
      vertex -0.8 4.96678 -6.83619
    endloop
  endfacet
  facet normal 0 -0.535831 0.844325
    outer loop
      vertex -0.8 4.07082 -7.40479
      vertex -3 4.96678 -6.83619
      vertex -3 4.07082 -7.40479
    endloop
  endfacet
  facet normal -1 0 0
    outer loop
      vertex -0.8 -2.10143 -8.18453
      vertex -0.8 -1.4 -7.25
      vertex -0.8 -1.4 -8.31833
    endloop
  endfacet
  facet normal -1 0 0
    outer loop
      vertex -0.8 -3.11065 -7.85661
      vertex -0.8 -1.4 -7.25
      vertex -0.8 -2.10143 -8.18453
    endloop
  endfacet
  facet normal -1 0 0
    outer loop
      vertex -0.8 -4.07082 -7.40479
      vertex -0.8 -1.4 -7.25
      vertex -0.8 -3.11065 -7.85661
    endloop
  endfacet
  facet normal -1 -0 0
    outer loop
      vertex -0.8 -1.4 -7.25
      vertex -0.8 -4.07082 -7.40479
      vertex -0.8 -1.62592 -2.95753
    endloop
  endfacet
  facet normal -1 -0 0
    outer loop
      vertex -0.8 -1.62592 -2.95753
      vertex -0.8 -4.07082 -7.40479
      vertex -0.8 -1.98378 -2.73043
    endloop
  endfacet
  facet normal -1 0 0
    outer loop
      vertex -0.8 -4.96678 -6.83619
      vertex -0.8 -1.98378 -2.73043
      vertex -0.8 -4.07082 -7.40479
    endloop
  endfacet
  facet normal -1 0 0
    outer loop
      vertex -0.8 -5.6 -6.31235
      vertex -0.8 -1.98378 -2.73043
      vertex -0.8 -4.96678 -6.83619
    endloop
  endfacet
  facet normal -1 -0 0
    outer loop
      vertex -0.8 -1.98378 -2.73043
      vertex -0.8 -5.6 -6.31235
      vertex -0.8 -2.31035 -2.46027
    endloop
  endfacet
  facet normal -1 -0 0
    outer loop
      vertex -0.8 -2.31035 -2.46027
      vertex -0.8 -5.6 -6.31235
      vertex -0.8 -2.60048 -2.15131
    endloop
  endfacet
  facet normal -1 -0 0
    outer loop
      vertex -0.8 -2.60048 -2.15131
      vertex -0.8 -5.6 -6.31235
      vertex -0.8 -2.84961 -1.80842
    endloop
  endfacet
  facet normal -1 -0 0
    outer loop
      vertex -0.8 -2.84961 -1.80842
      vertex -0.8 -5.6 -6.31235
      vertex -0.8 -3.05379 -1.43701
    endloop
  endfacet
  facet normal -1 -0 0
    outer loop
      vertex -0.8 -3.20982 -1.04293
      vertex -0.8 -5.6 -6.31235
      vertex -0.8 -3.31522 -0.632411
    endloop
  endfacet
  facet normal -1 -0 0
    outer loop
      vertex -0.8 -3.05379 -1.43701
      vertex -0.8 -5.6 -6.31235
      vertex -0.8 -3.20982 -1.04293
    endloop
  endfacet
  facet normal -1 0 0
    outer loop
      vertex -0.8 1.98378 -2.73043
      vertex -0.8 5.6 -6.31235
      vertex -0.8 4.96678 -6.83619
    endloop
  endfacet
  facet normal -1 0 0
    outer loop
      vertex -0.8 5.6 -6.31235
      vertex -0.8 3.36834 -0.211918
      vertex -0.8 5.6 6.31235
    endloop
  endfacet
  facet normal -1 0 0
    outer loop
      vertex -0.8 1.98378 -2.73043
      vertex -0.8 4.96678 -6.83619
      vertex -0.8 4.07082 -7.40479
    endloop
  endfacet
  facet normal -1 0 0
    outer loop
      vertex -0.8 3.36834 0.211918
      vertex -0.8 5.6 6.31235
      vertex -0.8 3.36834 -0.211918
    endloop
  endfacet
  facet normal -1 0 0
    outer loop
      vertex -0.8 3.31522 0.632411
      vertex -0.8 5.6 6.31235
      vertex -0.8 3.36834 0.211918
    endloop
  endfacet
  facet normal -1 0 0
    outer loop
      vertex -0.8 5.6 -6.31235
      vertex -0.8 3.31522 -0.632411
      vertex -0.8 3.36834 -0.211918
    endloop
  endfacet
  facet normal -1 0 0
    outer loop
      vertex -0.8 5.6 -6.31235
      vertex -0.8 3.20982 -1.04293
      vertex -0.8 3.31522 -0.632411
    endloop
  endfacet
  facet normal -1 0 0
    outer loop
      vertex -0.8 1.4 -7.25
      vertex -0.8 4.07082 -7.40479
      vertex -0.8 3.11065 -7.85661
    endloop
  endfacet
  facet normal -1 0 0
    outer loop
      vertex -0.8 5.6 -6.31235
      vertex -0.8 3.05379 -1.43701
      vertex -0.8 3.20982 -1.04293
    endloop
  endfacet
  facet normal -1 0 0
    outer loop
      vertex -0.8 5.6 -6.31235
      vertex -0.8 2.84961 -1.80842
      vertex -0.8 3.05379 -1.43701
    endloop
  endfacet
  facet normal -1 0 0
    outer loop
      vertex -0.8 5.6 -6.31235
      vertex -0.8 2.60048 -2.15131
      vertex -0.8 2.84961 -1.80842
    endloop
  endfacet
  facet normal -1 0 0
    outer loop
      vertex -0.8 5.6 -6.31235
      vertex -0.8 2.31035 -2.46027
      vertex -0.8 2.60048 -2.15131
    endloop
  endfacet
  facet normal -1 0 0
    outer loop
      vertex -0.8 1.4 -7.25
      vertex -0.8 3.11065 -7.85661
      vertex -0.8 2.10143 -8.18453
    endloop
  endfacet
  facet normal -1 0 0
    outer loop
      vertex -0.8 4.07082 -7.40479
      vertex -0.8 1.4 -7.25
      vertex -0.8 1.62592 -2.95753
    endloop
  endfacet
  facet normal -1 0 0
    outer loop
      vertex -0.8 5.6 -6.31235
      vertex -0.8 1.98378 -2.73043
      vertex -0.8 2.31035 -2.46027
    endloop
  endfacet
  facet normal -1 0 0
    outer loop
      vertex -0.8 1.4 -7.25
      vertex -0.8 2.10143 -8.18453
      vertex -0.8 1.4 -8.31833
    endloop
  endfacet
  facet normal -1 0 0
    outer loop
      vertex -0.8 4.07082 -7.40479
      vertex -0.8 1.62592 -2.95753
      vertex -0.8 1.98378 -2.73043
    endloop
  endfacet
  facet normal -1 0 0
    outer loop
      vertex -0.8 1.4 -7.25
      vertex -0.8 1.24242 -3.13799
      vertex -0.8 1.62592 -2.95753
    endloop
  endfacet
  facet normal -1 0 0
    outer loop
      vertex -0.8 1.4 -7.25
      vertex -0.8 0.839328 -3.26897
      vertex -0.8 1.24242 -3.13799
    endloop
  endfacet
  facet normal -1 0 0
    outer loop
      vertex -0.8 1.4 -7.25
      vertex -0.8 0.422999 -3.34839
      vertex -0.8 0.839328 -3.26897
    endloop
  endfacet
  facet normal -1 0 0
    outer loop
      vertex -0.8 1.4 -7.25
      vertex -0.8 0 -3.375
      vertex -0.8 0.422999 -3.34839
    endloop
  endfacet
  facet normal -1 0 0
    outer loop
      vertex -0.8 -1.4 -7.25
      vertex -0.8 0 -3.375
      vertex -0.8 1.4 -7.25
    endloop
  endfacet
  facet normal -1 -0 0
    outer loop
      vertex -0.8 0 -3.375
      vertex -0.8 -1.4 -7.25
      vertex -0.8 -0.422999 -3.34839
    endloop
  endfacet
  facet normal -1 -0 0
    outer loop
      vertex -0.8 -0.422999 -3.34839
      vertex -0.8 -1.4 -7.25
      vertex -0.8 -0.839328 -3.26897
    endloop
  endfacet
  facet normal -1 -0 0
    outer loop
      vertex -0.8 -0.839328 -3.26897
      vertex -0.8 -1.4 -7.25
      vertex -0.8 -1.24242 -3.13799
    endloop
  endfacet
  facet normal -1 -0 0
    outer loop
      vertex -0.8 -1.24242 -3.13799
      vertex -0.8 -1.4 -7.25
      vertex -0.8 -1.62592 -2.95753
    endloop
  endfacet
  facet normal -1 0 0
    outer loop
      vertex -0.8 3.20982 1.04293
      vertex -0.8 5.6 6.31235
      vertex -0.8 3.31522 0.632411
    endloop
  endfacet
  facet normal -1 0 0
    outer loop
      vertex -0.8 3.05379 1.43701
      vertex -0.8 5.6 6.31235
      vertex -0.8 3.20982 1.04293
    endloop
  endfacet
  facet normal -1 0 0
    outer loop
      vertex -0.8 2.84961 1.80842
      vertex -0.8 5.6 6.31235
      vertex -0.8 3.05379 1.43701
    endloop
  endfacet
  facet normal -1 0 0
    outer loop
      vertex -0.8 2.60048 2.15131
      vertex -0.8 5.6 6.31235
      vertex -0.8 2.84961 1.80842
    endloop
  endfacet
  facet normal -1 0 0
    outer loop
      vertex -0.8 2.31035 2.46027
      vertex -0.8 5.6 6.31235
      vertex -0.8 2.60048 2.15131
    endloop
  endfacet
  facet normal -1 0 0
    outer loop
      vertex -0.8 1.98378 2.73043
      vertex -0.8 5.6 6.31235
      vertex -0.8 2.31035 2.46027
    endloop
  endfacet
  facet normal -1 -0 0
    outer loop
      vertex -0.8 5.6 6.31235
      vertex -0.8 1.98378 2.73043
      vertex -0.8 4.96678 6.83619
    endloop
  endfacet
  facet normal -1 -0 0
    outer loop
      vertex -0.8 4.96678 6.83619
      vertex -0.8 1.98378 2.73043
      vertex -0.8 4.07082 7.40479
    endloop
  endfacet
  facet normal -1 0 0
    outer loop
      vertex -0.8 1.62592 2.95753
      vertex -0.8 4.07082 7.40479
      vertex -0.8 1.98378 2.73043
    endloop
  endfacet
  facet normal -1 -0 0
    outer loop
      vertex -0.8 4.07082 7.40479
      vertex -0.8 1.62592 2.95753
      vertex -0.8 3.11065 7.85661
    endloop
  endfacet
  facet normal -1 0 0
    outer loop
      vertex -0.8 1.24242 3.13799
      vertex -0.8 3.11065 7.85661
      vertex -0.8 1.62592 2.95753
    endloop
  endfacet
  facet normal -1 -0 0
    outer loop
      vertex -0.8 3.11065 7.85661
      vertex -0.8 1.24242 3.13799
      vertex -0.8 2.10143 8.18453
    endloop
  endfacet
  facet normal -1 0 0
    outer loop
      vertex -0.8 0.839328 3.26897
      vertex -0.8 2.10143 8.18453
      vertex -0.8 1.24242 3.13799
    endloop
  endfacet
  facet normal -1 -0 0
    outer loop
      vertex -0.8 2.10143 8.18453
      vertex -0.8 0.839328 3.26897
      vertex -0.8 1.05907 8.38337
    endloop
  endfacet
  facet normal -1 0 0
    outer loop
      vertex -0.8 0.422999 3.34839
      vertex -0.8 1.05907 8.38337
      vertex -0.8 0.839328 3.26897
    endloop
  endfacet
  facet normal -1 0 0
    outer loop
      vertex -0.8 0 3.375
      vertex -0.8 1.05907 8.38337
      vertex -0.8 0.422999 3.34839
    endloop
  endfacet
  facet normal -1 0 0
    outer loop
      vertex -0.8 0 3.375
      vertex -0.8 0 8.45
      vertex -0.8 1.05907 8.38337
    endloop
  endfacet
  facet normal -1 0 0
    outer loop
      vertex -0.8 -0.422999 3.34839
      vertex -0.8 0 8.45
      vertex -0.8 0 3.375
    endloop
  endfacet
  facet normal -1 0 0
    outer loop
      vertex -0.8 -1.05907 8.38337
      vertex -0.8 -0.422999 3.34839
      vertex -0.8 -0.839328 3.26897
    endloop
  endfacet
  facet normal -1 0 0
    outer loop
      vertex -0.8 -0.422999 3.34839
      vertex -0.8 -1.05907 8.38337
      vertex -0.8 0 8.45
    endloop
  endfacet
  facet normal -1 0 0
    outer loop
      vertex -0.8 -2.10143 8.18453
      vertex -0.8 -0.839328 3.26897
      vertex -0.8 -1.24242 3.13799
    endloop
  endfacet
  facet normal -1 0 0
    outer loop
      vertex -0.8 -3.11065 7.85661
      vertex -0.8 -1.24242 3.13799
      vertex -0.8 -1.62592 2.95753
    endloop
  endfacet
  facet normal -1 0 0
    outer loop
      vertex -0.8 -4.07082 7.40479
      vertex -0.8 -1.62592 2.95753
      vertex -0.8 -1.98378 2.73043
    endloop
  endfacet
  facet normal -1 0 0
    outer loop
      vertex -0.8 -0.839328 3.26897
      vertex -0.8 -2.10143 8.18453
      vertex -0.8 -1.05907 8.38337
    endloop
  endfacet
  facet normal -1 0 0
    outer loop
      vertex -0.8 -5.6 6.31235
      vertex -0.8 -1.98378 2.73043
      vertex -0.8 -2.31035 2.46027
    endloop
  endfacet
  facet normal -1 0 0
    outer loop
      vertex -0.8 -5.6 6.31235
      vertex -0.8 -2.31035 2.46027
      vertex -0.8 -2.60048 2.15131
    endloop
  endfacet
  facet normal -1 0 0
    outer loop
      vertex -0.8 -5.6 6.31235
      vertex -0.8 -2.60048 2.15131
      vertex -0.8 -2.84961 1.80842
    endloop
  endfacet
  facet normal -1 0 0
    outer loop
      vertex -0.8 -5.6 6.31235
      vertex -0.8 -2.84961 1.80842
      vertex -0.8 -3.05379 1.43701
    endloop
  endfacet
  facet normal -1 0 0
    outer loop
      vertex -0.8 -1.24242 3.13799
      vertex -0.8 -3.11065 7.85661
      vertex -0.8 -2.10143 8.18453
    endloop
  endfacet
  facet normal -1 0 0
    outer loop
      vertex -0.8 -5.6 6.31235
      vertex -0.8 -3.05379 1.43701
      vertex -0.8 -3.20982 1.04293
    endloop
  endfacet
  facet normal -1 0 0
    outer loop
      vertex -0.8 -5.6 6.31235
      vertex -0.8 -3.20982 1.04293
      vertex -0.8 -3.31522 0.632411
    endloop
  endfacet
  facet normal -1 0 0
    outer loop
      vertex -0.8 -5.6 6.31235
      vertex -0.8 -3.31522 0.632411
      vertex -0.8 -3.36834 0.211918
    endloop
  endfacet
  facet normal -1 -0 0
    outer loop
      vertex -0.8 -3.31522 -0.632411
      vertex -0.8 -5.6 -6.31235
      vertex -0.8 -3.36834 -0.211918
    endloop
  endfacet
  facet normal -1 0 0
    outer loop
      vertex -0.8 -1.62592 2.95753
      vertex -0.8 -4.07082 7.40479
      vertex -0.8 -3.11065 7.85661
    endloop
  endfacet
  facet normal -1 -0 0
    outer loop
      vertex -0.8 -3.36834 -0.211918
      vertex -0.8 -5.6 -6.31235
      vertex -0.8 -3.36834 0.211918
    endloop
  endfacet
  facet normal -1 0 0
    outer loop
      vertex -0.8 -5.6 6.31235
      vertex -0.8 -3.36834 0.211918
      vertex -0.8 -5.6 -6.31235
    endloop
  endfacet
  facet normal -1 0 0
    outer loop
      vertex -0.8 -1.98378 2.73043
      vertex -0.8 -5.6 6.31235
      vertex -0.8 -4.96678 6.83619
    endloop
  endfacet
  facet normal -1 0 0
    outer loop
      vertex -0.8 -1.98378 2.73043
      vertex -0.8 -4.96678 6.83619
      vertex -0.8 -4.07082 7.40479
    endloop
  endfacet
  facet normal 0 0.187381 -0.982287
    outer loop
      vertex -3 -2.10143 8.18453
      vertex -0.8 -1.05907 8.38337
      vertex -0.8 -2.10143 8.18453
    endloop
  endfacet
  facet normal 0 0.187381 -0.982287
    outer loop
      vertex -0.8 -1.05907 8.38337
      vertex -3 -2.10143 8.18453
      vertex -3 -1.05907 8.38337
    endloop
  endfacet
  facet normal 0 0.309021 -0.951055
    outer loop
      vertex -3 -3.11065 7.85661
      vertex -0.8 -2.10143 8.18453
      vertex -0.8 -3.11065 7.85661
    endloop
  endfacet
  facet normal 0 0.309021 -0.951055
    outer loop
      vertex -0.8 -2.10143 8.18453
      vertex -3 -3.11065 7.85661
      vertex -3 -2.10143 8.18453
    endloop
  endfacet
  facet normal -0 0.535831 0.844325
    outer loop
      vertex -3 -4.07082 -7.40479
      vertex -0.8 -4.96678 -6.83619
      vertex -0.8 -4.07082 -7.40479
    endloop
  endfacet
  facet normal 0 0.535831 0.844325
    outer loop
      vertex -0.8 -4.96678 -6.83619
      vertex -3 -4.07082 -7.40479
      vertex -3 -4.96678 -6.83619
    endloop
  endfacet
  facet normal 0 0.425778 -0.904828
    outer loop
      vertex -3 -4.07082 7.40479
      vertex -0.8 -3.11065 7.85661
      vertex -0.8 -4.07082 7.40479
    endloop
  endfacet
  facet normal 0 0.425778 -0.904828
    outer loop
      vertex -0.8 -3.11065 7.85661
      vertex -3 -4.07082 7.40479
      vertex -3 -3.11065 7.85661
    endloop
  endfacet
  facet normal 0 0.0627895 -0.998027
    outer loop
      vertex -3 -1.05907 8.38337
      vertex -0.8 0 8.45
      vertex -0.8 -1.05907 8.38337
    endloop
  endfacet
  facet normal 0 0.0627895 -0.998027
    outer loop
      vertex -0.8 0 8.45
      vertex -3 -1.05907 8.38337
      vertex -3 0 8.45
    endloop
  endfacet
  facet normal 0 -0.535831 -0.844325
    outer loop
      vertex -3 4.07082 7.40479
      vertex -0.8 4.96678 6.83619
      vertex -0.8 4.07082 7.40479
    endloop
  endfacet
  facet normal -0 -0.535831 -0.844325
    outer loop
      vertex -0.8 4.96678 6.83619
      vertex -3 4.07082 7.40479
      vertex -3 4.96678 6.83619
    endloop
  endfacet
  facet normal 0 -0.187381 -0.982287
    outer loop
      vertex -3 1.05907 8.38337
      vertex -0.8 2.10143 8.18453
      vertex -0.8 1.05907 8.38337
    endloop
  endfacet
  facet normal -0 -0.187381 -0.982287
    outer loop
      vertex -0.8 2.10143 8.18453
      vertex -3 1.05907 8.38337
      vertex -3 2.10143 8.18453
    endloop
  endfacet
  facet normal 0 -0.0627895 -0.998027
    outer loop
      vertex -3 0 8.45
      vertex -0.8 1.05907 8.38337
      vertex -0.8 0 8.45
    endloop
  endfacet
  facet normal -0 -0.0627895 -0.998027
    outer loop
      vertex -0.8 1.05907 8.38337
      vertex -3 0 8.45
      vertex -3 1.05907 8.38337
    endloop
  endfacet
  facet normal 0 0.535831 -0.844325
    outer loop
      vertex -3 -4.96678 6.83619
      vertex -0.8 -4.07082 7.40479
      vertex -0.8 -4.96678 6.83619
    endloop
  endfacet
  facet normal 0 0.535831 -0.844325
    outer loop
      vertex -0.8 -4.07082 7.40479
      vertex -3 -4.96678 6.83619
      vertex -3 -4.07082 7.40479
    endloop
  endfacet
  facet normal -0 0.63742 0.770516
    outer loop
      vertex -3 -4.96678 -6.83619
      vertex -0.8 -5.6 -6.31235
      vertex -0.8 -4.96678 -6.83619
    endloop
  endfacet
  facet normal 0 0.63742 0.770516
    outer loop
      vertex -0.8 -5.6 -6.31235
      vertex -3 -4.96678 -6.83619
      vertex -3 -5.6 -6.31235
    endloop
  endfacet
  facet normal -0 0.309021 0.951055
    outer loop
      vertex -3 -2.10143 -8.18453
      vertex -0.8 -3.11065 -7.85661
      vertex -0.8 -2.10143 -8.18453
    endloop
  endfacet
  facet normal 0 0.309021 0.951055
    outer loop
      vertex -0.8 -3.11065 -7.85661
      vertex -3 -2.10143 -8.18453
      vertex -3 -3.11065 -7.85661
    endloop
  endfacet
  facet normal -1 0 0
    outer loop
      vertex -3 20 -20
      vertex -3 5.6 -6.31235
      vertex -3 20 20
    endloop
  endfacet
  facet normal -1 0 0
    outer loop
      vertex -3 20 -20
      vertex -3 4.96678 -6.83619
      vertex -3 5.6 -6.31235
    endloop
  endfacet
  facet normal -1 0 0
    outer loop
      vertex -3 20 -20
      vertex -3 4.07082 -7.40479
      vertex -3 4.96678 -6.83619
    endloop
  endfacet
  facet normal -1 0 0
    outer loop
      vertex -3 20 -20
      vertex -3 3.11065 -7.85661
      vertex -3 4.07082 -7.40479
    endloop
  endfacet
  facet normal -1 0 0
    outer loop
      vertex -3 20 -20
      vertex -3 2.10143 -8.18453
      vertex -3 3.11065 -7.85661
    endloop
  endfacet
  facet normal -1 0 0
    outer loop
      vertex -3 20 -20
      vertex -3 1.4 -8.45
      vertex -3 2.10143 -8.18453
    endloop
  endfacet
  facet normal -1 0 0
    outer loop
      vertex -3 20 -20
      vertex -3 -1.4 -8.45
      vertex -3 1.4 -8.45
    endloop
  endfacet
  facet normal -1 0 0
    outer loop
      vertex -3 -1.4 -8.45
      vertex -3 -2.10143 -8.18453
      vertex -3 -1.4 -8.31833
    endloop
  endfacet
  facet normal -1 0 0
    outer loop
      vertex -3 -20 -20
      vertex -3 -1.4 -8.45
      vertex -3 20 -20
    endloop
  endfacet
  facet normal -1 -0 0
    outer loop
      vertex -3 -1.4 -8.45
      vertex -3 -20 -20
      vertex -3 -2.10143 -8.18453
    endloop
  endfacet
  facet normal -1 -0 0
    outer loop
      vertex -3 -2.10143 -8.18453
      vertex -3 -20 -20
      vertex -3 -3.11065 -7.85661
    endloop
  endfacet
  facet normal -1 -0 0
    outer loop
      vertex -3 -5.6 -6.31235
      vertex -3 -20 -20
      vertex -3 -5.6 6.31235
    endloop
  endfacet
  facet normal -1 -0 0
    outer loop
      vertex -3 -4.96678 -6.83619
      vertex -3 -20 -20
      vertex -3 -5.6 -6.31235
    endloop
  endfacet
  facet normal -1 -0 0
    outer loop
      vertex -3 -4.07082 -7.40479
      vertex -3 -20 -20
      vertex -3 -4.96678 -6.83619
    endloop
  endfacet
  facet normal -1 -0 0
    outer loop
      vertex -3 -3.11065 -7.85661
      vertex -3 -20 -20
      vertex -3 -4.07082 -7.40479
    endloop
  endfacet
  facet normal -1 0 0
    outer loop
      vertex -3 5.6 6.31235
      vertex -3 20 20
      vertex -3 5.6 -6.31235
    endloop
  endfacet
  facet normal -1 0 0
    outer loop
      vertex -3 4.96678 6.83619
      vertex -3 20 20
      vertex -3 5.6 6.31235
    endloop
  endfacet
  facet normal -1 0 0
    outer loop
      vertex -3 4.07082 7.40479
      vertex -3 20 20
      vertex -3 4.96678 6.83619
    endloop
  endfacet
  facet normal -1 0 0
    outer loop
      vertex -3 3.11065 7.85661
      vertex -3 20 20
      vertex -3 4.07082 7.40479
    endloop
  endfacet
  facet normal -1 0 0
    outer loop
      vertex -3 2.10143 8.18453
      vertex -3 20 20
      vertex -3 3.11065 7.85661
    endloop
  endfacet
  facet normal -1 0 0
    outer loop
      vertex -3 1.05907 8.38337
      vertex -3 20 20
      vertex -3 2.10143 8.18453
    endloop
  endfacet
  facet normal -1 0 0
    outer loop
      vertex -3 0 8.45
      vertex -3 20 20
      vertex -3 1.05907 8.38337
    endloop
  endfacet
  facet normal -1 0 0
    outer loop
      vertex -3 -20 20
      vertex -3 0 8.45
      vertex -3 -1.05907 8.38337
    endloop
  endfacet
  facet normal -1 0 0
    outer loop
      vertex -3 -20 20
      vertex -3 -1.05907 8.38337
      vertex -3 -2.10143 8.18453
    endloop
  endfacet
  facet normal -1 0 0
    outer loop
      vertex -3 -20 20
      vertex -3 -2.10143 8.18453
      vertex -3 -3.11065 7.85661
    endloop
  endfacet
  facet normal -1 0 0
    outer loop
      vertex -3 -20 20
      vertex -3 -3.11065 7.85661
      vertex -3 -4.07082 7.40479
    endloop
  endfacet
  facet normal -1 0 0
    outer loop
      vertex -3 0 8.45
      vertex -3 -20 20
      vertex -3 20 20
    endloop
  endfacet
  facet normal -1 0 0
    outer loop
      vertex -3 -4.96678 6.83619
      vertex -3 -20 20
      vertex -3 -4.07082 7.40479
    endloop
  endfacet
  facet normal -1 0 0
    outer loop
      vertex -3 -5.6 6.31235
      vertex -3 -20 20
      vertex -3 -4.96678 6.83619
    endloop
  endfacet
  facet normal -1 0 0
    outer loop
      vertex -3 -20 20
      vertex -3 -5.6 6.31235
      vertex -3 -20 -20
    endloop
  endfacet
  facet normal -1 0 0
    outer loop
      vertex -3 2.10143 -8.18453
      vertex -3 1.4 -8.45
      vertex -3 1.4 -8.31833
    endloop
  endfacet
  facet normal 0 -0.63742 -0.770516
    outer loop
      vertex -3 4.96678 6.83619
      vertex -0.8 5.6 6.31235
      vertex -0.8 4.96678 6.83619
    endloop
  endfacet
  facet normal -0 -0.63742 -0.770516
    outer loop
      vertex -0.8 5.6 6.31235
      vertex -3 4.96678 6.83619
      vertex -3 5.6 6.31235
    endloop
  endfacet
  facet normal 0 -1 0
    outer loop
      vertex -3 5.6 -6.31235
      vertex -0.8 5.6 6.31235
      vertex -3 5.6 6.31235
    endloop
  endfacet
  facet normal 0 -1 -0
    outer loop
      vertex -0.8 5.6 6.31235
      vertex -3 5.6 -6.31235
      vertex -0.8 5.6 -6.31235
    endloop
  endfacet
  facet normal 0 1 -0
    outer loop
      vertex -0.8 -5.6 -6.31235
      vertex -3 -5.6 6.31235
      vertex -0.8 -5.6 6.31235
    endloop
  endfacet
  facet normal 0 1 0
    outer loop
      vertex -3 -5.6 6.31235
      vertex -0.8 -5.6 -6.31235
      vertex -3 -5.6 -6.31235
    endloop
  endfacet
  facet normal -0 0 1
    outer loop
      vertex -3 1.4 -8.45
      vertex 2.5 -1.4 -8.45
      vertex 2.5 1.4 -8.45
    endloop
  endfacet
  facet normal 0 0 1
    outer loop
      vertex 2.5 -1.4 -8.45
      vertex -3 1.4 -8.45
      vertex -3 -1.4 -8.45
    endloop
  endfacet
  facet normal -1 0 0
    outer loop
      vertex 2.5 -1.4 -8.45
      vertex 2.5 1.4 -7.25
      vertex 2.5 1.4 -8.45
    endloop
  endfacet
  facet normal -1 -0 0
    outer loop
      vertex 2.5 1.4 -7.25
      vertex 2.5 -1.4 -8.45
      vertex 2.5 -1.4 -7.25
    endloop
  endfacet
  facet normal 0 0 -1
    outer loop
      vertex -0.8 -1.4 -7.25
      vertex 2.5 1.4 -7.25
      vertex 2.5 -1.4 -7.25
    endloop
  endfacet
  facet normal -0 0 -1
    outer loop
      vertex 2.5 1.4 -7.25
      vertex -0.8 -1.4 -7.25
      vertex -0.8 1.4 -7.25
    endloop
  endfacet
  facet normal 0 -1 0
    outer loop
      vertex -3 1.4 -8.31833
      vertex -3 1.4 -8.45
      vertex -0.8 1.4 -8.31833
    endloop
  endfacet
  facet normal 0 -1 0
    outer loop
      vertex -0.8 1.4 -8.31833
      vertex 2.5 1.4 -7.25
      vertex -0.8 1.4 -7.25
    endloop
  endfacet
  facet normal 0 -1 0
    outer loop
      vertex -0.8 1.4 -8.31833
      vertex 2.5 1.4 -8.45
      vertex 2.5 1.4 -7.25
    endloop
  endfacet
  facet normal 0 -1 0
    outer loop
      vertex 2.5 1.4 -8.45
      vertex -0.8 1.4 -8.31833
      vertex -3 1.4 -8.45
    endloop
  endfacet
  facet normal 0 1 0
    outer loop
      vertex 2.5 -1.4 -7.25
      vertex -0.8 -1.4 -8.31833
      vertex -0.8 -1.4 -7.25
    endloop
  endfacet
  facet normal 0 1 -0
    outer loop
      vertex 2.5 -1.4 -8.45
      vertex -0.8 -1.4 -8.31833
      vertex 2.5 -1.4 -7.25
    endloop
  endfacet
  facet normal 0 1 0
    outer loop
      vertex -3 -1.4 -8.45
      vertex -0.8 -1.4 -8.31833
      vertex 2.5 -1.4 -8.45
    endloop
  endfacet
  facet normal 0 1 0
    outer loop
      vertex -0.8 -1.4 -8.31833
      vertex -3 -1.4 -8.45
      vertex -3 -1.4 -8.31833
    endloop
  endfacet
  facet normal 0 -0.728972 0.684544
    outer loop
      vertex -0.8 2.31035 -2.46027
      vertex 3 2.60048 -2.15131
      vertex -0.8 2.60048 -2.15131
    endloop
  endfacet
  facet normal 0 -0.728972 0.684544
    outer loop
      vertex 3 2.60048 -2.15131
      vertex -0.8 2.31035 -2.46027
      vertex 3 2.31035 -2.46027
    endloop
  endfacet
  facet normal 0 0.968585 0.248682
    outer loop
      vertex 3 -3.20982 -1.04293
      vertex -0.8 -3.31522 -0.632411
      vertex 3 -3.31522 -0.632411
    endloop
  endfacet
  facet normal 0 0.968585 0.248682
    outer loop
      vertex -0.8 -3.31522 -0.632411
      vertex 3 -3.20982 -1.04293
      vertex -0.8 -3.20982 -1.04293
    endloop
  endfacet
  facet normal 0 -0.992115 -0.125332
    outer loop
      vertex -0.8 3.36834 0.211918
      vertex 3 3.31522 0.632411
      vertex -0.8 3.31522 0.632411
    endloop
  endfacet
  facet normal 0 -0.992115 -0.125332
    outer loop
      vertex 3 3.31522 0.632411
      vertex -0.8 3.36834 0.211918
      vertex 3 3.36834 0.211918
    endloop
  endfacet
  facet normal 0 -0.309033 -0.951051
    outer loop
      vertex -0.8 0.839328 3.26897
      vertex 3 1.24242 3.13799
      vertex 3 0.839328 3.26897
    endloop
  endfacet
  facet normal -0 -0.309033 -0.951051
    outer loop
      vertex 3 1.24242 3.13799
      vertex -0.8 0.839328 3.26897
      vertex -0.8 1.24242 3.13799
    endloop
  endfacet
  facet normal 0 0.728972 -0.684544
    outer loop
      vertex 3 -2.60048 2.15131
      vertex -0.8 -2.31035 2.46027
      vertex 3 -2.31035 2.46027
    endloop
  endfacet
  facet normal 0 0.728972 -0.684544
    outer loop
      vertex -0.8 -2.31035 2.46027
      vertex 3 -2.60048 2.15131
      vertex -0.8 -2.60048 2.15131
    endloop
  endfacet
  facet normal 0 -0.187384 -0.982287
    outer loop
      vertex -0.8 0.422999 3.34839
      vertex 3 0.839328 3.26897
      vertex 3 0.422999 3.34839
    endloop
  endfacet
  facet normal -0 -0.187384 -0.982287
    outer loop
      vertex 3 0.839328 3.26897
      vertex -0.8 0.422999 3.34839
      vertex -0.8 0.839328 3.26897
    endloop
  endfacet
  facet normal 0 0.535819 -0.844333
    outer loop
      vertex -0.8 -1.98378 2.73043
      vertex 3 -1.62592 2.95753
      vertex 3 -1.98378 2.73043
    endloop
  endfacet
  facet normal 0 0.535819 -0.844333
    outer loop
      vertex 3 -1.62592 2.95753
      vertex -0.8 -1.98378 2.73043
      vertex -0.8 -1.62592 2.95753
    endloop
  endfacet
  facet normal 0 -0.0627838 0.998027
    outer loop
      vertex -0.8 0.422999 -3.34839
      vertex 3 0 -3.375
      vertex 3 0.422999 -3.34839
    endloop
  endfacet
  facet normal 0 -0.0627838 0.998027
    outer loop
      vertex 3 0 -3.375
      vertex -0.8 0.422999 -3.34839
      vertex -0.8 0 -3.375
    endloop
  endfacet
  facet normal 0 -0.929774 -0.36813
    outer loop
      vertex -0.8 3.20982 1.04293
      vertex 3 3.05379 1.43701
      vertex -0.8 3.05379 1.43701
    endloop
  endfacet
  facet normal 0 -0.929774 -0.36813
    outer loop
      vertex 3 3.05379 1.43701
      vertex -0.8 3.20982 1.04293
      vertex 3 3.20982 1.04293
    endloop
  endfacet
  facet normal 0 -0.535819 0.844333
    outer loop
      vertex -0.8 1.98378 -2.73043
      vertex 3 1.62592 -2.95753
      vertex 3 1.98378 -2.73043
    endloop
  endfacet
  facet normal 0 -0.535819 0.844333
    outer loop
      vertex 3 1.62592 -2.95753
      vertex -0.8 1.98378 -2.73043
      vertex -0.8 1.62592 -2.95753
    endloop
  endfacet
  facet normal 0 -0.992115 0.125332
    outer loop
      vertex -0.8 3.31522 -0.632411
      vertex 3 3.36834 -0.211918
      vertex -0.8 3.36834 -0.211918
    endloop
  endfacet
  facet normal 0 -0.992115 0.125332
    outer loop
      vertex 3 3.36834 -0.211918
      vertex -0.8 3.31522 -0.632411
      vertex 3 3.31522 -0.632411
    endloop
  endfacet
  facet normal 0 0.992115 -0.125332
    outer loop
      vertex 3 -3.36834 0.211918
      vertex -0.8 -3.31522 0.632411
      vertex 3 -3.31522 0.632411
    endloop
  endfacet
  facet normal 0 0.992115 -0.125332
    outer loop
      vertex -0.8 -3.31522 0.632411
      vertex 3 -3.36834 0.211918
      vertex -0.8 -3.36834 0.211918
    endloop
  endfacet
  facet normal -0 0.637421 0.770516
    outer loop
      vertex -0.8 -1.98378 -2.73043
      vertex 3 -2.31035 -2.46027
      vertex 3 -1.98378 -2.73043
    endloop
  endfacet
  facet normal 0 0.637421 0.770516
    outer loop
      vertex 3 -2.31035 -2.46027
      vertex -0.8 -1.98378 -2.73043
      vertex -0.8 -2.31035 -2.46027
    endloop
  endfacet
  facet normal 0 -0.876311 0.481746
    outer loop
      vertex -0.8 2.84961 -1.80842
      vertex 3 3.05379 -1.43701
      vertex -0.8 3.05379 -1.43701
    endloop
  endfacet
  facet normal 0 -0.876311 0.481746
    outer loop
      vertex 3 3.05379 -1.43701
      vertex -0.8 2.84961 -1.80842
      vertex 3 2.84961 -1.80842
    endloop
  endfacet
  facet normal 0 -0.968585 -0.248682
    outer loop
      vertex -0.8 3.31522 0.632411
      vertex 3 3.20982 1.04293
      vertex -0.8 3.20982 1.04293
    endloop
  endfacet
  facet normal 0 -0.968585 -0.248682
    outer loop
      vertex 3 3.20982 1.04293
      vertex -0.8 3.31522 0.632411
      vertex 3 3.31522 0.632411
    endloop
  endfacet
  facet normal 0 -0.187384 0.982287
    outer loop
      vertex -0.8 0.839328 -3.26897
      vertex 3 0.422999 -3.34839
      vertex 3 0.839328 -3.26897
    endloop
  endfacet
  facet normal 0 -0.187384 0.982287
    outer loop
      vertex 3 0.422999 -3.34839
      vertex -0.8 0.839328 -3.26897
      vertex -0.8 0.422999 -3.34839
    endloop
  endfacet
  facet normal 0 -0.728972 -0.684544
    outer loop
      vertex -0.8 2.60048 2.15131
      vertex 3 2.31035 2.46027
      vertex -0.8 2.31035 2.46027
    endloop
  endfacet
  facet normal 0 -0.728972 -0.684544
    outer loop
      vertex 3 2.31035 2.46027
      vertex -0.8 2.60048 2.15131
      vertex 3 2.60048 2.15131
    endloop
  endfacet
  facet normal 0 -0.535819 -0.844333
    outer loop
      vertex -0.8 1.62592 2.95753
      vertex 3 1.98378 2.73043
      vertex 3 1.62592 2.95753
    endloop
  endfacet
  facet normal -0 -0.535819 -0.844333
    outer loop
      vertex 3 1.98378 2.73043
      vertex -0.8 1.62592 2.95753
      vertex -0.8 1.98378 2.73043
    endloop
  endfacet
  facet normal 0 0.309033 -0.951051
    outer loop
      vertex -0.8 -1.24242 3.13799
      vertex 3 -0.839328 3.26897
      vertex 3 -1.24242 3.13799
    endloop
  endfacet
  facet normal 0 0.309033 -0.951051
    outer loop
      vertex 3 -0.839328 3.26897
      vertex -0.8 -1.24242 3.13799
      vertex -0.8 -0.839328 3.26897
    endloop
  endfacet
  facet normal 0 -0.309033 0.951051
    outer loop
      vertex -0.8 1.24242 -3.13799
      vertex 3 0.839328 -3.26897
      vertex 3 1.24242 -3.13799
    endloop
  endfacet
  facet normal 0 -0.309033 0.951051
    outer loop
      vertex 3 0.839328 -3.26897
      vertex -0.8 1.24242 -3.13799
      vertex -0.8 0.839328 -3.26897
    endloop
  endfacet
  facet normal 0 0.992115 0.125332
    outer loop
      vertex 3 -3.31522 -0.632411
      vertex -0.8 -3.36834 -0.211918
      vertex 3 -3.36834 -0.211918
    endloop
  endfacet
  facet normal 0 0.992115 0.125332
    outer loop
      vertex -0.8 -3.36834 -0.211918
      vertex 3 -3.31522 -0.632411
      vertex -0.8 -3.31522 -0.632411
    endloop
  endfacet
  facet normal -0 0.535819 0.844333
    outer loop
      vertex -0.8 -1.62592 -2.95753
      vertex 3 -1.98378 -2.73043
      vertex 3 -1.62592 -2.95753
    endloop
  endfacet
  facet normal 0 0.535819 0.844333
    outer loop
      vertex 3 -1.98378 -2.73043
      vertex -0.8 -1.62592 -2.95753
      vertex -0.8 -1.98378 -2.73043
    endloop
  endfacet
  facet normal 0 0.876311 -0.481746
    outer loop
      vertex 3 -3.05379 1.43701
      vertex -0.8 -2.84961 1.80842
      vertex 3 -2.84961 1.80842
    endloop
  endfacet
  facet normal 0 0.876311 -0.481746
    outer loop
      vertex -0.8 -2.84961 1.80842
      vertex 3 -3.05379 1.43701
      vertex -0.8 -3.05379 1.43701
    endloop
  endfacet
  facet normal 0 -0.637421 -0.770516
    outer loop
      vertex -0.8 1.98378 2.73043
      vertex 3 2.31035 2.46027
      vertex 3 1.98378 2.73043
    endloop
  endfacet
  facet normal -0 -0.637421 -0.770516
    outer loop
      vertex 3 2.31035 2.46027
      vertex -0.8 1.98378 2.73043
      vertex -0.8 2.31035 2.46027
    endloop
  endfacet
  facet normal 0 0.929774 0.36813
    outer loop
      vertex 3 -3.05379 -1.43701
      vertex -0.8 -3.20982 -1.04293
      vertex 3 -3.20982 -1.04293
    endloop
  endfacet
  facet normal 0 0.929774 0.36813
    outer loop
      vertex -0.8 -3.20982 -1.04293
      vertex 3 -3.05379 -1.43701
      vertex -0.8 -3.05379 -1.43701
    endloop
  endfacet
  facet normal 0 -0.929774 0.36813
    outer loop
      vertex -0.8 3.05379 -1.43701
      vertex 3 3.20982 -1.04293
      vertex -0.8 3.20982 -1.04293
    endloop
  endfacet
  facet normal 0 -0.929774 0.36813
    outer loop
      vertex 3 3.20982 -1.04293
      vertex -0.8 3.05379 -1.43701
      vertex 3 3.05379 -1.43701
    endloop
  endfacet
  facet normal -0 0.0627838 0.998027
    outer loop
      vertex -0.8 0 -3.375
      vertex 3 -0.422999 -3.34839
      vertex 3 0 -3.375
    endloop
  endfacet
  facet normal 0 0.0627838 0.998027
    outer loop
      vertex 3 -0.422999 -3.34839
      vertex -0.8 0 -3.375
      vertex -0.8 -0.422999 -3.34839
    endloop
  endfacet
  facet normal 0 1 -0
    outer loop
      vertex 3 -3.36834 -0.211918
      vertex -0.8 -3.36834 0.211918
      vertex 3 -3.36834 0.211918
    endloop
  endfacet
  facet normal 0 1 0
    outer loop
      vertex -0.8 -3.36834 0.211918
      vertex 3 -3.36834 -0.211918
      vertex -0.8 -3.36834 -0.211918
    endloop
  endfacet
  facet normal 0 -0.80901 -0.587794
    outer loop
      vertex -0.8 2.84961 1.80842
      vertex 3 2.60048 2.15131
      vertex -0.8 2.60048 2.15131
    endloop
  endfacet
  facet normal 0 -0.80901 -0.587794
    outer loop
      vertex 3 2.60048 2.15131
      vertex -0.8 2.84961 1.80842
      vertex 3 2.84961 1.80842
    endloop
  endfacet
  facet normal 0 -0.876311 -0.481746
    outer loop
      vertex -0.8 3.05379 1.43701
      vertex 3 2.84961 1.80842
      vertex -0.8 2.84961 1.80842
    endloop
  endfacet
  facet normal 0 -0.876311 -0.481746
    outer loop
      vertex 3 2.84961 1.80842
      vertex -0.8 3.05379 1.43701
      vertex 3 3.05379 1.43701
    endloop
  endfacet
  facet normal 0 -0.80901 0.587794
    outer loop
      vertex -0.8 2.60048 -2.15131
      vertex 3 2.84961 -1.80842
      vertex -0.8 2.84961 -1.80842
    endloop
  endfacet
  facet normal 0 -0.80901 0.587794
    outer loop
      vertex 3 2.84961 -1.80842
      vertex -0.8 2.60048 -2.15131
      vertex 3 2.60048 -2.15131
    endloop
  endfacet
  facet normal 0 0.0627838 -0.998027
    outer loop
      vertex -0.8 -0.422999 3.34839
      vertex 3 0 3.375
      vertex 3 -0.422999 3.34839
    endloop
  endfacet
  facet normal 0 0.0627838 -0.998027
    outer loop
      vertex 3 0 3.375
      vertex -0.8 -0.422999 3.34839
      vertex -0.8 0 3.375
    endloop
  endfacet
  facet normal 0 -1 0
    outer loop
      vertex -0.8 3.36834 -0.211918
      vertex 3 3.36834 0.211918
      vertex -0.8 3.36834 0.211918
    endloop
  endfacet
  facet normal 0 -1 -0
    outer loop
      vertex 3 3.36834 0.211918
      vertex -0.8 3.36834 -0.211918
      vertex 3 3.36834 -0.211918
    endloop
  endfacet
  facet normal 0 -0.637421 0.770516
    outer loop
      vertex -0.8 2.31035 -2.46027
      vertex 3 1.98378 -2.73043
      vertex 3 2.31035 -2.46027
    endloop
  endfacet
  facet normal 0 -0.637421 0.770516
    outer loop
      vertex 3 1.98378 -2.73043
      vertex -0.8 2.31035 -2.46027
      vertex -0.8 1.98378 -2.73043
    endloop
  endfacet
  facet normal 0 0.929774 -0.36813
    outer loop
      vertex 3 -3.20982 1.04293
      vertex -0.8 -3.05379 1.43701
      vertex 3 -3.05379 1.43701
    endloop
  endfacet
  facet normal 0 0.929774 -0.36813
    outer loop
      vertex -0.8 -3.05379 1.43701
      vertex 3 -3.20982 1.04293
      vertex -0.8 -3.20982 1.04293
    endloop
  endfacet
  facet normal -0 0.187384 0.982287
    outer loop
      vertex -0.8 -0.422999 -3.34839
      vertex 3 -0.839328 -3.26897
      vertex 3 -0.422999 -3.34839
    endloop
  endfacet
  facet normal 0 0.187384 0.982287
    outer loop
      vertex 3 -0.839328 -3.26897
      vertex -0.8 -0.422999 -3.34839
      vertex -0.8 -0.839328 -3.26897
    endloop
  endfacet
  facet normal 0 -0.968585 0.248682
    outer loop
      vertex -0.8 3.20982 -1.04293
      vertex 3 3.31522 -0.632411
      vertex -0.8 3.31522 -0.632411
    endloop
  endfacet
  facet normal 0 -0.968585 0.248682
    outer loop
      vertex 3 3.31522 -0.632411
      vertex -0.8 3.20982 -1.04293
      vertex 3 3.20982 -1.04293
    endloop
  endfacet
  facet normal 0 0.425777 -0.904828
    outer loop
      vertex -0.8 -1.62592 2.95753
      vertex 3 -1.24242 3.13799
      vertex 3 -1.62592 2.95753
    endloop
  endfacet
  facet normal 0 0.425777 -0.904828
    outer loop
      vertex 3 -1.24242 3.13799
      vertex -0.8 -1.62592 2.95753
      vertex -0.8 -1.24242 3.13799
    endloop
  endfacet
  facet normal 0 0.80901 -0.587794
    outer loop
      vertex 3 -2.84961 1.80842
      vertex -0.8 -2.60048 2.15131
      vertex 3 -2.60048 2.15131
    endloop
  endfacet
  facet normal 0 0.80901 -0.587794
    outer loop
      vertex -0.8 -2.60048 2.15131
      vertex 3 -2.84961 1.80842
      vertex -0.8 -2.84961 1.80842
    endloop
  endfacet
  facet normal 0 -0.425777 0.904828
    outer loop
      vertex -0.8 1.62592 -2.95753
      vertex 3 1.24242 -3.13799
      vertex 3 1.62592 -2.95753
    endloop
  endfacet
  facet normal 0 -0.425777 0.904828
    outer loop
      vertex 3 1.24242 -3.13799
      vertex -0.8 1.62592 -2.95753
      vertex -0.8 1.24242 -3.13799
    endloop
  endfacet
  facet normal 0 -0.0627838 -0.998027
    outer loop
      vertex -0.8 0 3.375
      vertex 3 0.422999 3.34839
      vertex 3 0 3.375
    endloop
  endfacet
  facet normal -0 -0.0627838 -0.998027
    outer loop
      vertex 3 0.422999 3.34839
      vertex -0.8 0 3.375
      vertex -0.8 0.422999 3.34839
    endloop
  endfacet
  facet normal 0 0.728972 0.684544
    outer loop
      vertex 3 -2.31035 -2.46027
      vertex -0.8 -2.60048 -2.15131
      vertex 3 -2.60048 -2.15131
    endloop
  endfacet
  facet normal 0 0.728972 0.684544
    outer loop
      vertex -0.8 -2.60048 -2.15131
      vertex 3 -2.31035 -2.46027
      vertex -0.8 -2.31035 -2.46027
    endloop
  endfacet
  facet normal 0 0.187384 -0.982287
    outer loop
      vertex -0.8 -0.839328 3.26897
      vertex 3 -0.422999 3.34839
      vertex 3 -0.839328 3.26897
    endloop
  endfacet
  facet normal 0 0.187384 -0.982287
    outer loop
      vertex 3 -0.422999 3.34839
      vertex -0.8 -0.839328 3.26897
      vertex -0.8 -0.422999 3.34839
    endloop
  endfacet
  facet normal 0 0.80901 0.587794
    outer loop
      vertex 3 -2.60048 -2.15131
      vertex -0.8 -2.84961 -1.80842
      vertex 3 -2.84961 -1.80842
    endloop
  endfacet
  facet normal 0 0.80901 0.587794
    outer loop
      vertex -0.8 -2.84961 -1.80842
      vertex 3 -2.60048 -2.15131
      vertex -0.8 -2.60048 -2.15131
    endloop
  endfacet
  facet normal 0 0.876311 0.481746
    outer loop
      vertex 3 -2.84961 -1.80842
      vertex -0.8 -3.05379 -1.43701
      vertex 3 -3.05379 -1.43701
    endloop
  endfacet
  facet normal 0 0.876311 0.481746
    outer loop
      vertex -0.8 -3.05379 -1.43701
      vertex 3 -2.84961 -1.80842
      vertex -0.8 -2.84961 -1.80842
    endloop
  endfacet
  facet normal -0 0.425777 0.904828
    outer loop
      vertex -0.8 -1.24242 -3.13799
      vertex 3 -1.62592 -2.95753
      vertex 3 -1.24242 -3.13799
    endloop
  endfacet
  facet normal 0 0.425777 0.904828
    outer loop
      vertex 3 -1.62592 -2.95753
      vertex -0.8 -1.24242 -3.13799
      vertex -0.8 -1.62592 -2.95753
    endloop
  endfacet
  facet normal -0 0.309033 0.951051
    outer loop
      vertex -0.8 -0.839328 -3.26897
      vertex 3 -1.24242 -3.13799
      vertex 3 -0.839328 -3.26897
    endloop
  endfacet
  facet normal 0 0.309033 0.951051
    outer loop
      vertex 3 -1.24242 -3.13799
      vertex -0.8 -0.839328 -3.26897
      vertex -0.8 -1.24242 -3.13799
    endloop
  endfacet
  facet normal 0 -0.425777 -0.904828
    outer loop
      vertex -0.8 1.24242 3.13799
      vertex 3 1.62592 2.95753
      vertex 3 1.24242 3.13799
    endloop
  endfacet
  facet normal -0 -0.425777 -0.904828
    outer loop
      vertex 3 1.62592 2.95753
      vertex -0.8 1.24242 3.13799
      vertex -0.8 1.62592 2.95753
    endloop
  endfacet
  facet normal 0 0.637421 -0.770516
    outer loop
      vertex -0.8 -2.31035 2.46027
      vertex 3 -1.98378 2.73043
      vertex 3 -2.31035 2.46027
    endloop
  endfacet
  facet normal 0 0.637421 -0.770516
    outer loop
      vertex 3 -1.98378 2.73043
      vertex -0.8 -2.31035 2.46027
      vertex -0.8 -1.98378 2.73043
    endloop
  endfacet
  facet normal 0 0.968585 -0.248682
    outer loop
      vertex 3 -3.31522 0.632411
      vertex -0.8 -3.20982 1.04293
      vertex 3 -3.20982 1.04293
    endloop
  endfacet
  facet normal 0 0.968585 -0.248682
    outer loop
      vertex -0.8 -3.20982 1.04293
      vertex 3 -3.31522 0.632411
      vertex -0.8 -3.31522 0.632411
    endloop
  endfacet
  facet normal 1 0 0
    outer loop
      vertex 3 20 20
      vertex 3 3.36834 0.211918
      vertex 3 20 -20
    endloop
  endfacet
  facet normal 1 0 0
    outer loop
      vertex 3 20 20
      vertex 3 3.31522 0.632411
      vertex 3 3.36834 0.211918
    endloop
  endfacet
  facet normal 1 0 0
    outer loop
      vertex 3 20 20
      vertex 3 3.20982 1.04293
      vertex 3 3.31522 0.632411
    endloop
  endfacet
  facet normal 1 0 0
    outer loop
      vertex 3 20 20
      vertex 3 3.05379 1.43701
      vertex 3 3.20982 1.04293
    endloop
  endfacet
  facet normal 1 0 0
    outer loop
      vertex 3 20 20
      vertex 3 2.84961 1.80842
      vertex 3 3.05379 1.43701
    endloop
  endfacet
  facet normal 1 0 0
    outer loop
      vertex 3 20 20
      vertex 3 2.60048 2.15131
      vertex 3 2.84961 1.80842
    endloop
  endfacet
  facet normal 1 0 0
    outer loop
      vertex 3 20 20
      vertex 3 2.31035 2.46027
      vertex 3 2.60048 2.15131
    endloop
  endfacet
  facet normal 1 0 0
    outer loop
      vertex 3 20 20
      vertex 3 1.98378 2.73043
      vertex 3 2.31035 2.46027
    endloop
  endfacet
  facet normal 1 0 0
    outer loop
      vertex 3 20 20
      vertex 3 1.62592 2.95753
      vertex 3 1.98378 2.73043
    endloop
  endfacet
  facet normal 1 0 0
    outer loop
      vertex 3 20 20
      vertex 3 1.24242 3.13799
      vertex 3 1.62592 2.95753
    endloop
  endfacet
  facet normal 1 0 0
    outer loop
      vertex 3 20 20
      vertex 3 0.839328 3.26897
      vertex 3 1.24242 3.13799
    endloop
  endfacet
  facet normal 1 0 0
    outer loop
      vertex 3 20 20
      vertex 3 0.422999 3.34839
      vertex 3 0.839328 3.26897
    endloop
  endfacet
  facet normal 1 0 0
    outer loop
      vertex 3 20 20
      vertex 3 0 3.375
      vertex 3 0.422999 3.34839
    endloop
  endfacet
  facet normal 1 -0 0
    outer loop
      vertex 3 -20 20
      vertex 3 0 3.375
      vertex 3 20 20
    endloop
  endfacet
  facet normal 1 0 0
    outer loop
      vertex 3 0 3.375
      vertex 3 -20 20
      vertex 3 -0.422999 3.34839
    endloop
  endfacet
  facet normal 1 0 0
    outer loop
      vertex 3 -0.422999 3.34839
      vertex 3 -20 20
      vertex 3 -0.839328 3.26897
    endloop
  endfacet
  facet normal 1 0 0
    outer loop
      vertex 3 -0.839328 3.26897
      vertex 3 -20 20
      vertex 3 -1.24242 3.13799
    endloop
  endfacet
  facet normal 1 0 0
    outer loop
      vertex 3 -1.24242 3.13799
      vertex 3 -20 20
      vertex 3 -1.62592 2.95753
    endloop
  endfacet
  facet normal 1 0 0
    outer loop
      vertex 3 -3.36834 0.211918
      vertex 3 -20 20
      vertex 3 -3.36834 -0.211918
    endloop
  endfacet
  facet normal 1 0 0
    outer loop
      vertex 3 -3.31522 0.632411
      vertex 3 -20 20
      vertex 3 -3.36834 0.211918
    endloop
  endfacet
  facet normal 1 0 0
    outer loop
      vertex 3 -3.20982 1.04293
      vertex 3 -20 20
      vertex 3 -3.31522 0.632411
    endloop
  endfacet
  facet normal 1 0 0
    outer loop
      vertex 3 -3.05379 1.43701
      vertex 3 -20 20
      vertex 3 -3.20982 1.04293
    endloop
  endfacet
  facet normal 1 0 0
    outer loop
      vertex 3 -2.84961 1.80842
      vertex 3 -20 20
      vertex 3 -3.05379 1.43701
    endloop
  endfacet
  facet normal 1 0 0
    outer loop
      vertex 3 -2.60048 2.15131
      vertex 3 -20 20
      vertex 3 -2.84961 1.80842
    endloop
  endfacet
  facet normal 1 0 0
    outer loop
      vertex 3 -2.31035 2.46027
      vertex 3 -20 20
      vertex 3 -2.60048 2.15131
    endloop
  endfacet
  facet normal 1 0 0
    outer loop
      vertex 3 -1.98378 2.73043
      vertex 3 -20 20
      vertex 3 -2.31035 2.46027
    endloop
  endfacet
  facet normal 1 0 0
    outer loop
      vertex 3 -1.62592 2.95753
      vertex 3 -20 20
      vertex 3 -1.98378 2.73043
    endloop
  endfacet
  facet normal 1 -0 0
    outer loop
      vertex 3 3.36834 -0.211918
      vertex 3 20 -20
      vertex 3 3.36834 0.211918
    endloop
  endfacet
  facet normal 1 -0 0
    outer loop
      vertex 3 3.31522 -0.632411
      vertex 3 20 -20
      vertex 3 3.36834 -0.211918
    endloop
  endfacet
  facet normal 1 -0 0
    outer loop
      vertex 3 3.20982 -1.04293
      vertex 3 20 -20
      vertex 3 3.31522 -0.632411
    endloop
  endfacet
  facet normal 1 -0 0
    outer loop
      vertex 3 3.05379 -1.43701
      vertex 3 20 -20
      vertex 3 3.20982 -1.04293
    endloop
  endfacet
  facet normal 1 -0 0
    outer loop
      vertex 3 2.84961 -1.80842
      vertex 3 20 -20
      vertex 3 3.05379 -1.43701
    endloop
  endfacet
  facet normal 1 -0 0
    outer loop
      vertex 3 2.60048 -2.15131
      vertex 3 20 -20
      vertex 3 2.84961 -1.80842
    endloop
  endfacet
  facet normal 1 -0 0
    outer loop
      vertex 3 2.31035 -2.46027
      vertex 3 20 -20
      vertex 3 2.60048 -2.15131
    endloop
  endfacet
  facet normal 1 -0 0
    outer loop
      vertex 3 1.98378 -2.73043
      vertex 3 20 -20
      vertex 3 2.31035 -2.46027
    endloop
  endfacet
  facet normal 1 -0 0
    outer loop
      vertex 3 1.62592 -2.95753
      vertex 3 20 -20
      vertex 3 1.98378 -2.73043
    endloop
  endfacet
  facet normal 1 -0 0
    outer loop
      vertex 3 1.24242 -3.13799
      vertex 3 20 -20
      vertex 3 1.62592 -2.95753
    endloop
  endfacet
  facet normal 1 -0 0
    outer loop
      vertex 3 0.839328 -3.26897
      vertex 3 20 -20
      vertex 3 1.24242 -3.13799
    endloop
  endfacet
  facet normal 1 -0 0
    outer loop
      vertex 3 0.422999 -3.34839
      vertex 3 20 -20
      vertex 3 0.839328 -3.26897
    endloop
  endfacet
  facet normal 1 -0 0
    outer loop
      vertex 3 0 -3.375
      vertex 3 20 -20
      vertex 3 0.422999 -3.34839
    endloop
  endfacet
  facet normal 1 0 0
    outer loop
      vertex 3 -20 -20
      vertex 3 0 -3.375
      vertex 3 -0.422999 -3.34839
    endloop
  endfacet
  facet normal 1 0 0
    outer loop
      vertex 3 -20 -20
      vertex 3 -0.422999 -3.34839
      vertex 3 -0.839328 -3.26897
    endloop
  endfacet
  facet normal 1 0 0
    outer loop
      vertex 3 -20 -20
      vertex 3 -0.839328 -3.26897
      vertex 3 -1.24242 -3.13799
    endloop
  endfacet
  facet normal 1 0 0
    outer loop
      vertex 3 -20 -20
      vertex 3 -1.24242 -3.13799
      vertex 3 -1.62592 -2.95753
    endloop
  endfacet
  facet normal 1 0 0
    outer loop
      vertex 3 -20 -20
      vertex 3 -1.62592 -2.95753
      vertex 3 -1.98378 -2.73043
    endloop
  endfacet
  facet normal 1 0 0
    outer loop
      vertex 3 -20 -20
      vertex 3 -3.36834 -0.211918
      vertex 3 -20 20
    endloop
  endfacet
  facet normal 1 0 0
    outer loop
      vertex 3 -3.36834 -0.211918
      vertex 3 -20 -20
      vertex 3 -3.31522 -0.632411
    endloop
  endfacet
  facet normal 1 0 0
    outer loop
      vertex 3 -3.31522 -0.632411
      vertex 3 -20 -20
      vertex 3 -3.20982 -1.04293
    endloop
  endfacet
  facet normal 1 0 0
    outer loop
      vertex 3 -3.20982 -1.04293
      vertex 3 -20 -20
      vertex 3 -3.05379 -1.43701
    endloop
  endfacet
  facet normal 1 0 0
    outer loop
      vertex 3 -3.05379 -1.43701
      vertex 3 -20 -20
      vertex 3 -2.84961 -1.80842
    endloop
  endfacet
  facet normal 1 0 0
    outer loop
      vertex 3 0 -3.375
      vertex 3 -20 -20
      vertex 3 20 -20
    endloop
  endfacet
  facet normal 1 0 0
    outer loop
      vertex 3 -2.31035 -2.46027
      vertex 3 -20 -20
      vertex 3 -1.98378 -2.73043
    endloop
  endfacet
  facet normal 1 0 0
    outer loop
      vertex 3 -2.60048 -2.15131
      vertex 3 -20 -20
      vertex 3 -2.31035 -2.46027
    endloop
  endfacet
  facet normal 1 0 0
    outer loop
      vertex 3 -2.84961 -1.80842
      vertex 3 -20 -20
      vertex 3 -2.60048 -2.15131
    endloop
  endfacet
  facet normal -0 0 1
    outer loop
      vertex -3 20 20
      vertex 3 -20 20
      vertex 3 20 20
    endloop
  endfacet
  facet normal 0 0 1
    outer loop
      vertex 3 -20 20
      vertex -3 20 20
      vertex -3 -20 20
    endloop
  endfacet
  facet normal 0 0 -1
    outer loop
      vertex -3 -20 -20
      vertex 3 20 -20
      vertex 3 -20 -20
    endloop
  endfacet
  facet normal -0 0 -1
    outer loop
      vertex 3 20 -20
      vertex -3 -20 -20
      vertex -3 20 -20
    endloop
  endfacet
  facet normal 0 1 -0
    outer loop
      vertex 3 20 -20
      vertex -3 20 20
      vertex 3 20 20
    endloop
  endfacet
  facet normal 0 1 0
    outer loop
      vertex -3 20 20
      vertex 3 20 -20
      vertex -3 20 -20
    endloop
  endfacet
  facet normal 0 -1 0
    outer loop
      vertex -3 -20 -20
      vertex 3 -20 20
      vertex -3 -20 20
    endloop
  endfacet
  facet normal 0 -1 -0
    outer loop
      vertex 3 -20 20
      vertex -3 -20 -20
      vertex 3 -20 -20
    endloop
  endfacet
endsolid OpenSCAD_Model
