solid OpenSCAD_Model
  facet normal 1 0 0
    outer loop
      vertex 22.5 -0.849999 3
      vertex 22.5 -22.5 3
      vertex 22.5 -0.849999 0
    endloop
  endfacet
  facet normal 1 0 0
    outer loop
      vertex 22.5 0.849999 0
      vertex 22.5 22.5 3
      vertex 22.5 0.849999 3
    endloop
  endfacet
  facet normal 1 0 0
    outer loop
      vertex 22.5 22.5 3
      vertex 22.5 0.849999 0
      vertex 22.5 22.5 -3
    endloop
  endfacet
  facet normal 1 -0 0
    outer loop
      vertex 22.5 -0.849999 0
      vertex 22.5 22.5 -3
      vertex 22.5 0.849999 0
    endloop
  endfacet
  facet normal 1 0 0
    outer loop
      vertex 22.5 -0.849999 0
      vertex 22.5 -22.5 -3
      vertex 22.5 22.5 -3
    endloop
  endfacet
  facet normal 1 0 0
    outer loop
      vertex 22.5 -22.5 -3
      vertex 22.5 -0.849999 0
      vertex 22.5 -22.5 3
    endloop
  endfacet
  facet normal -0 0 1
    outer loop
      vertex -22.5 22.5 3
      vertex 22.5 0.849999 3
      vertex 22.5 22.5 3
    endloop
  endfacet
  facet normal 0 0 1
    outer loop
      vertex 22.5 0.849999 3
      vertex -22.5 22.5 3
      vertex -22.5 0.849999 3
    endloop
  endfacet
  facet normal -0 0 1
    outer loop
      vertex -22.5 -0.849999 3
      vertex 22.5 -22.5 3
      vertex 22.5 -0.849999 3
    endloop
  endfacet
  facet normal 0 0 1
    outer loop
      vertex 22.5 -22.5 3
      vertex -22.5 -0.849999 3
      vertex -22.5 -22.5 3
    endloop
  endfacet
  facet normal 0 0 -1
    outer loop
      vertex -22.5 -22.5 -3
      vertex 22.5 22.5 -3
      vertex 22.5 -22.5 -3
    endloop
  endfacet
  facet normal -0 0 -1
    outer loop
      vertex 22.5 22.5 -3
      vertex -22.5 -22.5 -3
      vertex -22.5 22.5 -3
    endloop
  endfacet
  facet normal -1 0 0
    outer loop
      vertex -22.5 22.5 -3
      vertex -22.5 0.849999 0
      vertex -22.5 22.5 3
    endloop
  endfacet
  facet normal -1 0 0
    outer loop
      vertex -22.5 22.5 -3
      vertex -22.5 -0.849999 0
      vertex -22.5 0.849999 0
    endloop
  endfacet
  facet normal -1 0 0
    outer loop
      vertex -22.5 -22.5 -3
      vertex -22.5 -0.849999 0
      vertex -22.5 22.5 -3
    endloop
  endfacet
  facet normal -1 0 0
    outer loop
      vertex -22.5 -22.5 3
      vertex -22.5 -0.849999 0
      vertex -22.5 -22.5 -3
    endloop
  endfacet
  facet normal -1 0 0
    outer loop
      vertex -22.5 -0.849999 0
      vertex -22.5 -22.5 3
      vertex -22.5 -0.849999 3
    endloop
  endfacet
  facet normal -1 -0 0
    outer loop
      vertex -22.5 22.5 3
      vertex -22.5 0.849999 0
      vertex -22.5 0.849999 3
    endloop
  endfacet
  facet normal 0 1 -0
    outer loop
      vertex 22.5 22.5 -3
      vertex -22.5 22.5 3
      vertex 22.5 22.5 3
    endloop
  endfacet
  facet normal 0 1 0
    outer loop
      vertex -22.5 22.5 3
      vertex 22.5 22.5 -3
      vertex -22.5 22.5 -3
    endloop
  endfacet
  facet normal 0 -1 0
    outer loop
      vertex -22.5 -22.5 -3
      vertex 22.5 -22.5 3
      vertex -22.5 -22.5 3
    endloop
  endfacet
  facet normal 0 -1 -0
    outer loop
      vertex 22.5 -22.5 3
      vertex -22.5 -22.5 -3
      vertex 22.5 -22.5 -3
    endloop
  endfacet
  facet normal -0 0 1
    outer loop
      vertex -22.5 0.849999 0
      vertex 22.5 -0.849999 0
      vertex 22.5 0.849999 0
    endloop
  endfacet
  facet normal 0 0 1
    outer loop
      vertex 22.5 -0.849999 0
      vertex -22.5 0.849999 0
      vertex -22.5 -0.849999 0
    endloop
  endfacet
  facet normal 0 -1 0
    outer loop
      vertex -22.5 0.849999 0
      vertex 22.5 0.849999 3
      vertex -22.5 0.849999 3
    endloop
  endfacet
  facet normal 0 -1 -0
    outer loop
      vertex 22.5 0.849999 3
      vertex -22.5 0.849999 0
      vertex 22.5 0.849999 0
    endloop
  endfacet
  facet normal 0 1 -0
    outer loop
      vertex 22.5 -0.849999 0
      vertex -22.5 -0.849999 3
      vertex 22.5 -0.849999 3
    endloop
  endfacet
  facet normal 0 1 0
    outer loop
      vertex -22.5 -0.849999 3
      vertex 22.5 -0.849999 0
      vertex -22.5 -0.849999 0
    endloop
  endfacet
endsolid OpenSCAD_Model
