solid OpenSCAD_Model
  facet normal -1 0 0
    outer loop
      vertex 3 -25 -35
      vertex 3 25 -29
      vertex 3 25 -35
    endloop
  endfacet
  facet normal -1 -0 0
    outer loop
      vertex 3 25 -29
      vertex 3 -25 -35
      vertex 3 -25 -29
    endloop
  endfacet
  facet normal -0 0 1
    outer loop
      vertex -3 25 -35
      vertex 3 -25 -35
      vertex 3 25 -35
    endloop
  endfacet
  facet normal 0 0 1
    outer loop
      vertex 3 -25 -35
      vertex -3 25 -35
      vertex -3 -25 -35
    endloop
  endfacet
  facet normal 1 -0 0
    outer loop
      vertex -3 -25 -29
      vertex -3 25 -35
      vertex -3 25 -29
    endloop
  endfacet
  facet normal 1 0 0
    outer loop
      vertex -3 25 -35
      vertex -3 -25 -29
      vertex -3 -25 -35
    endloop
  endfacet
  facet normal 0 1 -0
    outer loop
      vertex 25 25 -41
      vertex 9 25 -35
      vertex 25 25 -35
    endloop
  endfacet
  facet normal 0 1 0
    outer loop
      vertex 9 25 -35
      vertex 25 25 -41
      vertex 3 25 -35
    endloop
  endfacet
  facet normal 0 1 0
    outer loop
      vertex 3 25 -35
      vertex 25 25 -41
      vertex -3 25 -35
    endloop
  endfacet
  facet normal 0 1 0
    outer loop
      vertex -25 25 -41
      vertex -3 25 -35
      vertex 25 25 -41
    endloop
  endfacet
  facet normal 0 1 0
    outer loop
      vertex -3 25 -35
      vertex -25 25 -41
      vertex -9 25 -35
    endloop
  endfacet
  facet normal 0 1 0
    outer loop
      vertex -9 25 -35
      vertex -25 25 -41
      vertex -25 25 -35
    endloop
  endfacet
  facet normal 0 1 -0
    outer loop
      vertex 9 25 -35
      vertex 3 25 -29
      vertex 9 25 -29
    endloop
  endfacet
  facet normal 0 1 0
    outer loop
      vertex 3 25 -29
      vertex 9 25 -35
      vertex 3 25 -35
    endloop
  endfacet
  facet normal 0 1 -0
    outer loop
      vertex -3 25 -35
      vertex -9 25 -29
      vertex -3 25 -29
    endloop
  endfacet
  facet normal 0 1 0
    outer loop
      vertex -9 25 -29
      vertex -3 25 -35
      vertex -9 25 -35
    endloop
  endfacet
  facet normal 0 -1 0
    outer loop
      vertex -25 -25 -41
      vertex -9 -25 -35
      vertex -25 -25 -35
    endloop
  endfacet
  facet normal 0 -1 -0
    outer loop
      vertex -9 -25 -35
      vertex -25 -25 -41
      vertex -3 -25 -35
    endloop
  endfacet
  facet normal 0 -1 -0
    outer loop
      vertex -3 -25 -35
      vertex -25 -25 -41
      vertex 3 -25 -35
    endloop
  endfacet
  facet normal 0 -1 0
    outer loop
      vertex 25 -25 -41
      vertex 3 -25 -35
      vertex -25 -25 -41
    endloop
  endfacet
  facet normal 0 -1 0
    outer loop
      vertex 3 -25 -35
      vertex 25 -25 -41
      vertex 9 -25 -35
    endloop
  endfacet
  facet normal 0 -1 0
    outer loop
      vertex 9 -25 -35
      vertex 25 -25 -41
      vertex 25 -25 -35
    endloop
  endfacet
  facet normal 0 -1 0
    outer loop
      vertex -9 -25 -35
      vertex -3 -25 -29
      vertex -9 -25 -29
    endloop
  endfacet
  facet normal 0 -1 -0
    outer loop
      vertex -3 -25 -29
      vertex -9 -25 -35
      vertex -3 -25 -35
    endloop
  endfacet
  facet normal 0 -1 0
    outer loop
      vertex 3 -25 -35
      vertex 9 -25 -29
      vertex 3 -25 -29
    endloop
  endfacet
  facet normal 0 -1 -0
    outer loop
      vertex 9 -25 -29
      vertex 3 -25 -35
      vertex 9 -25 -35
    endloop
  endfacet
  facet normal 0 0 -1
    outer loop
      vertex -25 -25 -41
      vertex 25 25 -41
      vertex 25 -25 -41
    endloop
  endfacet
  facet normal -0 0 -1
    outer loop
      vertex 25 25 -41
      vertex -25 -25 -41
      vertex -25 25 -41
    endloop
  endfacet
  facet normal 1 -0 0
    outer loop
      vertex 25 -25 -35
      vertex 25 25 -41
      vertex 25 25 -35
    endloop
  endfacet
  facet normal 1 0 0
    outer loop
      vertex 25 25 -41
      vertex 25 -25 -35
      vertex 25 -25 -41
    endloop
  endfacet
  facet normal -1 0 0
    outer loop
      vertex -25 -25 -41
      vertex -25 25 -35
      vertex -25 25 -41
    endloop
  endfacet
  facet normal -1 -0 0
    outer loop
      vertex -25 25 -35
      vertex -25 -25 -41
      vertex -25 -25 -35
    endloop
  endfacet
  facet normal -0 0 1
    outer loop
      vertex 9 25 -35
      vertex 25 -25 -35
      vertex 25 25 -35
    endloop
  endfacet
  facet normal 0 0 1
    outer loop
      vertex 25 -25 -35
      vertex 9 25 -35
      vertex 9 -25 -35
    endloop
  endfacet
  facet normal -0 0 1
    outer loop
      vertex -25 25 -35
      vertex -9 -25 -35
      vertex -9 25 -35
    endloop
  endfacet
  facet normal 0 0 1
    outer loop
      vertex -9 -25 -35
      vertex -25 25 -35
      vertex -25 -25 -35
    endloop
  endfacet
  facet normal 1 -0 0
    outer loop
      vertex 9 -25 -29
      vertex 9 25 -35
      vertex 9 25 -29
    endloop
  endfacet
  facet normal 1 0 0
    outer loop
      vertex 9 25 -35
      vertex 9 -25 -29
      vertex 9 -25 -35
    endloop
  endfacet
  facet normal -1 0 0
    outer loop
      vertex -9 -25 -35
      vertex -9 25 -29
      vertex -9 25 -35
    endloop
  endfacet
  facet normal -1 -0 0
    outer loop
      vertex -9 25 -29
      vertex -9 -25 -35
      vertex -9 -25 -29
    endloop
  endfacet
  facet normal -0 0 1
    outer loop
      vertex 3 25 -29
      vertex 9 -25 -29
      vertex 9 25 -29
    endloop
  endfacet
  facet normal 0 0 1
    outer loop
      vertex 9 -25 -29
      vertex 3 25 -29
      vertex 3 -25 -29
    endloop
  endfacet
  facet normal -0 0 1
    outer loop
      vertex -9 25 -29
      vertex -3 -25 -29
      vertex -3 25 -29
    endloop
  endfacet
  facet normal 0 0 1
    outer loop
      vertex -3 -25 -29
      vertex -9 25 -29
      vertex -9 -25 -29
    endloop
  endfacet
endsolid OpenSCAD_Model
